JetBrains Mono-Thin.ufo
<glyph name="exclam" format="2">
	<advance width="600"/>
	<unicode hex="0021"/>
	<outline>
		<contour>
			<point x="285" y="205" type="line"/>
			<point x="315" y="205" type="line"/>
			<point x="331" y="570" type="line"/>
			<point x="331" y="730" type="line"/>
			<point x="269" y="730" type="line"/>
			<point x="269" y="570" type="line"/>
		</contour>
		<contour>
			<point x="301" y="-5" type="curve" smooth="yes"/>
			<point x="306" y="-5" type="line" smooth="yes"/>
			<point x="339" y="-5"/>
			<point x="361" y="17"/>
			<point x="361" y="50" type="curve" smooth="yes"/>
			<point x="361" y="83"/>
			<point x="339" y="105"/>
			<point x="306" y="105" type="curve" smooth="yes"/>
			<point x="301" y="105" type="line" smooth="yes"/>
			<point x="268" y="105"/>
			<point x="246" y="83"/>
			<point x="246" y="50" type="curve" smooth="yes"/>
			<point x="246" y="17"/>
			<point x="268" y="-5"/>
		</contour>
	</outline>
</glyph>
<glyph name="quotedbl" format="2">
	<advance width="600"/>
	<unicode hex="0022"/>
	<outline>
		<contour>
			<point x="377" y="430" type="line"/>
			<point x="424" y="430" type="line"/>
			<point x="433" y="560" type="line"/>
			<point x="433" y="730" type="line"/>
			<point x="367" y="730" type="line"/>
			<point x="367" y="560" type="line"/>
		</contour>
		<contour>
			<point x="177" y="430" type="line"/>
			<point x="224" y="430" type="line"/>
			<point x="233" y="560" type="line"/>
			<point x="233" y="730" type="line"/>
			<point x="167" y="730" type="line"/>
			<point x="167" y="560" type="line"/>
		</contour>
	</outline>
</glyph>
<glyph name="numbersign" format="2">
	<advance width="600"/>
	<unicode hex="0023"/>
	<outline>
		<contour>
			<point x="92" y="0" type="line"/>
			<point x="137" y="0" type="line"/>
			<point x="177" y="210" type="line"/>
			<point x="363" y="210" type="line"/>
			<point x="323" y="0" type="line"/>
			<point x="368" y="0" type="line"/>
			<point x="408" y="210" type="line"/>
			<point x="530" y="210" type="line"/>
			<point x="530" y="254" type="line"/>
			<point x="417" y="254" type="line"/>
			<point x="459" y="476" type="line"/>
			<point x="565" y="476" type="line"/>
			<point x="565" y="520" type="line"/>
			<point x="468" y="520" type="line"/>
			<point x="508" y="730" type="line"/>
			<point x="463" y="730" type="line"/>
			<point x="423" y="520" type="line"/>
			<point x="237" y="520" type="line"/>
			<point x="277" y="730" type="line"/>
			<point x="232" y="730" type="line"/>
			<point x="192" y="520" type="line"/>
			<point x="70" y="520" type="line"/>
			<point x="70" y="476" type="line"/>
			<point x="183" y="476" type="line"/>
			<point x="141" y="254" type="line"/>
			<point x="35" y="254" type="line"/>
			<point x="35" y="210" type="line"/>
			<point x="132" y="210" type="line"/>
		</contour>
		<contour>
			<point x="186" y="254" type="line"/>
			<point x="228" y="476" type="line"/>
			<point x="414" y="476" type="line"/>
			<point x="372" y="254" type="line"/>
		</contour>
	</outline>
</glyph>
<glyph name="dollar" format="2">
	<advance width="600"/>
	<unicode hex="0024"/>
	<outline>
		<contour>
			<point x="305" y="-10" type="curve" smooth="yes"/>
			<point x="433" y="-10"/>
			<point x="515" y="63"/>
			<point x="515" y="177" type="curve" smooth="yes"/>
			<point x="515" y="275"/>
			<point x="454" y="354"/>
			<point x="354" y="385" type="curve" smooth="yes"/>
			<point x="270" y="411" type="line" smooth="yes"/>
			<point x="199" y="433"/>
			<point x="155" y="491"/>
			<point x="155" y="563" type="curve" smooth="yes"/>
			<point x="155" y="644"/>
			<point x="213" y="695"/>
			<point x="305" y="695" type="curve" smooth="yes"/>
			<point x="396" y="695"/>
			<point x="455" y="637"/>
			<point x="455" y="548" type="curve"/>
			<point x="505" y="548" type="line"/>
			<point x="505" y="666"/>
			<point x="428" y="740"/>
			<point x="306" y="740" type="curve" smooth="yes"/>
			<point x="183" y="740"/>
			<point x="105" y="670"/>
			<point x="105" y="559" type="curve" smooth="yes"/>
			<point x="105" y="464"/>
			<point x="162" y="392"/>
			<point x="258" y="363" type="curve" smooth="yes"/>
			<point x="342" y="338" type="line" smooth="yes"/>
			<point x="418" y="315"/>
			<point x="465" y="254"/>
			<point x="465" y="177" type="curve" smooth="yes"/>
			<point x="465" y="88"/>
			<point x="405" y="35"/>
			<point x="305" y="35" type="curve" smooth="yes"/>
			<point x="202" y="35"/>
			<point x="135" y="94"/>
			<point x="135" y="185" type="curve"/>
			<point x="85" y="185" type="line"/>
			<point x="85" y="66"/>
			<point x="170" y="-10"/>
		</contour>
		<contour>
			<point x="285" y="-140" type="line"/>
			<point x="315" y="-140" type="line"/>
			<point x="315" y="370" type="line"/>
			<point x="285" y="370" type="line"/>
		</contour>
		<contour>
			<point x="285" y="370" type="line"/>
			<point x="315" y="370" type="line"/>
			<point x="315" y="850" type="line"/>
			<point x="285" y="850" type="line"/>
		</contour>
	</outline>
</glyph>
<glyph name="percent" format="2">
	<advance width="600"/>
	<unicode hex="0025"/>
	<outline>
		<contour>
			<point x="20" y="0" type="line"/>
			<point x="65" y="0" type="line"/>
			<point x="580" y="730" type="line"/>
			<point x="535" y="730" type="line"/>
		</contour>
		<contour>
			<point x="440" y="-5" type="curve" smooth="yes"/>
			<point x="518" y="-5"/>
			<point x="566" y="45"/>
			<point x="566" y="125" type="curve" smooth="yes"/>
			<point x="566" y="200" type="line" smooth="yes"/>
			<point x="566" y="280"/>
			<point x="518" y="330"/>
			<point x="440" y="330" type="curve" smooth="yes"/>
			<point x="362" y="330"/>
			<point x="314" y="280"/>
			<point x="314" y="200" type="curve" smooth="yes"/>
			<point x="314" y="125" type="line" smooth="yes"/>
			<point x="314" y="45"/>
			<point x="362" y="-5"/>
		</contour>
		<contour>
			<point x="440" y="37" type="curve" smooth="yes"/>
			<point x="387" y="37"/>
			<point x="358" y="68"/>
			<point x="358" y="125" type="curve" smooth="yes"/>
			<point x="358" y="200" type="line" smooth="yes"/>
			<point x="358" y="257"/>
			<point x="387" y="288"/>
			<point x="440" y="288" type="curve" smooth="yes"/>
			<point x="493" y="288"/>
			<point x="522" y="257"/>
			<point x="522" y="200" type="curve" smooth="yes"/>
			<point x="522" y="125" type="line" smooth="yes"/>
			<point x="522" y="68"/>
			<point x="493" y="37"/>
		</contour>
		<contour>
			<point x="160" y="400" type="curve" smooth="yes"/>
			<point x="238" y="400"/>
			<point x="286" y="450"/>
			<point x="286" y="530" type="curve" smooth="yes"/>
			<point x="286" y="605" type="line" smooth="yes"/>
			<point x="286" y="685"/>
			<point x="238" y="735"/>
			<point x="160" y="735" type="curve" smooth="yes"/>
			<point x="83" y="735"/>
			<point x="34" y="685"/>
			<point x="34" y="605" type="curve" smooth="yes"/>
			<point x="34" y="530" type="line" smooth="yes"/>
			<point x="34" y="450"/>
			<point x="83" y="400"/>
		</contour>
		<contour>
			<point x="160" y="442" type="curve" smooth="yes"/>
			<point x="108" y="442"/>
			<point x="78" y="473"/>
			<point x="78" y="530" type="curve" smooth="yes"/>
			<point x="78" y="605" type="line" smooth="yes"/>
			<point x="78" y="662"/>
			<point x="108" y="693"/>
			<point x="160" y="693" type="curve" smooth="yes"/>
			<point x="213" y="693"/>
			<point x="242" y="662"/>
			<point x="242" y="605" type="curve" smooth="yes"/>
			<point x="242" y="530" type="line" smooth="yes"/>
			<point x="242" y="473"/>
			<point x="213" y="442"/>
		</contour>
	</outline>
</glyph>
<glyph name="ampersand" format="2">
	<advance width="600"/>
	<unicode hex="0026"/>
	<outline>
		<contour>
			<point x="191" y="414" type="curve" smooth="yes"/>
			<point x="508" y="0" type="line"/>
			<point x="561" y="0" type="line"/>
			<point x="231" y="443" type="line" smooth="yes"/>
			<point x="193" y="494"/>
			<point x="170" y="539"/>
			<point x="170" y="580" type="curve" smooth="yes"/>
			<point x="170" y="641"/>
			<point x="218" y="695"/>
			<point x="285" y="695" type="curve" smooth="yes"/>
			<point x="355" y="695"/>
			<point x="405" y="637"/>
			<point x="405" y="570" type="curve"/>
			<point x="455" y="570" type="line"/>
			<point x="455" y="667"/>
			<point x="388" y="740"/>
			<point x="285" y="740" type="curve" smooth="yes"/>
			<point x="186" y="740"/>
			<point x="120" y="670"/>
			<point x="120" y="580" type="curve" smooth="yes"/>
			<point x="120" y="532"/>
			<point x="140" y="480"/>
		</contour>
		<contour>
			<point x="220" y="-10" type="curve" smooth="yes"/>
			<point x="304" y="-10"/>
			<point x="374" y="37"/>
			<point x="425" y="132" type="curve" smooth="yes"/>
			<point x="547" y="360" type="line"/>
			<point x="497" y="360" type="line"/>
			<point x="386" y="155" type="line" smooth="yes"/>
			<point x="344" y="78"/>
			<point x="286" y="35"/>
			<point x="225" y="35" type="curve" smooth="yes"/>
			<point x="160" y="35"/>
			<point x="115" y="84"/>
			<point x="115" y="155" type="curve" smooth="yes"/>
			<point x="115" y="266" type="line" smooth="yes"/>
			<point x="115" y="339"/>
			<point x="157" y="386"/>
			<point x="221" y="386" type="curve" smooth="yes"/>
			<point x="235" y="386" type="line"/>
			<point x="235" y="431" type="line"/>
			<point x="220" y="431" type="line" smooth="yes"/>
			<point x="124" y="431"/>
			<point x="65" y="369"/>
			<point x="65" y="266" type="curve" smooth="yes"/>
			<point x="65" y="155" type="line" smooth="yes"/>
			<point x="65" y="52"/>
			<point x="124" y="-10"/>
		</contour>
	</outline>
</glyph>
<glyph name="quotesingle" format="2">
	<advance width="600"/>
	<unicode hex="0027"/>
	<outline>
		<contour>
			<point x="277" y="430" type="line"/>
			<point x="324" y="430" type="line"/>
			<point x="333" y="560" type="line"/>
			<point x="333" y="730" type="line"/>
			<point x="267" y="730" type="line"/>
			<point x="267" y="560" type="line"/>
		</contour>
	</outline>
</glyph>
<glyph name="parenleft" format="2">
	<advance width="600"/>
	<unicode hex="0028"/>
	<outline>
		<contour>
			<point x="485" y="-125" type="curve"/>
			<point x="485" y="-75" type="line"/>
			<point x="343" y="-39"/>
			<point x="260" y="83"/>
			<point x="260" y="255" type="curve" smooth="yes"/>
			<point x="260" y="465" type="line" smooth="yes"/>
			<point x="260" y="640"/>
			<point x="341" y="759"/>
			<point x="485" y="795" type="curve"/>
			<point x="485" y="845" type="line"/>
			<point x="301" y="799"/>
			<point x="205" y="669"/>
			<point x="205" y="465" type="curve" smooth="yes"/>
			<point x="205" y="255" type="line" smooth="yes"/>
			<point x="205" y="51"/>
			<point x="301" y="-79"/>
		</contour>
	</outline>
</glyph>
<glyph name="parenright" format="2">
	<advance width="600"/>
	<unicode hex="0029"/>
	<outline>
		<contour>
			<point x="115" y="-75" type="curve"/>
			<point x="115" y="-125" type="line"/>
			<point x="299" y="-79"/>
			<point x="395" y="51"/>
			<point x="395" y="255" type="curve" smooth="yes"/>
			<point x="395" y="465" type="line" smooth="yes"/>
			<point x="395" y="669"/>
			<point x="299" y="799"/>
			<point x="115" y="845" type="curve"/>
			<point x="115" y="795" type="line"/>
			<point x="259" y="759"/>
			<point x="340" y="640"/>
			<point x="340" y="465" type="curve" smooth="yes"/>
			<point x="340" y="255" type="line" smooth="yes"/>
			<point x="340" y="83"/>
			<point x="257" y="-39"/>
		</contour>
	</outline>
</glyph>
<glyph name="asterisk" format="2">
	<advance width="600"/>
	<unicode hex="002A"/>
	<outline>
		<contour>
			<point x="167" y="104" type="line"/>
			<point x="239" y="207" type="line" smooth="yes"/>
			<point x="276" y="260"/>
			<point x="282" y="287"/>
			<point x="294" y="310" type="curve"/>
			<point x="305" y="310" type="line"/>
			<point x="317" y="286"/>
			<point x="324" y="260"/>
			<point x="360" y="207" type="curve" smooth="yes"/>
			<point x="433" y="103" type="line"/>
			<point x="477" y="134" type="line"/>
			<point x="404" y="238" type="line" smooth="yes"/>
			<point x="368" y="289"/>
			<point x="345" y="305"/>
			<point x="327" y="323" type="curve"/>
			<point x="332" y="337" type="line"/>
			<point x="355" y="341"/>
			<point x="383" y="342"/>
			<point x="437" y="362" type="curve" smooth="yes"/>
			<point x="558" y="406" type="line"/>
			<point x="540" y="456" type="line"/>
			<point x="418" y="413" type="line" smooth="yes"/>
			<point x="365" y="395"/>
			<point x="343" y="377"/>
			<point x="323" y="364" type="curve"/>
			<point x="314" y="371" type="line"/>
			<point x="319" y="395"/>
			<point x="327" y="421"/>
			<point x="327" y="480" type="curve" smooth="yes"/>
			<point x="327" y="610" type="line"/>
			<point x="273" y="610" type="line"/>
			<point x="273" y="480" type="line" smooth="yes"/>
			<point x="273" y="421"/>
			<point x="282" y="395"/>
			<point x="286" y="371" type="curve"/>
			<point x="277" y="365" type="line"/>
			<point x="257" y="378"/>
			<point x="235" y="394"/>
			<point x="180" y="414" type="curve" smooth="yes"/>
			<point x="61" y="457" type="line"/>
			<point x="42" y="407" type="line"/>
			<point x="162" y="363" type="line" smooth="yes"/>
			<point x="216" y="343"/>
			<point x="244" y="342"/>
			<point x="267" y="339" type="curve"/>
			<point x="272" y="324" type="line"/>
			<point x="254" y="306"/>
			<point x="232" y="290"/>
			<point x="195" y="238" type="curve" smooth="yes"/>
			<point x="122" y="135" type="line"/>
		</contour>
	</outline>
</glyph>
<glyph name="plus" format="2">
	<advance width="600"/>
	<unicode hex="002B"/>
	<outline>
		<contour>
			<point x="275" y="100" type="line"/>
			<point x="325" y="100" type="line"/>
			<point x="325" y="310" type="line"/>
			<point x="525" y="310" type="line"/>
			<point x="525" y="355" type="line"/>
			<point x="325" y="355" type="line"/>
			<point x="325" y="565" type="line"/>
			<point x="275" y="565" type="line"/>
			<point x="275" y="355" type="line"/>
			<point x="75" y="355" type="line"/>
			<point x="75" y="310" type="line"/>
			<point x="275" y="310" type="line"/>
		</contour>
	</outline>
</glyph>
<glyph name="comma" format="2">
	<advance width="600"/>
	<unicode hex="002C"/>
	<outline>
		<contour>
			<point x="190" y="-160" type="line"/>
			<point x="230" y="-160" type="line"/>
			<point x="355" y="151" type="line"/>
			<point x="265" y="151" type="line"/>
		</contour>
	</outline>
</glyph>
<glyph name="hyphen" format="2">
	<advance width="600"/>
	<unicode hex="002D"/>
	<outline>
		<contour>
			<point x="95" y="308" type="line"/>
			<point x="505" y="308" type="line"/>
			<point x="505" y="353" type="line"/>
			<point x="95" y="353" type="line"/>
		</contour>
	</outline>
</glyph>
<glyph name="period" format="2">
	<advance width="600"/>
	<unicode hex="002E"/>
	<outline>
		<contour>
			<point x="295" y="-10" type="curve" smooth="yes"/>
			<point x="305" y="-10" type="line" smooth="yes"/>
			<point x="348" y="-10"/>
			<point x="375" y="20"/>
			<point x="375" y="66" type="curve" smooth="yes"/>
			<point x="375" y="111"/>
			<point x="348" y="140"/>
			<point x="305" y="140" type="curve" smooth="yes"/>
			<point x="295" y="140" type="line" smooth="yes"/>
			<point x="252" y="140"/>
			<point x="225" y="112"/>
			<point x="225" y="66" type="curve" smooth="yes"/>
			<point x="225" y="20"/>
			<point x="252" y="-10"/>
		</contour>
	</outline>
</glyph>
<glyph name="slash" format="2">
	<advance width="600"/>
	<unicode hex="002F"/>
	<outline>
		<contour>
			<point x="95" y="-110" type="line"/>
			<point x="149" y="-110" type="line"/>
			<point x="505" y="830" type="line"/>
			<point x="451" y="830" type="line"/>
		</contour>
	</outline>
</glyph>
<glyph name="zero" format="2">
	<advance width="600"/>
	<unicode hex="0030"/>
	<outline>
		<contour>
			<point x="301" y="-10" type="curve" smooth="yes"/>
			<point x="429" y="-10"/>
			<point x="507" y="71"/>
			<point x="507" y="205" type="curve" smooth="yes"/>
			<point x="507" y="525" type="line" smooth="yes"/>
			<point x="507" y="659"/>
			<point x="429" y="740"/>
			<point x="301" y="740" type="curve" smooth="yes"/>
			<point x="172" y="740"/>
			<point x="93" y="658"/>
			<point x="93" y="525" type="curve" smooth="yes"/>
			<point x="93" y="205" type="line" smooth="yes"/>
			<point x="93" y="72"/>
			<point x="172" y="-10"/>
		</contour>
		<contour>
			<point x="301" y="40" type="curve" smooth="yes"/>
			<point x="206" y="40"/>
			<point x="148" y="103"/>
			<point x="148" y="205" type="curve" smooth="yes"/>
			<point x="148" y="525" type="line" smooth="yes"/>
			<point x="148" y="627"/>
			<point x="206" y="690"/>
			<point x="301" y="690" type="curve" smooth="yes"/>
			<point x="395" y="690"/>
			<point x="452" y="627"/>
			<point x="452" y="525" type="curve" smooth="yes"/>
			<point x="452" y="205" type="line" smooth="yes"/>
			<point x="452" y="102"/>
			<point x="395" y="40"/>
		</contour>
		<contour>
			<point x="300" y="305" type="curve" smooth="yes"/>
			<point x="330" y="305"/>
			<point x="350" y="327"/>
			<point x="350" y="360" type="curve" smooth="yes"/>
			<point x="350" y="375" type="line" smooth="yes"/>
			<point x="350" y="408"/>
			<point x="330" y="430"/>
			<point x="300" y="430" type="curve" smooth="yes"/>
			<point x="270" y="430"/>
			<point x="250" y="408"/>
			<point x="250" y="375" type="curve" smooth="yes"/>
			<point x="250" y="360" type="line" smooth="yes"/>
			<point x="250" y="327"/>
			<point x="270" y="305"/>
		</contour>
	</outline>
</glyph>
<glyph name="one" format="2">
	<advance width="600"/>
	<unicode hex="0031"/>
	<outline>
		<contour>
			<point x="100" y="0" type="line"/>
			<point x="530" y="0" type="line"/>
			<point x="530" y="45" type="line"/>
			<point x="357" y="45" type="line"/>
			<point x="357" y="730" type="line"/>
			<point x="291" y="730" type="line"/>
			<point x="108" y="595" type="line"/>
			<point x="108" y="539" type="line"/>
			<point x="307" y="685" type="line"/>
			<point x="307" y="45" type="line"/>
			<point x="100" y="45" type="line"/>
		</contour>
	</outline>
</glyph>
<glyph name="two" format="2">
	<advance width="600"/>
	<unicode hex="0032"/>
	<outline>
		<contour>
			<point x="96" y="0" type="line"/>
			<point x="530" y="0" type="line"/>
			<point x="530" y="45" type="line"/>
			<point x="145" y="45" type="line"/>
			<point x="360" y="258" type="line" smooth="yes"/>
			<point x="462" y="358"/>
			<point x="510" y="449"/>
			<point x="510" y="539" type="curve" smooth="yes"/>
			<point x="510" y="662"/>
			<point x="427" y="740"/>
			<point x="297" y="740" type="curve" smooth="yes"/>
			<point x="168" y="740"/>
			<point x="84" y="660"/>
			<point x="84" y="535" type="curve"/>
			<point x="134" y="535" type="line"/>
			<point x="134" y="634"/>
			<point x="197" y="696"/>
			<point x="297" y="696" type="curve" smooth="yes"/>
			<point x="397" y="696"/>
			<point x="460" y="634"/>
			<point x="460" y="536" type="curve" smooth="yes"/>
			<point x="460" y="457"/>
			<point x="419" y="381"/>
			<point x="328" y="289" type="curve" smooth="yes"/>
			<point x="96" y="55" type="line"/>
		</contour>
	</outline>
</glyph>
<glyph name="three" format="2">
	<advance width="600"/>
	<unicode hex="0033"/>
	<outline>
		<contour>
			<point x="290" y="-10" type="curve" smooth="yes"/>
			<point x="412" y="-10"/>
			<point x="490" y="68"/>
			<point x="490" y="190" type="curve" smooth="yes"/>
			<point x="490" y="265" type="line" smooth="yes"/>
			<point x="490" y="385"/>
			<point x="412" y="460"/>
			<point x="287" y="460" type="curve"/>
			<point x="287" y="452" type="line"/>
			<point x="479" y="680" type="line"/>
			<point x="479" y="730" type="line"/>
			<point x="115" y="730" type="line"/>
			<point x="115" y="685" type="line"/>
			<point x="428" y="685" type="line"/>
			<point x="239" y="460" type="line"/>
			<point x="239" y="415" type="line"/>
			<point x="290" y="415" type="line" smooth="yes"/>
			<point x="385" y="415"/>
			<point x="440" y="360"/>
			<point x="440" y="265" type="curve" smooth="yes"/>
			<point x="440" y="190" type="line" smooth="yes"/>
			<point x="440" y="94"/>
			<point x="383" y="35"/>
			<point x="290" y="35" type="curve" smooth="yes"/>
			<point x="197" y="35"/>
			<point x="140" y="93"/>
			<point x="140" y="190" type="curve"/>
			<point x="90" y="190" type="line"/>
			<point x="90" y="68"/>
			<point x="168" y="-10"/>
		</contour>
	</outline>
</glyph>
<glyph name="four" format="2">
	<advance width="600"/>
	<unicode hex="0034"/>
	<outline>
		<contour>
			<point x="435" y="0" type="line"/>
			<point x="485" y="0" type="line"/>
			<point x="485" y="420" type="line"/>
			<point x="435" y="420" type="line"/>
			<point x="435" y="215" type="line"/>
			<point x="150" y="215" type="line"/>
			<point x="150" y="257" type="line"/>
			<point x="445" y="729" type="line"/>
			<point x="392" y="729" type="line"/>
			<point x="100" y="270" type="line"/>
			<point x="100" y="170" type="line"/>
			<point x="435" y="170" type="line"/>
		</contour>
	</outline>
</glyph>
<glyph name="five" format="2">
	<advance width="600"/>
	<unicode hex="0035"/>
	<outline>
		<contour>
			<point x="300" y="-10" type="curve" smooth="yes"/>
			<point x="423" y="-10"/>
			<point x="500" y="73"/>
			<point x="500" y="204" type="curve" smooth="yes"/>
			<point x="500" y="270" type="line" smooth="yes"/>
			<point x="500" y="404"/>
			<point x="436" y="480"/>
			<point x="320" y="480" type="curve" smooth="yes"/>
			<point x="224" y="480"/>
			<point x="161" y="427"/>
			<point x="161" y="347" type="curve"/>
			<point x="186" y="380" type="line"/>
			<point x="165" y="380" type="line"/>
			<point x="168" y="685" type="line"/>
			<point x="480" y="685" type="line"/>
			<point x="480" y="730" type="line"/>
			<point x="120" y="730" type="line"/>
			<point x="115" y="326" type="line"/>
			<point x="165" y="326" type="line"/>
			<point x="182" y="395"/>
			<point x="230" y="435"/>
			<point x="300" y="435" type="curve" smooth="yes"/>
			<point x="396" y="435"/>
			<point x="450" y="374"/>
			<point x="450" y="270" type="curve" smooth="yes"/>
			<point x="450" y="204" type="line" smooth="yes"/>
			<point x="450" y="97"/>
			<point x="395" y="35"/>
			<point x="300" y="35" type="curve" smooth="yes"/>
			<point x="209" y="35"/>
			<point x="155" y="84"/>
			<point x="150" y="166" type="curve"/>
			<point x="100" y="166" type="line"/>
			<point x="108" y="57"/>
			<point x="183" y="-10"/>
		</contour>
	</outline>
</glyph>
<glyph name="six" format="2">
	<advance width="600"/>
	<unicode hex="0036"/>
	<outline>
		<contour>
			<point x="300" y="-10" type="curve" smooth="yes"/>
			<point x="429" y="-9"/>
			<point x="515" y="83"/>
			<point x="515" y="220" type="curve" smooth="yes"/>
			<point x="515" y="352"/>
			<point x="437" y="440"/>
			<point x="320" y="440" type="curve" smooth="yes"/>
			<point x="228" y="440"/>
			<point x="181" y="384"/>
			<point x="181" y="384" type="curve"/>
			<point x="177" y="387" type="line"/>
			<point x="386" y="730" type="line"/>
			<point x="330" y="730" type="line"/>
			<point x="140" y="406" type="line" smooth="yes"/>
			<point x="104" y="345"/>
			<point x="85" y="282"/>
			<point x="85" y="220" type="curve" smooth="yes"/>
			<point x="85" y="82"/>
			<point x="171" y="-10"/>
		</contour>
		<contour>
			<point x="300" y="35" type="curve" smooth="yes"/>
			<point x="199" y="35"/>
			<point x="132" y="109"/>
			<point x="135" y="220" type="curve" smooth="yes"/>
			<point x="136" y="326"/>
			<point x="202" y="396"/>
			<point x="300" y="396" type="curve" smooth="yes"/>
			<point x="399" y="396"/>
			<point x="465" y="325"/>
			<point x="465" y="220" type="curve" smooth="yes"/>
			<point x="465" y="109"/>
			<point x="399" y="35"/>
		</contour>
	</outline>
</glyph>
<glyph name="seven" format="2">
	<advance width="600"/>
	<unicode hex="0037"/>
	<outline>
		<contour>
			<point x="208" y="0" type="line"/>
			<point x="268" y="0" type="line"/>
			<point x="525" y="675" type="line"/>
			<point x="525" y="730" type="line"/>
			<point x="85" y="730" type="line"/>
			<point x="85" y="527" type="line"/>
			<point x="140" y="527" type="line"/>
			<point x="140" y="679" type="line"/>
			<point x="474" y="679" type="line"/>
		</contour>
	</outline>
</glyph>
<glyph name="eight" format="2">
	<advance width="600"/>
	<unicode hex="0038"/>
	<outline>
		<contour>
			<point x="300" y="-10" type="curve" smooth="yes"/>
			<point x="437" y="-10"/>
			<point x="518" y="67"/>
			<point x="518" y="190" type="curve" smooth="yes"/>
			<point x="518" y="277"/>
			<point x="468" y="358"/>
			<point x="382" y="383" type="curve"/>
			<point x="382" y="384" type="line"/>
			<point x="456" y="398"/>
			<point x="503" y="463"/>
			<point x="503" y="547" type="curve" smooth="yes"/>
			<point x="503" y="664"/>
			<point x="426" y="740"/>
			<point x="300" y="740" type="curve" smooth="yes"/>
			<point x="174" y="740"/>
			<point x="97" y="664"/>
			<point x="97" y="547" type="curve" smooth="yes"/>
			<point x="97" y="463"/>
			<point x="144" y="398"/>
			<point x="218" y="384" type="curve"/>
			<point x="218" y="383" type="line"/>
			<point x="132" y="358"/>
			<point x="82" y="277"/>
			<point x="82" y="190" type="curve" smooth="yes"/>
			<point x="82" y="67"/>
			<point x="163" y="-10"/>
		</contour>
		<contour>
			<point x="300" y="40" type="curve" smooth="yes"/>
			<point x="198" y="40"/>
			<point x="132" y="99"/>
			<point x="132" y="192" type="curve" smooth="yes"/>
			<point x="132" y="286"/>
			<point x="197" y="355"/>
			<point x="300" y="355" type="curve" smooth="yes"/>
			<point x="403" y="355"/>
			<point x="468" y="286"/>
			<point x="468" y="192" type="curve" smooth="yes"/>
			<point x="468" y="99"/>
			<point x="402" y="40"/>
		</contour>
		<contour>
			<point x="300" y="405" type="curve" smooth="yes"/>
			<point x="208" y="405"/>
			<point x="147" y="460"/>
			<point x="147" y="547" type="curve" smooth="yes"/>
			<point x="147" y="634"/>
			<point x="208" y="690"/>
			<point x="300" y="690" type="curve" smooth="yes"/>
			<point x="392" y="690"/>
			<point x="453" y="634"/>
			<point x="453" y="547" type="curve" smooth="yes"/>
			<point x="453" y="460"/>
			<point x="392" y="405"/>
		</contour>
	</outline>
</glyph>
<glyph name="nine" format="2">
	<advance width="600"/>
	<unicode hex="0039"/>
	<outline>
		<contour>
			<point x="214" y="0" type="line"/>
			<point x="270" y="0" type="line"/>
			<point x="461" y="324" type="line" smooth="yes"/>
			<point x="497" y="386"/>
			<point x="515" y="448"/>
			<point x="515" y="510" type="curve" smooth="yes"/>
			<point x="515" y="648"/>
			<point x="429" y="740"/>
			<point x="300" y="740" type="curve" smooth="yes"/>
			<point x="172" y="740"/>
			<point x="85" y="647"/>
			<point x="85" y="510" type="curve" smooth="yes"/>
			<point x="85" y="378"/>
			<point x="164" y="290"/>
			<point x="280" y="290" type="curve" smooth="yes"/>
			<point x="372" y="290"/>
			<point x="419" y="346"/>
			<point x="419" y="346" type="curve"/>
			<point x="423" y="343" type="line"/>
		</contour>
		<contour>
			<point x="300" y="334" type="curve" smooth="yes"/>
			<point x="201" y="334"/>
			<point x="135" y="405"/>
			<point x="135" y="510" type="curve" smooth="yes"/>
			<point x="135" y="622"/>
			<point x="201" y="695"/>
			<point x="300" y="695" type="curve" smooth="yes"/>
			<point x="402" y="695"/>
			<point x="468" y="622"/>
			<point x="466" y="511" type="curve" smooth="yes"/>
			<point x="464" y="404"/>
			<point x="398" y="334"/>
		</contour>
	</outline>
</glyph>
<glyph name="colon" format="2">
	<advance width="600"/>
	<unicode hex="003A"/>
	<outline>
		<contour>
			<point x="295" y="420" type="curve" smooth="yes"/>
			<point x="305" y="420" type="line" smooth="yes"/>
			<point x="347" y="420"/>
			<point x="375" y="448"/>
			<point x="375" y="490" type="curve" smooth="yes"/>
			<point x="375" y="532"/>
			<point x="347" y="560"/>
			<point x="305" y="560" type="curve" smooth="yes"/>
			<point x="295" y="560" type="line" smooth="yes"/>
			<point x="252" y="560"/>
			<point x="224" y="532"/>
			<point x="224" y="490" type="curve" smooth="yes"/>
			<point x="224" y="448"/>
			<point x="252" y="420"/>
		</contour>
		<contour>
			<point x="295" y="-10" type="curve" smooth="yes"/>
			<point x="305" y="-10" type="line" smooth="yes"/>
			<point x="347" y="-10"/>
			<point x="375" y="18"/>
			<point x="375" y="60" type="curve" smooth="yes"/>
			<point x="375" y="102"/>
			<point x="347" y="130"/>
			<point x="305" y="130" type="curve" smooth="yes"/>
			<point x="295" y="130" type="line" smooth="yes"/>
			<point x="252" y="130"/>
			<point x="224" y="102"/>
			<point x="224" y="60" type="curve" smooth="yes"/>
			<point x="224" y="18"/>
			<point x="252" y="-10"/>
		</contour>
	</outline>
</glyph>
<glyph name="semicolon" format="2">
	<advance width="600"/>
	<unicode hex="003B"/>
	<outline>
		<contour>
			<point x="190" y="-160" type="line"/>
			<point x="230" y="-160" type="line"/>
			<point x="355" y="151" type="line"/>
			<point x="265" y="151" type="line"/>
		</contour>
		<contour>
			<point x="295" y="420" type="curve" smooth="yes"/>
			<point x="305" y="420" type="line" smooth="yes"/>
			<point x="347" y="420"/>
			<point x="375" y="448"/>
			<point x="375" y="490" type="curve" smooth="yes"/>
			<point x="375" y="532"/>
			<point x="347" y="560"/>
			<point x="305" y="560" type="curve" smooth="yes"/>
			<point x="295" y="560" type="line" smooth="yes"/>
			<point x="252" y="560"/>
			<point x="224" y="532"/>
			<point x="224" y="490" type="curve" smooth="yes"/>
			<point x="224" y="448"/>
			<point x="252" y="420"/>
		</contour>
	</outline>
</glyph>
<glyph name="less" format="2">
	<advance width="600"/>
	<unicode hex="003C"/>
	<outline>
		<contour>
			<point x="510" y="80" type="line"/>
			<point x="510" y="133" type="line"/>
			<point x="219" y="289" type="line" smooth="yes"/>
			<point x="181" y="309"/>
			<point x="137" y="331"/>
			<point x="137" y="331" type="curve"/>
			<point x="137" y="331"/>
			<point x="181" y="353"/>
			<point x="219" y="373" type="curve" smooth="yes"/>
			<point x="510" y="527" type="line"/>
			<point x="510" y="580" type="line"/>
			<point x="90" y="353" type="line"/>
			<point x="90" y="307" type="line"/>
		</contour>
	</outline>
</glyph>
<glyph name="equal" format="2">
	<advance width="600"/>
	<unicode hex="003D"/>
	<outline>
		<contour>
			<point x="95" y="421" type="line"/>
			<point x="505" y="421" type="line"/>
			<point x="505" y="466" type="line"/>
			<point x="95" y="466" type="line"/>
		</contour>
		<contour>
			<point x="95" y="195" type="line"/>
			<point x="505" y="195" type="line"/>
			<point x="505" y="240" type="line"/>
			<point x="95" y="240" type="line"/>
		</contour>
	</outline>
</glyph>
<glyph name="greater" format="2">
	<advance width="600"/>
	<unicode hex="003E"/>
	<outline>
		<contour>
			<point x="90" y="80" type="line"/>
			<point x="510" y="307" type="line"/>
			<point x="510" y="353" type="line"/>
			<point x="90" y="580" type="line"/>
			<point x="90" y="527" type="line"/>
			<point x="381" y="371" type="line" smooth="yes"/>
			<point x="419" y="351"/>
			<point x="463" y="329"/>
			<point x="463" y="329" type="curve"/>
			<point x="463" y="329"/>
			<point x="419" y="307"/>
			<point x="381" y="287" type="curve" smooth="yes"/>
			<point x="90" y="133" type="line"/>
		</contour>
	</outline>
</glyph>
<glyph name="question" format="2">
	<advance width="600"/>
	<unicode hex="003F"/>
	<outline>
		<contour>
			<point x="241" y="205" type="line"/>
			<point x="291" y="205" type="line"/>
			<point x="291" y="330" type="line"/>
			<point x="419" y="330"/>
			<point x="500" y="408"/>
			<point x="500" y="530" type="curve" smooth="yes"/>
			<point x="500" y="651"/>
			<point x="417" y="730"/>
			<point x="290" y="730" type="curve" smooth="yes"/>
			<point x="170" y="730" type="line"/>
			<point x="170" y="685" type="line"/>
			<point x="290" y="685" type="line" smooth="yes"/>
			<point x="387" y="685"/>
			<point x="450" y="624"/>
			<point x="450" y="530" type="curve" smooth="yes"/>
			<point x="450" y="436"/>
			<point x="388" y="375"/>
			<point x="291" y="375" type="curve" smooth="yes"/>
			<point x="241" y="375" type="line"/>
		</contour>
		<contour>
			<point x="261" y="-5" type="curve" smooth="yes"/>
			<point x="266" y="-5" type="line" smooth="yes"/>
			<point x="299" y="-5"/>
			<point x="321" y="17"/>
			<point x="321" y="50" type="curve" smooth="yes"/>
			<point x="321" y="83"/>
			<point x="299" y="105"/>
			<point x="266" y="105" type="curve" smooth="yes"/>
			<point x="261" y="105" type="line" smooth="yes"/>
			<point x="228" y="105"/>
			<point x="206" y="83"/>
			<point x="206" y="50" type="curve" smooth="yes"/>
			<point x="206" y="17"/>
			<point x="228" y="-5"/>
		</contour>
	</outline>
</glyph>
<glyph name="at" format="2">
	<advance width="600"/>
	<unicode hex="0040"/>
	<outline>
		<contour>
			<point x="325" y="-179" type="curve" smooth="yes"/>
			<point x="400" y="-179" type="line"/>
			<point x="400" y="-134" type="line"/>
			<point x="325" y="-134" type="line" smooth="yes"/>
			<point x="193" y="-134"/>
			<point x="115" y="-37"/>
			<point x="115" y="116" type="curve" smooth="yes"/>
			<point x="115" y="445" type="line" smooth="yes"/>
			<point x="115" y="603"/>
			<point x="186" y="696"/>
			<point x="315" y="696" type="curve" smooth="yes"/>
			<point x="427" y="696"/>
			<point x="495" y="616"/>
			<point x="495" y="485" type="curve" smooth="yes"/>
			<point x="495" y="480" type="line"/>
			<point x="500" y="410" type="line"/>
			<point x="473" y="410" type="line"/>
			<point x="495" y="390" type="line"/>
			<point x="495" y="451"/>
			<point x="452" y="485"/>
			<point x="378" y="485" type="curve" smooth="yes"/>
			<point x="292" y="485"/>
			<point x="245" y="434"/>
			<point x="245" y="340" type="curve" smooth="yes"/>
			<point x="245" y="210" type="line" smooth="yes"/>
			<point x="245" y="110"/>
			<point x="292" y="55"/>
			<point x="378" y="55" type="curve" smooth="yes"/>
			<point x="448" y="55"/>
			<point x="495" y="93"/>
			<point x="495" y="150" type="curve"/>
			<point x="476" y="130" type="line"/>
			<point x="500" y="130" type="line"/>
			<point x="500" y="65" type="line"/>
			<point x="545" y="65" type="line"/>
			<point x="545" y="485" type="line" smooth="yes"/>
			<point x="545" y="641"/>
			<point x="456" y="740"/>
			<point x="315" y="740" type="curve" smooth="yes"/>
			<point x="157" y="740"/>
			<point x="65" y="628"/>
			<point x="65" y="445" type="curve" smooth="yes"/>
			<point x="65" y="116" type="line" smooth="yes"/>
			<point x="65" y="-64"/>
			<point x="163" y="-179"/>
		</contour>
		<contour>
			<point x="395" y="100" type="curve" smooth="yes"/>
			<point x="329" y="100"/>
			<point x="295" y="137"/>
			<point x="295" y="210" type="curve" smooth="yes"/>
			<point x="295" y="340" type="line" smooth="yes"/>
			<point x="295" y="406"/>
			<point x="329" y="440"/>
			<point x="395" y="440" type="curve" smooth="yes"/>
			<point x="459" y="440"/>
			<point x="495" y="404"/>
			<point x="495" y="340" type="curve" smooth="yes"/>
			<point x="495" y="210" type="line" smooth="yes"/>
			<point x="495" y="140"/>
			<point x="459" y="100"/>
		</contour>
	</outline>
</glyph>
<glyph name="A" format="2">
	<advance width="600"/>
	<unicode hex="0041"/>
	<outline>
		<contour>
			<point x="68" y="0" type="line"/>
			<point x="118" y="0" type="line"/>
			<point x="174" y="210" type="line"/>
			<point x="424" y="210" type="line"/>
			<point x="480" y="0" type="line"/>
			<point x="532" y="0" type="line"/>
			<point x="331" y="730" type="line"/>
			<point x="269" y="730" type="line"/>
		</contour>
		<contour>
			<point x="186" y="255" type="line"/>
			<point x="266" y="550" type="line" smooth="yes"/>
			<point x="285" y="622"/>
			<point x="297" y="673"/>
			<point x="300" y="688" type="curve"/>
			<point x="303" y="673"/>
			<point x="314" y="622"/>
			<point x="333" y="550" type="curve" smooth="yes"/>
			<point x="412" y="255" type="line"/>
		</contour>
	</outline>
</glyph>
<glyph name="B" format="2">
	<advance width="600"/>
	<unicode hex="0042"/>
	<outline>
		<contour>
			<point x="110" y="0" type="line"/>
			<point x="301" y="0" type="line" smooth="yes"/>
			<point x="433" y="0"/>
			<point x="516" y="78"/>
			<point x="516" y="200" type="curve" smooth="yes"/>
			<point x="516" y="310"/>
			<point x="448" y="380"/>
			<point x="340" y="380" type="curve"/>
			<point x="340" y="370" type="line"/>
			<point x="437" y="370"/>
			<point x="498" y="439"/>
			<point x="498" y="542" type="curve" smooth="yes"/>
			<point x="498" y="656"/>
			<point x="419" y="730"/>
			<point x="298" y="730" type="curve" smooth="yes"/>
			<point x="110" y="730" type="line"/>
		</contour>
		<contour>
			<point x="301" y="45" type="curve" smooth="yes"/>
			<point x="160" y="45" type="line"/>
			<point x="160" y="353" type="line"/>
			<point x="301" y="353" type="line" smooth="yes"/>
			<point x="403" y="353"/>
			<point x="466" y="294"/>
			<point x="466" y="199" type="curve" smooth="yes"/>
			<point x="466" y="104"/>
			<point x="403" y="45"/>
		</contour>
		<contour>
			<point x="298" y="398" type="curve" smooth="yes"/>
			<point x="160" y="398" type="line"/>
			<point x="160" y="685" type="line"/>
			<point x="298" y="685" type="line" smooth="yes"/>
			<point x="391" y="685"/>
			<point x="448" y="630"/>
			<point x="448" y="541" type="curve" smooth="yes"/>
			<point x="448" y="452"/>
			<point x="392" y="398"/>
		</contour>
	</outline>
</glyph>
<glyph name="D" format="2">
	<advance width="600"/>
	<unicode hex="0044"/>
	<outline>
		<contour>
			<point x="110" y="0" type="line"/>
			<point x="270" y="0" type="line" smooth="yes"/>
			<point x="405" y="0"/>
			<point x="495" y="88"/>
			<point x="495" y="220" type="curve" smooth="yes"/>
			<point x="495" y="510" type="line" smooth="yes"/>
			<point x="495" y="642"/>
			<point x="405" y="730"/>
			<point x="270" y="730" type="curve" smooth="yes"/>
			<point x="110" y="730" type="line"/>
		</contour>
		<contour>
			<point x="270" y="45" type="curve" smooth="yes"/>
			<point x="160" y="45" type="line"/>
			<point x="160" y="685" type="line"/>
			<point x="270" y="685" type="line" smooth="yes"/>
			<point x="374" y="685"/>
			<point x="445" y="614"/>
			<point x="445" y="510" type="curve" smooth="yes"/>
			<point x="445" y="220" type="line" smooth="yes"/>
			<point x="445" y="115"/>
			<point x="375" y="45"/>
		</contour>
	</outline>
</glyph>
<glyph name="E" format="2">
	<advance width="600"/>
	<unicode hex="0045"/>
	<outline>
		<contour>
			<point x="120" y="0" type="line"/>
			<point x="510" y="0" type="line"/>
			<point x="510" y="45" type="line"/>
			<point x="170" y="45" type="line"/>
			<point x="170" y="358" type="line"/>
			<point x="475" y="358" type="line"/>
			<point x="475" y="403" type="line"/>
			<point x="170" y="403" type="line"/>
			<point x="170" y="685" type="line"/>
			<point x="510" y="685" type="line"/>
			<point x="510" y="730" type="line"/>
			<point x="120" y="730" type="line"/>
		</contour>
	</outline>
</glyph>
<glyph name="F" format="2">
	<advance width="600"/>
	<unicode hex="0046"/>
	<outline>
		<contour>
			<point x="115" y="0" type="line"/>
			<point x="165" y="0" type="line"/>
			<point x="165" y="347" type="line"/>
			<point x="490" y="347" type="line"/>
			<point x="490" y="392" type="line"/>
			<point x="165" y="392" type="line"/>
			<point x="165" y="685" type="line"/>
			<point x="525" y="685" type="line"/>
			<point x="525" y="730" type="line"/>
			<point x="115" y="730" type="line"/>
		</contour>
	</outline>
</glyph>
<glyph name="G" format="2">
	<advance width="600"/>
	<unicode hex="0047"/>
	<outline>
		<contour>
			<point x="306" y="-10" type="curve" smooth="yes"/>
			<point x="430" y="-10"/>
			<point x="510" y="72"/>
			<point x="510" y="200" type="curve" smooth="yes"/>
			<point x="510" y="355" type="line"/>
			<point x="287" y="355" type="line"/>
			<point x="287" y="310" type="line"/>
			<point x="460" y="310" type="line"/>
			<point x="460" y="200" type="line" smooth="yes"/>
			<point x="460" y="98"/>
			<point x="402" y="35"/>
			<point x="306" y="35" type="curve" smooth="yes"/>
			<point x="212" y="35"/>
			<point x="155" y="94"/>
			<point x="155" y="190" type="curve" smooth="yes"/>
			<point x="155" y="540" type="line" smooth="yes"/>
			<point x="155" y="636"/>
			<point x="213" y="695"/>
			<point x="306" y="695" type="curve" smooth="yes"/>
			<point x="401" y="695"/>
			<point x="460" y="632"/>
			<point x="460" y="530" type="curve"/>
			<point x="510" y="530" type="line"/>
			<point x="510" y="658"/>
			<point x="430" y="740"/>
			<point x="306" y="740" type="curve" smooth="yes"/>
			<point x="184" y="740"/>
			<point x="105" y="662"/>
			<point x="105" y="540" type="curve" smooth="yes"/>
			<point x="105" y="190" type="line" smooth="yes"/>
			<point x="105" y="69"/>
			<point x="184" y="-10"/>
		</contour>
	</outline>
</glyph>
<glyph name="H" format="2">
	<advance width="600"/>
	<unicode hex="0048"/>
	<outline>
		<contour>
			<point x="110" y="0" type="line"/>
			<point x="160" y="0" type="line"/>
			<point x="160" y="356" type="line"/>
			<point x="440" y="356" type="line"/>
			<point x="440" y="0" type="line"/>
			<point x="490" y="0" type="line"/>
			<point x="490" y="730" type="line"/>
			<point x="440" y="730" type="line"/>
			<point x="440" y="401" type="line"/>
			<point x="160" y="401" type="line"/>
			<point x="160" y="730" type="line"/>
			<point x="110" y="730" type="line"/>
		</contour>
	</outline>
</glyph>
<glyph name="I" format="2">
	<advance width="600"/>
	<unicode hex="0049"/>
	<outline>
		<contour>
			<point x="120" y="0" type="line"/>
			<point x="480" y="0" type="line"/>
			<point x="480" y="45" type="line"/>
			<point x="326" y="45" type="line"/>
			<point x="326" y="686" type="line"/>
			<point x="480" y="686" type="line"/>
			<point x="480" y="731" type="line"/>
			<point x="120" y="731" type="line"/>
			<point x="120" y="686" type="line"/>
			<point x="276" y="686" type="line"/>
			<point x="276" y="45" type="line"/>
			<point x="120" y="45" type="line"/>
		</contour>
	</outline>
</glyph>
<glyph name="J" format="2">
	<advance width="600"/>
	<unicode hex="004A"/>
	<outline>
		<contour>
			<point x="275" y="-10" type="curve" smooth="yes"/>
			<point x="402" y="-10"/>
			<point x="480" y="69"/>
			<point x="480" y="199" type="curve" smooth="yes"/>
			<point x="480" y="730" type="line"/>
			<point x="243" y="730" type="line"/>
			<point x="243" y="680" type="line"/>
			<point x="430" y="680" type="line"/>
			<point x="430" y="199" type="line" smooth="yes"/>
			<point x="430" y="98"/>
			<point x="371" y="35"/>
			<point x="275" y="35" type="curve" smooth="yes"/>
			<point x="179" y="35"/>
			<point x="120" y="97"/>
			<point x="120" y="200" type="curve"/>
			<point x="70" y="200" type="line"/>
			<point x="70" y="69"/>
			<point x="147" y="-10"/>
		</contour>
	</outline>
</glyph>
<glyph name="K" format="2">
	<advance width="600"/>
	<unicode hex="004B"/>
	<outline>
		<contour>
			<point x="110" y="0" type="line"/>
			<point x="160" y="0" type="line"/>
			<point x="160" y="356" type="line"/>
			<point x="312" y="356" type="line"/>
			<point x="481" y="0" type="line"/>
			<point x="540" y="0" type="line"/>
			<point x="358" y="381" type="line"/>
			<point x="530" y="731" type="line"/>
			<point x="475" y="731" type="line"/>
			<point x="313" y="401" type="line"/>
			<point x="160" y="401" type="line"/>
			<point x="160" y="731" type="line"/>
			<point x="110" y="731" type="line"/>
		</contour>
	</outline>
</glyph>
<glyph name="L" format="2">
	<advance width="600"/>
	<unicode hex="004C"/>
	<outline>
		<contour>
			<point x="120" y="0" type="line"/>
			<point x="525" y="0" type="line"/>
			<point x="525" y="45" type="line"/>
			<point x="170" y="45" type="line"/>
			<point x="170" y="730" type="line"/>
			<point x="120" y="730" type="line"/>
		</contour>
	</outline>
</glyph>
<glyph name="M" format="2">
	<advance width="600"/>
	<unicode hex="004D"/>
	<outline>
		<contour>
			<point x="92" y="0" type="line"/>
			<point x="141" y="0" type="line"/>
			<point x="141" y="440" type="line" smooth="yes"/>
			<point x="141" y="580"/>
			<point x="135" y="705"/>
			<point x="135" y="705" type="curve"/>
			<point x="274" y="325" type="line"/>
			<point x="327" y="325" type="line"/>
			<point x="464" y="705" type="line"/>
			<point x="464" y="705"/>
			<point x="459" y="580"/>
			<point x="459" y="440" type="curve" smooth="yes"/>
			<point x="459" y="0" type="line"/>
			<point x="508" y="0" type="line"/>
			<point x="508" y="730" type="line"/>
			<point x="434" y="730" type="line"/>
			<point x="333" y="450" type="line" smooth="yes"/>
			<point x="318" y="409"/>
			<point x="301" y="359"/>
			<point x="301" y="359" type="curve"/>
			<point x="301" y="359"/>
			<point x="284" y="410"/>
			<point x="269" y="450" type="curve" smooth="yes"/>
			<point x="167" y="730" type="line"/>
			<point x="92" y="730" type="line"/>
		</contour>
	</outline>
</glyph>
<glyph name="N" format="2">
	<advance width="600"/>
	<unicode hex="004E"/>
	<outline>
		<contour>
			<point x="110" y="0" type="line"/>
			<point x="158" y="0" type="line"/>
			<point x="158" y="560" type="line" smooth="yes"/>
			<point x="158" y="630"/>
			<point x="156" y="675"/>
			<point x="156" y="675" type="curve"/>
			<point x="420" y="0" type="line"/>
			<point x="490" y="0" type="line"/>
			<point x="490" y="730" type="line"/>
			<point x="442" y="730" type="line"/>
			<point x="442" y="170" type="line" smooth="yes"/>
			<point x="442" y="149"/>
			<point x="446" y="55"/>
			<point x="446" y="55" type="curve"/>
			<point x="179" y="730" type="line"/>
			<point x="110" y="730" type="line"/>
		</contour>
	</outline>
</glyph>
<glyph name="P" format="2">
	<advance width="600"/>
	<unicode hex="0050"/>
	<outline>
		<contour>
			<point x="110" y="0" type="line"/>
			<point x="160" y="0" type="line"/>
			<point x="160" y="324" type="line"/>
			<point x="325" y="324" type="line" smooth="yes"/>
			<point x="452" y="324"/>
			<point x="535" y="404"/>
			<point x="535" y="527" type="curve" smooth="yes"/>
			<point x="535" y="650"/>
			<point x="453" y="730"/>
			<point x="325" y="730" type="curve" smooth="yes"/>
			<point x="110" y="730" type="line"/>
		</contour>
		<contour>
			<point x="325" y="369" type="curve" smooth="yes"/>
			<point x="160" y="369" type="line"/>
			<point x="160" y="685" type="line"/>
			<point x="325" y="685" type="line" smooth="yes"/>
			<point x="423" y="685"/>
			<point x="485" y="624"/>
			<point x="485" y="527" type="curve" smooth="yes"/>
			<point x="485" y="431"/>
			<point x="422" y="369"/>
		</contour>
	</outline>
</glyph>
<glyph name="Q" format="2">
	<advance width="600"/>
	<unicode hex="0051"/>
	<outline>
		<contour>
			<point x="449" y="-180" type="line"/>
			<point x="510" y="-180" type="line"/>
			<point x="395" y="10" type="line"/>
			<point x="459" y="40"/>
			<point x="495" y="106"/>
			<point x="495" y="190" type="curve" smooth="yes"/>
			<point x="495" y="540" type="line" smooth="yes"/>
			<point x="495" y="656"/>
			<point x="420" y="740"/>
			<point x="301" y="740" type="curve" smooth="yes"/>
			<point x="181" y="740"/>
			<point x="105" y="662"/>
			<point x="105" y="540" type="curve" smooth="yes"/>
			<point x="105" y="190" type="line" smooth="yes"/>
			<point x="105" y="69"/>
			<point x="182" y="-10"/>
			<point x="301" y="-10" type="curve" smooth="yes"/>
			<point x="329" y="-10"/>
			<point x="354" y="-5"/>
			<point x="354" y="-5" type="curve"/>
			<point x="339" y="0" type="line"/>
		</contour>
		<contour>
			<point x="301" y="35" type="curve" smooth="yes"/>
			<point x="209" y="35"/>
			<point x="155" y="92"/>
			<point x="155" y="190" type="curve" smooth="yes"/>
			<point x="155" y="540" type="line" smooth="yes"/>
			<point x="155" y="638"/>
			<point x="209" y="695"/>
			<point x="301" y="695" type="curve" smooth="yes"/>
			<point x="391" y="695"/>
			<point x="445" y="637"/>
			<point x="445" y="540" type="curve" smooth="yes"/>
			<point x="445" y="190" type="line" smooth="yes"/>
			<point x="445" y="92"/>
			<point x="392" y="35"/>
		</contour>
	</outline>
</glyph>
<glyph name="R" format="2">
	<advance width="600"/>
	<unicode hex="0052"/>
	<outline>
		<contour>
			<point x="110" y="0" type="line"/>
			<point x="160" y="0" type="line"/>
			<point x="160" y="330" type="line"/>
			<point x="305" y="330" type="line"/>
			<point x="470" y="0" type="line"/>
			<point x="530" y="0" type="line"/>
			<point x="359" y="332" type="line"/>
			<point x="461" y="347"/>
			<point x="525" y="422"/>
			<point x="525" y="528" type="curve" smooth="yes"/>
			<point x="525" y="652"/>
			<point x="444" y="730"/>
			<point x="315" y="730" type="curve" smooth="yes"/>
			<point x="110" y="730" type="line"/>
		</contour>
		<contour>
			<point x="315" y="375" type="curve" smooth="yes"/>
			<point x="160" y="375" type="line"/>
			<point x="160" y="685" type="line"/>
			<point x="315" y="685" type="line" smooth="yes"/>
			<point x="412" y="685"/>
			<point x="475" y="624"/>
			<point x="475" y="530" type="curve" smooth="yes"/>
			<point x="475" y="436"/>
			<point x="412" y="375"/>
		</contour>
	</outline>
</glyph>
<glyph name="T" format="2">
	<advance width="600"/>
	<unicode hex="0054"/>
	<outline>
		<contour>
			<point x="276" y="0" type="line"/>
			<point x="326" y="0" type="line"/>
			<point x="326" y="685" type="line"/>
			<point x="540" y="685" type="line"/>
			<point x="540" y="730" type="line"/>
			<point x="60" y="730" type="line"/>
			<point x="60" y="685" type="line"/>
			<point x="276" y="685" type="line"/>
		</contour>
	</outline>
</glyph>
<glyph name="U" format="2">
	<advance width="600"/>
	<unicode hex="0055"/>
	<outline>
		<contour>
			<point x="301" y="-10" type="curve" smooth="yes"/>
			<point x="417" y="-10"/>
			<point x="492" y="69"/>
			<point x="492" y="190" type="curve" smooth="yes"/>
			<point x="492" y="730" type="line"/>
			<point x="442" y="730" type="line"/>
			<point x="442" y="190" type="line" smooth="yes"/>
			<point x="442" y="93"/>
			<point x="390" y="35"/>
			<point x="301" y="35" type="curve" smooth="yes"/>
			<point x="211" y="35"/>
			<point x="158" y="92"/>
			<point x="158" y="190" type="curve" smooth="yes"/>
			<point x="158" y="730" type="line"/>
			<point x="108" y="730" type="line"/>
			<point x="108" y="190" type="line" smooth="yes"/>
			<point x="108" y="69"/>
			<point x="184" y="-10"/>
		</contour>
	</outline>
</glyph>
<glyph name="V" format="2">
	<advance width="600"/>
	<unicode hex="0056"/>
	<outline>
		<contour>
			<point x="268" y="0" type="line"/>
			<point x="332" y="0" type="line"/>
			<point x="532" y="730" type="line"/>
			<point x="483" y="730" type="line"/>
			<point x="335" y="180" type="line" smooth="yes"/>
			<point x="314" y="100"/>
			<point x="301" y="40"/>
			<point x="301" y="40" type="curve"/>
			<point x="301" y="40"/>
			<point x="289" y="100"/>
			<point x="268" y="180" type="curve" smooth="yes"/>
			<point x="121" y="730" type="line"/>
			<point x="68" y="730" type="line"/>
		</contour>
	</outline>
</glyph>
<glyph name="W" format="2">
	<advance width="600"/>
	<unicode hex="0057"/>
	<outline>
		<contour>
			<point x="130" y="0" type="line"/>
			<point x="200" y="0" type="line"/>
			<point x="280" y="530" type="line" smooth="yes"/>
			<point x="290" y="601"/>
			<point x="303" y="690"/>
			<point x="303" y="690" type="curve"/>
			<point x="303" y="690"/>
			<point x="315" y="600"/>
			<point x="324" y="530" type="curve" smooth="yes"/>
			<point x="397" y="0" type="line"/>
			<point x="469" y="0" type="line"/>
			<point x="560" y="730" type="line"/>
			<point x="513" y="730" type="line"/>
			<point x="451" y="190" type="line" smooth="yes"/>
			<point x="445" y="140"/>
			<point x="430" y="35"/>
			<point x="430" y="35" type="curve"/>
			<point x="430" y="35"/>
			<point x="416" y="140"/>
			<point x="409" y="190" type="curve" smooth="yes"/>
			<point x="335" y="730" type="line"/>
			<point x="271" y="730" type="line"/>
			<point x="194" y="190" type="line" smooth="yes"/>
			<point x="187" y="140"/>
			<point x="172" y="35"/>
			<point x="172" y="35" type="curve"/>
			<point x="172" y="35"/>
			<point x="160" y="140"/>
			<point x="154" y="190" type="curve" smooth="yes"/>
			<point x="86" y="730" type="line"/>
			<point x="40" y="730" type="line"/>
		</contour>
	</outline>
</glyph>
<glyph name="X" format="2">
	<advance width="600"/>
	<unicode hex="0058"/>
	<outline>
		<contour>
			<point x="53" y="0" type="line"/>
			<point x="108" y="0" type="line"/>
			<point x="248" y="252" type="line" smooth="yes"/>
			<point x="264" y="281"/>
			<point x="301" y="345"/>
			<point x="301" y="345" type="curve"/>
			<point x="301" y="345"/>
			<point x="339" y="281"/>
			<point x="355" y="252" type="curve" smooth="yes"/>
			<point x="491" y="0" type="line"/>
			<point x="547" y="0" type="line"/>
			<point x="330" y="382" type="line"/>
			<point x="532" y="730" type="line"/>
			<point x="478" y="730" type="line"/>
			<point x="354" y="508" type="line" smooth="yes"/>
			<point x="336" y="476"/>
			<point x="300" y="415"/>
			<point x="300" y="415" type="curve"/>
			<point x="300" y="415"/>
			<point x="263" y="477"/>
			<point x="246" y="508" type="curve" smooth="yes"/>
			<point x="124" y="730" type="line"/>
			<point x="68" y="730" type="line"/>
			<point x="270" y="380" type="line"/>
		</contour>
	</outline>
</glyph>
<glyph name="Y" format="2">
	<advance width="600"/>
	<unicode hex="0059"/>
	<outline>
		<contour>
			<point x="275" y="0" type="line"/>
			<point x="325" y="0" type="line"/>
			<point x="325" y="280" type="line"/>
			<point x="550" y="730" type="line"/>
			<point x="498" y="730" type="line"/>
			<point x="335" y="400" type="line" smooth="yes"/>
			<point x="315" y="359"/>
			<point x="301" y="330"/>
			<point x="301" y="330" type="curve"/>
			<point x="301" y="330"/>
			<point x="286" y="360"/>
			<point x="267" y="400" type="curve" smooth="yes"/>
			<point x="102" y="730" type="line"/>
			<point x="50" y="730" type="line"/>
			<point x="275" y="280" type="line"/>
		</contour>
	</outline>
</glyph>
<glyph name="Z" format="2">
	<advance width="600"/>
	<unicode hex="005A"/>
	<outline>
		<contour>
			<point x="91" y="0" type="line"/>
			<point x="508" y="0" type="line"/>
			<point x="508" y="45" type="line"/>
			<point x="142" y="45" type="line"/>
			<point x="495" y="674" type="line"/>
			<point x="495" y="730" type="line"/>
			<point x="95" y="730" type="line"/>
			<point x="95" y="685" type="line"/>
			<point x="447" y="685" type="line"/>
			<point x="91" y="49" type="line"/>
		</contour>
	</outline>
</glyph>
<glyph name="bracketleft" format="2">
	<advance width="600"/>
	<unicode hex="005B"/>
	<outline>
		<contour>
			<point x="220" y="-110" type="line"/>
			<point x="445" y="-110" type="line"/>
			<point x="445" y="-65" type="line"/>
			<point x="270" y="-65" type="line"/>
			<point x="270" y="785" type="line"/>
			<point x="445" y="785" type="line"/>
			<point x="445" y="830" type="line"/>
			<point x="220" y="830" type="line"/>
		</contour>
	</outline>
</glyph>
<glyph name="bracketright" format="2">
	<advance width="600"/>
	<unicode hex="005D"/>
	<outline>
		<contour>
			<point x="155" y="-110" type="line"/>
			<point x="380" y="-110" type="line"/>
			<point x="380" y="830" type="line"/>
			<point x="155" y="830" type="line"/>
			<point x="155" y="785" type="line"/>
			<point x="330" y="785" type="line"/>
			<point x="330" y="-65" type="line"/>
			<point x="155" y="-65" type="line"/>
		</contour>
	</outline>
</glyph>
<glyph name="asciicircum" format="2">
	<advance width="600"/>
	<unicode hex="005E"/>
	<outline>
		<contour>
			<point x="100" y="340" type="line"/>
			<point x="158" y="340" type="line"/>
			<point x="272" y="600" type="line" smooth="yes"/>
			<point x="287" y="635"/>
			<point x="302" y="678"/>
			<point x="302" y="678" type="curve"/>
			<point x="302" y="678"/>
			<point x="317" y="635"/>
			<point x="332" y="600" type="curve" smooth="yes"/>
			<point x="443" y="340" type="line"/>
			<point x="500" y="340" type="line"/>
			<point x="329" y="730" type="line"/>
			<point x="276" y="730" type="line"/>
		</contour>
	</outline>
</glyph>
<glyph name="grave" format="2">
	<advance width="600"/>
	<unicode hex="0060"/>
	<outline>
		<contour>
			<point x="325" y="645" type="line"/>
			<point x="375" y="645" type="line"/>
			<point x="260" y="785" type="line"/>
			<point x="200" y="785" type="line"/>
		</contour>
	</outline>
</glyph>
<glyph name="a" format="2">
	<advance width="600"/>
	<unicode hex="0061"/>
	<outline>
		<contour>
			<point x="264" y="-10" type="curve" smooth="yes"/>
			<point x="375" y="-10"/>
			<point x="449" y="44"/>
			<point x="449" y="125" type="curve"/>
			<point x="431" y="105" type="line"/>
			<point x="442" y="105" type="line"/>
			<point x="442" y="0" type="line"/>
			<point x="492" y="0" type="line"/>
			<point x="492" y="375" type="line" smooth="yes"/>
			<point x="492" y="490"/>
			<point x="420" y="560"/>
			<point x="304" y="560" type="curve" smooth="yes"/>
			<point x="198" y="560"/>
			<point x="124" y="501"/>
			<point x="109" y="405" type="curve"/>
			<point x="159" y="405" type="line"/>
			<point x="168" y="473"/>
			<point x="223" y="515"/>
			<point x="303" y="515" type="curve" smooth="yes"/>
			<point x="390" y="515"/>
			<point x="442" y="464"/>
			<point x="442" y="375" type="curve" smooth="yes"/>
			<point x="442" y="304" type="line"/>
			<point x="253" y="304" type="line" smooth="yes"/>
			<point x="147" y="304"/>
			<point x="82" y="245"/>
			<point x="82" y="150" type="curve" smooth="yes"/>
			<point x="82" y="51"/>
			<point x="151" y="-10"/>
		</contour>
		<contour>
			<point x="270" y="34" type="curve" smooth="yes"/>
			<point x="185" y="34"/>
			<point x="132" y="79"/>
			<point x="132" y="150" type="curve" smooth="yes"/>
			<point x="132" y="219"/>
			<point x="177" y="260"/>
			<point x="252" y="260" type="curve" smooth="yes"/>
			<point x="442" y="260" type="line"/>
			<point x="442" y="160" type="line" smooth="yes"/>
			<point x="442" y="84"/>
			<point x="375" y="34"/>
		</contour>
	</outline>
</glyph>
<glyph name="b" format="2">
	<advance width="600"/>
	<unicode hex="0062"/>
	<outline>
		<contour>
			<point x="313" y="-10" type="curve" smooth="yes"/>
			<point x="423" y="-10"/>
			<point x="495" y="69"/>
			<point x="495" y="189" type="curve" smooth="yes"/>
			<point x="495" y="360" type="line" smooth="yes"/>
			<point x="495" y="480"/>
			<point x="423" y="560"/>
			<point x="313" y="560" type="curve" smooth="yes"/>
			<point x="217" y="560"/>
			<point x="150" y="501"/>
			<point x="150" y="410" type="curve"/>
			<point x="178" y="475" type="line"/>
			<point x="160" y="475" type="line"/>
			<point x="160" y="580" type="line"/>
			<point x="160" y="730" type="line"/>
			<point x="110" y="730" type="line"/>
			<point x="110" y="0" type="line"/>
			<point x="160" y="0" type="line"/>
			<point x="160" y="75" type="line"/>
			<point x="188" y="75" type="line"/>
			<point x="150" y="140" type="line"/>
			<point x="150" y="49"/>
			<point x="217" y="-10"/>
		</contour>
		<contour>
			<point x="303" y="33" type="curve" smooth="yes"/>
			<point x="213" y="33"/>
			<point x="160" y="91"/>
			<point x="160" y="189" type="curve" smooth="yes"/>
			<point x="160" y="360" type="line" smooth="yes"/>
			<point x="160" y="458"/>
			<point x="212" y="517"/>
			<point x="303" y="517" type="curve" smooth="yes"/>
			<point x="392" y="517"/>
			<point x="445" y="458"/>
			<point x="445" y="360" type="curve" smooth="yes"/>
			<point x="445" y="189" type="line" smooth="yes"/>
			<point x="445" y="91"/>
			<point x="392" y="33"/>
		</contour>
	</outline>
</glyph>
<glyph name="c" format="2">
	<advance width="600"/>
	<unicode hex="0063"/>
	<outline>
		<contour>
			<point x="302" y="-10" type="curve" smooth="yes"/>
			<point x="423" y="-10"/>
			<point x="500" y="64"/>
			<point x="500" y="180" type="curve"/>
			<point x="450" y="180" type="line"/>
			<point x="450" y="90"/>
			<point x="394" y="34"/>
			<point x="302" y="34" type="curve" smooth="yes"/>
			<point x="211" y="34"/>
			<point x="155" y="94"/>
			<point x="155" y="190" type="curve" smooth="yes"/>
			<point x="155" y="360" type="line" smooth="yes"/>
			<point x="155" y="457"/>
			<point x="211" y="516"/>
			<point x="302" y="516" type="curve" smooth="yes"/>
			<point x="394" y="516"/>
			<point x="450" y="460"/>
			<point x="450" y="370" type="curve"/>
			<point x="500" y="370" type="line"/>
			<point x="500" y="486"/>
			<point x="423" y="560"/>
			<point x="302" y="560" type="curve" smooth="yes"/>
			<point x="182" y="560"/>
			<point x="105" y="481"/>
			<point x="105" y="360" type="curve" smooth="yes"/>
			<point x="105" y="190" type="line" smooth="yes"/>
			<point x="105" y="68"/>
			<point x="181" y="-10"/>
		</contour>
	</outline>
</glyph>
<glyph name="d" format="2">
	<advance width="600"/>
	<unicode hex="0064"/>
	<outline>
		<contour>
			<point x="287" y="-10" type="curve" smooth="yes"/>
			<point x="383" y="-10"/>
			<point x="450" y="49"/>
			<point x="450" y="140" type="curve"/>
			<point x="412" y="75" type="line"/>
			<point x="440" y="75" type="line"/>
			<point x="440" y="0" type="line"/>
			<point x="490" y="0" type="line"/>
			<point x="490" y="730" type="line"/>
			<point x="440" y="730" type="line"/>
			<point x="440" y="580" type="line"/>
			<point x="440" y="475" type="line"/>
			<point x="422" y="475" type="line"/>
			<point x="450" y="410" type="line"/>
			<point x="450" y="501"/>
			<point x="383" y="560"/>
			<point x="287" y="560" type="curve" smooth="yes"/>
			<point x="177" y="560"/>
			<point x="105" y="480"/>
			<point x="105" y="360" type="curve" smooth="yes"/>
			<point x="105" y="189" type="line" smooth="yes"/>
			<point x="105" y="69"/>
			<point x="177" y="-10"/>
		</contour>
		<contour>
			<point x="297" y="33" type="curve" smooth="yes"/>
			<point x="208" y="33"/>
			<point x="155" y="91"/>
			<point x="155" y="189" type="curve" smooth="yes"/>
			<point x="155" y="360" type="line" smooth="yes"/>
			<point x="155" y="458"/>
			<point x="208" y="517"/>
			<point x="297" y="517" type="curve" smooth="yes"/>
			<point x="388" y="517"/>
			<point x="440" y="458"/>
			<point x="440" y="360" type="curve" smooth="yes"/>
			<point x="440" y="189" type="line" smooth="yes"/>
			<point x="440" y="91"/>
			<point x="387" y="33"/>
		</contour>
	</outline>
</glyph>
<glyph name="e" format="2">
	<advance width="600"/>
	<unicode hex="0065"/>
	<outline>
		<contour>
			<point x="301" y="-10" type="curve" smooth="yes"/>
			<point x="404" y="-10"/>
			<point x="474" y="46"/>
			<point x="494" y="135" type="curve"/>
			<point x="444" y="135" type="line"/>
			<point x="425" y="72"/>
			<point x="375" y="34"/>
			<point x="301" y="34" type="curve" smooth="yes"/>
			<point x="208" y="34"/>
			<point x="155" y="94"/>
			<point x="155" y="190" type="curve" smooth="yes"/>
			<point x="155" y="265" type="line"/>
			<point x="495" y="265" type="line"/>
			<point x="495" y="360" type="line" smooth="yes"/>
			<point x="495" y="481"/>
			<point x="422" y="560"/>
			<point x="301" y="560" type="curve" smooth="yes"/>
			<point x="179" y="560"/>
			<point x="105" y="481"/>
			<point x="105" y="360" type="curve" smooth="yes"/>
			<point x="105" y="190" type="line" smooth="yes"/>
			<point x="105" y="68"/>
			<point x="178" y="-10"/>
		</contour>
		<contour>
			<point x="445" y="360" type="curve" smooth="yes"/>
			<point x="445" y="299" type="line"/>
			<point x="456" y="308" type="line"/>
			<point x="155" y="308" type="line"/>
			<point x="155" y="360" type="line" smooth="yes"/>
			<point x="155" y="457"/>
			<point x="207" y="516"/>
			<point x="301" y="516" type="curve" smooth="yes"/>
			<point x="393" y="516"/>
			<point x="445" y="456"/>
		</contour>
	</outline>
</glyph>
<glyph name="f" format="2">
	<advance width="600"/>
	<unicode hex="0066"/>
	<outline>
		<contour>
			<point x="240" y="0" type="line"/>
			<point x="290" y="0" type="line"/>
			<point x="290" y="505" type="line"/>
			<point x="523" y="505" type="line"/>
			<point x="523" y="550" type="line"/>
			<point x="290" y="550" type="line"/>
			<point x="290" y="605" type="line" smooth="yes"/>
			<point x="290" y="656"/>
			<point x="319" y="685"/>
			<point x="370" y="685" type="curve" smooth="yes"/>
			<point x="523" y="685" type="line"/>
			<point x="523" y="730" type="line"/>
			<point x="370" y="730" type="line" smooth="yes"/>
			<point x="289" y="730"/>
			<point x="240" y="683"/>
			<point x="240" y="605" type="curve" smooth="yes"/>
			<point x="240" y="550" type="line"/>
			<point x="70" y="550" type="line"/>
			<point x="70" y="505" type="line"/>
			<point x="240" y="505" type="line"/>
		</contour>
	</outline>
</glyph>
<glyph name="g" format="2">
	<advance width="600"/>
	<unicode hex="0067"/>
	<outline>
		<contour>
			<point x="174" y="-180" type="line"/>
			<point x="319" y="-180" type="line" smooth="yes"/>
			<point x="431" y="-180"/>
			<point x="490" y="-124"/>
			<point x="490" y="-15" type="curve" smooth="yes"/>
			<point x="490" y="550" type="line"/>
			<point x="440" y="550" type="line"/>
			<point x="440" y="475" type="line"/>
			<point x="422" y="475" type="line"/>
			<point x="450" y="410" type="line"/>
			<point x="450" y="501"/>
			<point x="383" y="560"/>
			<point x="287" y="560" type="curve" smooth="yes"/>
			<point x="177" y="560"/>
			<point x="105" y="480"/>
			<point x="105" y="360" type="curve" smooth="yes"/>
			<point x="105" y="239" type="line" smooth="yes"/>
			<point x="105" y="119"/>
			<point x="177" y="40"/>
			<point x="287" y="40" type="curve" smooth="yes"/>
			<point x="383" y="40"/>
			<point x="450" y="99"/>
			<point x="450" y="190" type="curve"/>
			<point x="412" y="125" type="line"/>
			<point x="440" y="125" type="line"/>
			<point x="440" y="30" type="line"/>
			<point x="440" y="-15" type="line" smooth="yes"/>
			<point x="440" y="-94"/>
			<point x="398" y="-135"/>
			<point x="319" y="-135" type="curve" smooth="yes"/>
			<point x="174" y="-135" type="line"/>
		</contour>
		<contour>
			<point x="297" y="83" type="curve" smooth="yes"/>
			<point x="208" y="83"/>
			<point x="155" y="141"/>
			<point x="155" y="239" type="curve" smooth="yes"/>
			<point x="155" y="360" type="line" smooth="yes"/>
			<point x="155" y="458"/>
			<point x="208" y="517"/>
			<point x="297" y="517" type="curve" smooth="yes"/>
			<point x="388" y="517"/>
			<point x="440" y="458"/>
			<point x="440" y="360" type="curve" smooth="yes"/>
			<point x="440" y="239" type="line" smooth="yes"/>
			<point x="440" y="141"/>
			<point x="387" y="83"/>
		</contour>
	</outline>
</glyph>
<glyph name="h" format="2">
	<advance width="600"/>
	<unicode hex="0068"/>
	<outline>
		<contour>
			<point x="110" y="0" type="line"/>
			<point x="160" y="0" type="line"/>
			<point x="160" y="360" type="line" smooth="yes"/>
			<point x="160" y="457"/>
			<point x="215" y="517"/>
			<point x="303" y="517" type="curve" smooth="yes"/>
			<point x="389" y="517"/>
			<point x="442" y="459"/>
			<point x="442" y="360" type="curve" smooth="yes"/>
			<point x="442" y="0" type="line"/>
			<point x="492" y="0" type="line"/>
			<point x="492" y="367" type="line" smooth="yes"/>
			<point x="492" y="485"/>
			<point x="421" y="560"/>
			<point x="313" y="560" type="curve" smooth="yes"/>
			<point x="217" y="560"/>
			<point x="153" y="501"/>
			<point x="153" y="410" type="curve"/>
			<point x="183" y="470" type="line"/>
			<point x="160" y="470" type="line"/>
			<point x="160" y="580" type="line"/>
			<point x="160" y="730" type="line"/>
			<point x="110" y="730" type="line"/>
		</contour>
	</outline>
</glyph>
<glyph name="i" format="2">
	<advance width="600"/>
	<unicode hex="0069"/>
	<outline>
		<contour>
			<point x="95" y="0" type="line"/>
			<point x="535" y="0" type="line"/>
			<point x="535" y="45" type="line"/>
			<point x="346" y="45" type="line"/>
			<point x="346" y="550" type="line"/>
			<point x="120" y="550" type="line"/>
			<point x="120" y="505" type="line"/>
			<point x="296" y="505" type="line"/>
			<point x="296" y="45" type="line"/>
			<point x="95" y="45" type="line"/>
		</contour>
		<contour>
			<point x="310" y="650" type="curve" smooth="yes"/>
			<point x="315" y="650" type="line" smooth="yes"/>
			<point x="348" y="650"/>
			<point x="370" y="672"/>
			<point x="370" y="705" type="curve" smooth="yes"/>
			<point x="370" y="738"/>
			<point x="348" y="760"/>
			<point x="315" y="760" type="curve" smooth="yes"/>
			<point x="310" y="760" type="line" smooth="yes"/>
			<point x="277" y="760"/>
			<point x="255" y="738"/>
			<point x="255" y="705" type="curve" smooth="yes"/>
			<point x="255" y="672"/>
			<point x="277" y="650"/>
		</contour>
	</outline>
</glyph>
<glyph name="j" format="2">
	<advance width="600"/>
	<unicode hex="006A"/>
	<outline>
		<contour>
			<point x="95" y="-180" type="line"/>
			<point x="230" y="-180" type="line" smooth="yes"/>
			<point x="352" y="-180"/>
			<point x="424" y="-109"/>
			<point x="424" y="10" type="curve" smooth="yes"/>
			<point x="424" y="550" type="line"/>
			<point x="124" y="550" type="line"/>
			<point x="124" y="505" type="line"/>
			<point x="374" y="505" type="line"/>
			<point x="374" y="10" type="line" smooth="yes"/>
			<point x="374" y="-84"/>
			<point x="324" y="-135"/>
			<point x="230" y="-135" type="curve" smooth="yes"/>
			<point x="95" y="-135" type="line"/>
		</contour>
		<contour>
			<point x="390" y="645" type="curve" smooth="yes"/>
			<point x="395" y="645" type="line" smooth="yes"/>
			<point x="428" y="645"/>
			<point x="450" y="667"/>
			<point x="450" y="700" type="curve" smooth="yes"/>
			<point x="450" y="733"/>
			<point x="428" y="755"/>
			<point x="395" y="755" type="curve" smooth="yes"/>
			<point x="390" y="755" type="line" smooth="yes"/>
			<point x="357" y="755"/>
			<point x="335" y="733"/>
			<point x="335" y="700" type="curve" smooth="yes"/>
			<point x="335" y="667"/>
			<point x="357" y="645"/>
		</contour>
	</outline>
</glyph>
<glyph name="l" format="2">
	<advance width="600"/>
	<unicode hex="006C"/>
	<outline>
		<contour>
			<point x="365" y="0" type="curve" smooth="yes"/>
			<point x="540" y="0" type="line"/>
			<point x="540" y="45" type="line"/>
			<point x="365" y="45" type="line" smooth="yes"/>
			<point x="306" y="45"/>
			<point x="275" y="76"/>
			<point x="275" y="135" type="curve" smooth="yes"/>
			<point x="275" y="730" type="line"/>
			<point x="50" y="730" type="line"/>
			<point x="50" y="685" type="line"/>
			<point x="225" y="685" type="line"/>
			<point x="225" y="135" type="line" smooth="yes"/>
			<point x="225" y="48"/>
			<point x="275" y="0"/>
		</contour>
	</outline>
</glyph>
<glyph name="m" format="2">
	<advance width="600"/>
	<unicode hex="006D"/>
	<outline>
		<contour>
			<point x="79" y="0" type="line"/>
			<point x="128" y="0" type="line"/>
			<point x="128" y="425" type="line"/>
			<point x="131" y="482"/>
			<point x="161" y="518"/>
			<point x="205" y="518" type="curve" smooth="yes"/>
			<point x="249" y="518"/>
			<point x="276" y="482"/>
			<point x="276" y="425" type="curve" smooth="yes"/>
			<point x="276" y="0" type="line"/>
			<point x="324" y="0" type="line"/>
			<point x="324" y="425" type="line" smooth="yes"/>
			<point x="324" y="481"/>
			<point x="354" y="518"/>
			<point x="401" y="518" type="curve" smooth="yes"/>
			<point x="445" y="518"/>
			<point x="472" y="482"/>
			<point x="472" y="425" type="curve" smooth="yes"/>
			<point x="472" y="0" type="line"/>
			<point x="521" y="0" type="line"/>
			<point x="521" y="431" type="line" smooth="yes"/>
			<point x="521" y="511"/>
			<point x="482" y="560"/>
			<point x="416" y="560" type="curve" smooth="yes"/>
			<point x="357" y="560"/>
			<point x="322" y="521"/>
			<point x="324" y="461" type="curve"/>
			<point x="326" y="475" type="line"/>
			<point x="318" y="475" type="line"/>
			<point x="322" y="461" type="line"/>
			<point x="314" y="524"/>
			<point x="277" y="560"/>
			<point x="220" y="560" type="curve" smooth="yes"/>
			<point x="161" y="560"/>
			<point x="125" y="521"/>
			<point x="127" y="461" type="curve"/>
			<point x="129" y="475" type="line"/>
			<point x="123" y="475" type="line"/>
			<point x="123" y="550" type="line"/>
			<point x="79" y="550" type="line"/>
		</contour>
	</outline>
</glyph>
<glyph name="n" format="2">
	<advance width="600"/>
	<unicode hex="006E"/>
	<outline>
		<contour>
			<point x="110" y="0" type="line"/>
			<point x="160" y="0" type="line"/>
			<point x="160" y="360" type="line" smooth="yes"/>
			<point x="160" y="457"/>
			<point x="215" y="517"/>
			<point x="303" y="517" type="curve" smooth="yes"/>
			<point x="389" y="517"/>
			<point x="442" y="459"/>
			<point x="442" y="360" type="curve" smooth="yes"/>
			<point x="442" y="0" type="line"/>
			<point x="492" y="0" type="line"/>
			<point x="492" y="367" type="line" smooth="yes"/>
			<point x="492" y="485"/>
			<point x="421" y="560"/>
			<point x="313" y="560" type="curve" smooth="yes"/>
			<point x="215" y="560"/>
			<point x="153" y="499"/>
			<point x="153" y="404" type="curve"/>
			<point x="183" y="455" type="line"/>
			<point x="160" y="455" type="line"/>
			<point x="160" y="550" type="line"/>
			<point x="110" y="550" type="line"/>
		</contour>
	</outline>
</glyph>
<glyph name="o" format="2">
	<advance width="600"/>
	<unicode hex="006F"/>
	<outline>
		<contour>
			<point x="300" y="-10" type="curve" smooth="yes"/>
			<point x="419" y="-10"/>
			<point x="495" y="68"/>
			<point x="495" y="190" type="curve" smooth="yes"/>
			<point x="495" y="360" type="line" smooth="yes"/>
			<point x="495" y="481"/>
			<point x="418" y="560"/>
			<point x="300" y="560" type="curve" smooth="yes"/>
			<point x="182" y="560"/>
			<point x="105" y="481"/>
			<point x="105" y="360" type="curve" smooth="yes"/>
			<point x="105" y="190" type="line" smooth="yes"/>
			<point x="105" y="68"/>
			<point x="182" y="-10"/>
		</contour>
		<contour>
			<point x="300" y="34" type="curve" smooth="yes"/>
			<point x="208" y="34"/>
			<point x="155" y="91"/>
			<point x="155" y="190" type="curve" smooth="yes"/>
			<point x="155" y="360" type="line" smooth="yes"/>
			<point x="155" y="458"/>
			<point x="209" y="516"/>
			<point x="300" y="516" type="curve" smooth="yes"/>
			<point x="391" y="516"/>
			<point x="445" y="458"/>
			<point x="445" y="360" type="curve" smooth="yes"/>
			<point x="445" y="190" type="line" smooth="yes"/>
			<point x="445" y="91"/>
			<point x="392" y="34"/>
		</contour>
	</outline>
</glyph>
<glyph name="p" format="2">
	<advance width="600"/>
	<unicode hex="0070"/>
	<outline>
		<contour>
			<point x="110" y="-180" type="line"/>
			<point x="160" y="-180" type="line"/>
			<point x="160" y="0" type="line"/>
			<point x="160" y="75" type="line"/>
			<point x="178" y="75" type="line"/>
			<point x="150" y="140" type="line"/>
			<point x="150" y="50"/>
			<point x="216" y="-10"/>
			<point x="313" y="-10" type="curve" smooth="yes"/>
			<point x="422" y="-10"/>
			<point x="495" y="70"/>
			<point x="495" y="190" type="curve" smooth="yes"/>
			<point x="495" y="361" type="line" smooth="yes"/>
			<point x="495" y="481"/>
			<point x="423" y="560"/>
			<point x="313" y="560" type="curve" smooth="yes"/>
			<point x="215" y="560"/>
			<point x="150" y="500"/>
			<point x="150" y="410" type="curve"/>
			<point x="188" y="475" type="line"/>
			<point x="160" y="475" type="line"/>
			<point x="160" y="550" type="line"/>
			<point x="110" y="550" type="line"/>
		</contour>
		<contour>
			<point x="303" y="33" type="curve" smooth="yes"/>
			<point x="213" y="33"/>
			<point x="160" y="91"/>
			<point x="160" y="190" type="curve" smooth="yes"/>
			<point x="160" y="361" type="line" smooth="yes"/>
			<point x="160" y="459"/>
			<point x="213" y="517"/>
			<point x="303" y="517" type="curve" smooth="yes"/>
			<point x="392" y="517"/>
			<point x="445" y="459"/>
			<point x="445" y="361" type="curve" smooth="yes"/>
			<point x="445" y="190" type="line" smooth="yes"/>
			<point x="445" y="91"/>
			<point x="392" y="33"/>
		</contour>
	</outline>
</glyph>
<glyph name="q" format="2">
	<advance width="600"/>
	<unicode hex="0071"/>
	<outline>
		<contour>
			<point x="440" y="-180" type="line"/>
			<point x="490" y="-180" type="line"/>
			<point x="490" y="550" type="line"/>
			<point x="440" y="550" type="line"/>
			<point x="440" y="475" type="line"/>
			<point x="412" y="475" type="line"/>
			<point x="450" y="410" type="line"/>
			<point x="450" y="501"/>
			<point x="383" y="560"/>
			<point x="287" y="560" type="curve" smooth="yes"/>
			<point x="177" y="560"/>
			<point x="105" y="481"/>
			<point x="105" y="361" type="curve" smooth="yes"/>
			<point x="105" y="190" type="line" smooth="yes"/>
			<point x="105" y="70"/>
			<point x="177" y="-10"/>
			<point x="287" y="-10" type="curve" smooth="yes"/>
			<point x="383" y="-10"/>
			<point x="450" y="49"/>
			<point x="450" y="140" type="curve"/>
			<point x="422" y="75" type="line"/>
			<point x="440" y="75" type="line"/>
			<point x="440" y="-30" type="line"/>
		</contour>
		<contour>
			<point x="297" y="33" type="curve" smooth="yes"/>
			<point x="208" y="33"/>
			<point x="155" y="92"/>
			<point x="155" y="190" type="curve" smooth="yes"/>
			<point x="155" y="361" type="line" smooth="yes"/>
			<point x="155" y="459"/>
			<point x="208" y="517"/>
			<point x="297" y="517" type="curve" smooth="yes"/>
			<point x="387" y="517"/>
			<point x="440" y="459"/>
			<point x="440" y="361" type="curve" smooth="yes"/>
			<point x="440" y="190" type="line" smooth="yes"/>
			<point x="440" y="92"/>
			<point x="388" y="33"/>
		</contour>
	</outline>
</glyph>
<glyph name="r" format="2">
	<advance width="600"/>
	<unicode hex="0072"/>
	<outline>
		<contour>
			<point x="127" y="0" type="line"/>
			<point x="177" y="0" type="line"/>
			<point x="177" y="360" type="line" smooth="yes"/>
			<point x="177" y="459"/>
			<point x="230" y="517"/>
			<point x="320" y="517" type="curve" smooth="yes"/>
			<point x="410" y="517"/>
			<point x="463" y="459"/>
			<point x="463" y="360" type="curve" smooth="yes"/>
			<point x="463" y="330" type="line"/>
			<point x="518" y="330" type="line"/>
			<point x="518" y="360" type="line" smooth="yes"/>
			<point x="518" y="483"/>
			<point x="445" y="560"/>
			<point x="328" y="560" type="curve" smooth="yes"/>
			<point x="229" y="560"/>
			<point x="170" y="504"/>
			<point x="170" y="410" type="curve"/>
			<point x="199" y="475" type="line"/>
			<point x="177" y="475" type="line"/>
			<point x="177" y="550" type="line"/>
			<point x="127" y="550" type="line"/>
		</contour>
	</outline>
</glyph>
<glyph name="s" format="2">
	<advance width="600"/>
	<unicode hex="0073"/>
	<outline>
		<contour>
			<point x="272" y="-10" type="curve" smooth="yes"/>
			<point x="339" y="-10" type="line" smooth="yes"/>
			<point x="441" y="-10"/>
			<point x="507" y="52"/>
			<point x="507" y="147" type="curve" smooth="yes"/>
			<point x="507" y="228"/>
			<point x="453" y="286"/>
			<point x="369" y="298" type="curve" smooth="yes"/>
			<point x="264" y="313" type="line" smooth="yes"/>
			<point x="196" y="323"/>
			<point x="159" y="357"/>
			<point x="159" y="412" type="curve" smooth="yes"/>
			<point x="159" y="475"/>
			<point x="207" y="515"/>
			<point x="282" y="515" type="curve" smooth="yes"/>
			<point x="324" y="515" type="line" smooth="yes"/>
			<point x="394" y="515"/>
			<point x="443" y="477"/>
			<point x="451" y="425" type="curve"/>
			<point x="501" y="425" type="line"/>
			<point x="491" y="506"/>
			<point x="424" y="560"/>
			<point x="324" y="560" type="curve" smooth="yes"/>
			<point x="282" y="560" type="line" smooth="yes"/>
			<point x="176" y="560"/>
			<point x="108" y="502"/>
			<point x="108" y="411" type="curve" smooth="yes"/>
			<point x="108" y="329"/>
			<point x="162" y="277"/>
			<point x="256" y="264" type="curve" smooth="yes"/>
			<point x="363" y="249" type="line" smooth="yes"/>
			<point x="421" y="241"/>
			<point x="458" y="197"/>
			<point x="458" y="140" type="curve" smooth="yes"/>
			<point x="458" y="76"/>
			<point x="412" y="35"/>
			<point x="339" y="35" type="curve" smooth="yes"/>
			<point x="272" y="35" type="line" smooth="yes"/>
			<point x="203" y="35"/>
			<point x="153" y="77"/>
			<point x="143" y="135" type="curve"/>
			<point x="93" y="135" type="line"/>
			<point x="102" y="50"/>
			<point x="172" y="-10"/>
		</contour>
	</outline>
</glyph>
<glyph name="t" format="2">
	<advance width="600"/>
	<unicode hex="0074"/>
	<outline>
		<contour>
			<point x="360" y="0" type="curve" smooth="yes"/>
			<point x="495" y="0" type="line"/>
			<point x="495" y="45" type="line"/>
			<point x="360" y="45" type="line" smooth="yes"/>
			<point x="308" y="45"/>
			<point x="280" y="73"/>
			<point x="280" y="125" type="curve" smooth="yes"/>
			<point x="280" y="505" type="line"/>
			<point x="505" y="505" type="line"/>
			<point x="505" y="550" type="line"/>
			<point x="280" y="550" type="line"/>
			<point x="280" y="700" type="line"/>
			<point x="230" y="700" type="line"/>
			<point x="230" y="550" type="line"/>
			<point x="70" y="550" type="line"/>
			<point x="70" y="505" type="line"/>
			<point x="230" y="505" type="line"/>
			<point x="230" y="125" type="line" smooth="yes"/>
			<point x="230" y="44"/>
			<point x="276" y="0"/>
		</contour>
	</outline>
</glyph>
<glyph name="u" format="2">
	<advance width="600"/>
	<unicode hex="0075"/>
	<outline>
		<contour>
			<point x="299" y="-10" type="curve" smooth="yes"/>
			<point x="419" y="-10"/>
			<point x="492" y="68"/>
			<point x="492" y="194" type="curve" smooth="yes"/>
			<point x="492" y="550" type="line"/>
			<point x="442" y="550" type="line"/>
			<point x="442" y="194" type="line" smooth="yes"/>
			<point x="442" y="94"/>
			<point x="388" y="35"/>
			<point x="299" y="35" type="curve" smooth="yes"/>
			<point x="211" y="35"/>
			<point x="158" y="94"/>
			<point x="158" y="194" type="curve" smooth="yes"/>
			<point x="158" y="550" type="line"/>
			<point x="108" y="550" type="line"/>
			<point x="108" y="194" type="line" smooth="yes"/>
			<point x="108" y="67"/>
			<point x="180" y="-10"/>
		</contour>
	</outline>
</glyph>
<glyph name="v" format="2">
	<advance width="600"/>
	<unicode hex="0076"/>
	<outline>
		<contour>
			<point x="269" y="0" type="line"/>
			<point x="331" y="0" type="line"/>
			<point x="524" y="550" type="line"/>
			<point x="473" y="550" type="line"/>
			<point x="334" y="140" type="line" smooth="yes"/>
			<point x="316" y="90"/>
			<point x="301" y="37"/>
			<point x="301" y="37" type="curve"/>
			<point x="301" y="37"/>
			<point x="285" y="90"/>
			<point x="268" y="140" type="curve" smooth="yes"/>
			<point x="128" y="550" type="line"/>
			<point x="76" y="550" type="line"/>
		</contour>
	</outline>
</glyph>
<glyph name="w" format="2">
	<advance width="600"/>
	<unicode hex="0077"/>
	<outline>
		<contour>
			<point x="143" y="0" type="line"/>
			<point x="209" y="0" type="line"/>
			<point x="281" y="391" type="line" smooth="yes"/>
			<point x="290" y="440"/>
			<point x="301" y="507"/>
			<point x="301" y="507" type="curve"/>
			<point x="301" y="507"/>
			<point x="313" y="440"/>
			<point x="321" y="391" type="curve" smooth="yes"/>
			<point x="390" y="0" type="line"/>
			<point x="456" y="0" type="line"/>
			<point x="550" y="550" type="line"/>
			<point x="503" y="550" type="line"/>
			<point x="435" y="141" type="line" smooth="yes"/>
			<point x="428" y="100"/>
			<point x="422" y="35"/>
			<point x="422" y="35" type="curve"/>
			<point x="422" y="35"/>
			<point x="414" y="100"/>
			<point x="406" y="140" type="curve" smooth="yes"/>
			<point x="326" y="550" type="line"/>
			<point x="276" y="550" type="line"/>
			<point x="196" y="140" type="line" smooth="yes"/>
			<point x="188" y="100"/>
			<point x="180" y="35"/>
			<point x="180" y="35" type="curve"/>
			<point x="180" y="35"/>
			<point x="173" y="100"/>
			<point x="166" y="141" type="curve" smooth="yes"/>
			<point x="98" y="550" type="line"/>
			<point x="50" y="550" type="line"/>
		</contour>
	</outline>
</glyph>
<glyph name="x" format="2">
	<advance width="600"/>
	<unicode hex="0078"/>
	<outline>
		<contour>
			<point x="75" y="0" type="line"/>
			<point x="132" y="0" type="line"/>
			<point x="274" y="210" type="line" smooth="yes"/>
			<point x="285" y="226"/>
			<point x="300" y="248"/>
			<point x="300" y="248" type="curve"/>
			<point x="300" y="248"/>
			<point x="315" y="227"/>
			<point x="326" y="210" type="curve" smooth="yes"/>
			<point x="467" y="0" type="line"/>
			<point x="525" y="0" type="line"/>
			<point x="330" y="282" type="line"/>
			<point x="514" y="550" type="line"/>
			<point x="456" y="550" type="line"/>
			<point x="324" y="350" type="line" smooth="yes"/>
			<point x="314" y="336"/>
			<point x="301" y="315"/>
			<point x="301" y="315" type="curve"/>
			<point x="301" y="315"/>
			<point x="288" y="335"/>
			<point x="279" y="350" type="curve" smooth="yes"/>
			<point x="146" y="550" type="line"/>
			<point x="87" y="550" type="line"/>
			<point x="271" y="282" type="line"/>
		</contour>
	</outline>
</glyph>
<glyph name="y" format="2">
	<advance width="600"/>
	<unicode hex="0079"/>
	<outline>
		<contour>
			<point x="203" y="-180" type="line"/>
			<point x="254" y="-180" type="line"/>
			<point x="524" y="550" type="line"/>
			<point x="469" y="550" type="line"/>
			<point x="344" y="200" type="line" smooth="yes"/>
			<point x="327" y="150"/>
			<point x="309" y="101"/>
			<point x="309" y="101" type="curve"/>
			<point x="309" y="101"/>
			<point x="291" y="149"/>
			<point x="271" y="200" type="curve" smooth="yes"/>
			<point x="132" y="550" type="line"/>
			<point x="76" y="550" type="line"/>
			<point x="284" y="39" type="line"/>
		</contour>
	</outline>
</glyph>
<glyph name="z" format="2">
	<advance width="600"/>
	<unicode hex="007A"/>
	<outline>
		<contour>
			<point x="103" y="0" type="line"/>
			<point x="497" y="0" type="line"/>
			<point x="497" y="45" type="line"/>
			<point x="159" y="45" type="line"/>
			<point x="484" y="503" type="line"/>
			<point x="484" y="550" type="line"/>
			<point x="112" y="550" type="line"/>
			<point x="112" y="505" type="line"/>
			<point x="427" y="505" type="line"/>
			<point x="103" y="46" type="line"/>
		</contour>
	</outline>
</glyph>
<glyph name="braceleft" format="2">
	<advance width="600"/>
	<unicode hex="007B"/>
	<outline>
		<contour>
			<point x="445" y="-110" type="curve" smooth="yes"/>
			<point x="500" y="-110" type="line"/>
			<point x="500" y="-65" type="line"/>
			<point x="445" y="-65" type="line" smooth="yes"/>
			<point x="383" y="-65"/>
			<point x="340" y="-25"/>
			<point x="345" y="40" type="curve" smooth="yes"/>
			<point x="360" y="237" type="line" smooth="yes"/>
			<point x="366" y="313"/>
			<point x="322" y="364"/>
			<point x="255" y="364" type="curve"/>
			<point x="255" y="357" type="line"/>
			<point x="322" y="357"/>
			<point x="366" y="407"/>
			<point x="360" y="482" type="curve" smooth="yes"/>
			<point x="345" y="680" type="line" smooth="yes"/>
			<point x="340" y="745"/>
			<point x="383" y="785"/>
			<point x="445" y="785" type="curve" smooth="yes"/>
			<point x="500" y="785" type="line"/>
			<point x="500" y="830" type="line"/>
			<point x="445" y="830" type="line" smooth="yes"/>
			<point x="349" y="830"/>
			<point x="288" y="775"/>
			<point x="295" y="680" type="curve" smooth="yes"/>
			<point x="310" y="482" type="line" smooth="yes"/>
			<point x="316" y="408"/>
			<point x="292" y="382"/>
			<point x="210" y="382" type="curve" smooth="yes"/>
			<point x="100" y="382" type="line"/>
			<point x="100" y="336" type="line"/>
			<point x="210" y="336" type="line" smooth="yes"/>
			<point x="296" y="336"/>
			<point x="315" y="308"/>
			<point x="310" y="237" type="curve" smooth="yes"/>
			<point x="295" y="40" type="line" smooth="yes"/>
			<point x="288" y="-55"/>
			<point x="349" y="-110"/>
		</contour>
	</outline>
</glyph>
<glyph name="bar" format="2">
	<advance width="600"/>
	<unicode hex="007C"/>
	<outline>
		<contour>
			<point x="275" y="-110" type="line"/>
			<point x="325" y="-110" type="line"/>
			<point x="325" y="830" type="line"/>
			<point x="275" y="830" type="line"/>
		</contour>
	</outline>
</glyph>
<glyph name="braceright" format="2">
	<advance width="600"/>
	<unicode hex="007D"/>
	<outline>
		<contour>
			<point x="100" y="-110" type="line"/>
			<point x="154" y="-110" type="line" smooth="yes"/>
			<point x="250" y="-110"/>
			<point x="311" y="-55"/>
			<point x="304" y="40" type="curve" smooth="yes"/>
			<point x="290" y="237" type="line" smooth="yes"/>
			<point x="285" y="308"/>
			<point x="304" y="336"/>
			<point x="390" y="336" type="curve" smooth="yes"/>
			<point x="500" y="336" type="line"/>
			<point x="500" y="382" type="line"/>
			<point x="390" y="382" type="line" smooth="yes"/>
			<point x="308" y="382"/>
			<point x="285" y="408"/>
			<point x="290" y="482" type="curve" smooth="yes"/>
			<point x="304" y="680" type="line" smooth="yes"/>
			<point x="311" y="775"/>
			<point x="250" y="830"/>
			<point x="154" y="830" type="curve" smooth="yes"/>
			<point x="100" y="830" type="line"/>
			<point x="100" y="785" type="line"/>
			<point x="154" y="785" type="line" smooth="yes"/>
			<point x="216" y="785"/>
			<point x="259" y="745"/>
			<point x="254" y="680" type="curve" smooth="yes"/>
			<point x="240" y="482" type="line" smooth="yes"/>
			<point x="235" y="407"/>
			<point x="278" y="357"/>
			<point x="345" y="357" type="curve"/>
			<point x="345" y="364" type="line"/>
			<point x="278" y="364"/>
			<point x="235" y="313"/>
			<point x="240" y="237" type="curve" smooth="yes"/>
			<point x="254" y="40" type="line" smooth="yes"/>
			<point x="259" y="-25"/>
			<point x="216" y="-65"/>
			<point x="154" y="-65" type="curve" smooth="yes"/>
			<point x="100" y="-65" type="line"/>
		</contour>
	</outline>
</glyph>
<glyph name="asciitilde" format="2">
	<advance width="600"/>
	<unicode hex="007E"/>
	<outline>
		<contour>
			<point x="85" y="335" type="curve" smooth="yes"/>
			<point x="85" y="260" type="line"/>
			<point x="130" y="260" type="line"/>
			<point x="130" y="335" type="line" smooth="yes"/>
			<point x="130" y="378"/>
			<point x="152" y="403"/>
			<point x="190" y="403" type="curve" smooth="yes"/>
			<point x="275" y="403"/>
			<point x="295" y="260"/>
			<point x="415" y="260" type="curve" smooth="yes"/>
			<point x="478" y="260"/>
			<point x="515" y="301"/>
			<point x="515" y="370" type="curve" smooth="yes"/>
			<point x="515" y="445" type="line"/>
			<point x="470" y="445" type="line"/>
			<point x="470" y="370" type="line" smooth="yes"/>
			<point x="470" y="327"/>
			<point x="450" y="302"/>
			<point x="415" y="302" type="curve" smooth="yes"/>
			<point x="326" y="302"/>
			<point x="305" y="445"/>
			<point x="190" y="445" type="curve" smooth="yes"/>
			<point x="125" y="445"/>
			<point x="85" y="403"/>
		</contour>
	</outline>
</glyph>
<glyph name="exclamdown" format="2">
	<advance width="600"/>
	<unicode hex="00A1"/>
	<outline>
		<contour>
			<point x="272" y="-180" type="line"/>
			<point x="334" y="-180" type="line"/>
			<point x="334" y="-20" type="line"/>
			<point x="318" y="345" type="line"/>
			<point x="288" y="345" type="line"/>
			<point x="272" y="-20" type="line"/>
		</contour>
		<contour>
			<point x="297" y="445" type="curve" smooth="yes"/>
			<point x="302" y="445" type="line" smooth="yes"/>
			<point x="335" y="445"/>
			<point x="357" y="467"/>
			<point x="357" y="500" type="curve" smooth="yes"/>
			<point x="357" y="533"/>
			<point x="335" y="555"/>
			<point x="302" y="555" type="curve" smooth="yes"/>
			<point x="297" y="555" type="line" smooth="yes"/>
			<point x="264" y="555"/>
			<point x="242" y="533"/>
			<point x="242" y="500" type="curve" smooth="yes"/>
			<point x="242" y="467"/>
			<point x="264" y="445"/>
		</contour>
	</outline>
</glyph>
<glyph name="sterling" format="2">
	<advance width="600"/>
	<unicode hex="00A3"/>
	<outline>
		<contour>
			<point x="75" y="50" type="curve"/>
			<point x="75" y="0" type="line"/>
			<point x="535" y="0" type="line"/>
			<point x="535" y="45" type="line"/>
			<point x="130" y="45" type="line"/>
			<point x="130" y="45"/>
			<point x="254" y="122"/>
			<point x="254" y="235" type="curve" smooth="yes"/>
			<point x="254" y="364"/>
			<point x="156" y="422"/>
			<point x="156" y="545" type="curve" smooth="yes"/>
			<point x="156" y="638"/>
			<point x="211" y="695"/>
			<point x="299" y="695" type="curve" smooth="yes"/>
			<point x="402" y="695"/>
			<point x="466" y="640"/>
			<point x="466" y="550" type="curve"/>
			<point x="516" y="550" type="line"/>
			<point x="514" y="667"/>
			<point x="431" y="740"/>
			<point x="300" y="740" type="curve" smooth="yes"/>
			<point x="180" y="740"/>
			<point x="106" y="666"/>
			<point x="106" y="546" type="curve" smooth="yes"/>
			<point x="106" y="416"/>
			<point x="204" y="372"/>
			<point x="204" y="235" type="curve" smooth="yes"/>
			<point x="204" y="125"/>
			<point x="75" y="50"/>
		</contour>
		<contour>
			<point x="75" y="320" type="line"/>
			<point x="435" y="320" type="line"/>
			<point x="435" y="365" type="line"/>
			<point x="75" y="365" type="line"/>
		</contour>
	</outline>
</glyph>
<glyph name="currency" format="2">
	<advance width="600"/>
	<unicode hex="00A4"/>
	<outline>
		<contour>
			<point x="299" y="163" type="curve" smooth="yes"/>
			<point x="414" y="163"/>
			<point x="491" y="240"/>
			<point x="491" y="355" type="curve" smooth="yes"/>
			<point x="491" y="470"/>
			<point x="414" y="547"/>
			<point x="299" y="547" type="curve" smooth="yes"/>
			<point x="183" y="547"/>
			<point x="106" y="470"/>
			<point x="106" y="355" type="curve" smooth="yes"/>
			<point x="106" y="240"/>
			<point x="183" y="163"/>
		</contour>
		<contour>
			<point x="91" y="109" type="line"/>
			<point x="190" y="208" type="line"/>
			<point x="155" y="243" type="line"/>
			<point x="56" y="144" type="line"/>
		</contour>
		<contour>
			<point x="508" y="109" type="line"/>
			<point x="543" y="144" type="line"/>
			<point x="444" y="243" type="line"/>
			<point x="409" y="208" type="line"/>
		</contour>
		<contour>
			<point x="299" y="216" type="curve" smooth="yes"/>
			<point x="216" y="216"/>
			<point x="160" y="272"/>
			<point x="160" y="355" type="curve" smooth="yes"/>
			<point x="160" y="438"/>
			<point x="216" y="494"/>
			<point x="299" y="494" type="curve" smooth="yes"/>
			<point x="382" y="494"/>
			<point x="437" y="438"/>
			<point x="437" y="355" type="curve" smooth="yes"/>
			<point x="437" y="272"/>
			<point x="382" y="216"/>
		</contour>
		<contour>
			<point x="155" y="469" type="line"/>
			<point x="190" y="504" type="line"/>
			<point x="91" y="603" type="line"/>
			<point x="56" y="568" type="line"/>
		</contour>
		<contour>
			<point x="444" y="463" type="line"/>
			<point x="543" y="562" type="line"/>
			<point x="508" y="597" type="line"/>
			<point x="409" y="498" type="line"/>
		</contour>
	</outline>
</glyph>
<glyph name="section" format="2">
	<advance width="600"/>
	<unicode hex="00A7"/>
	<outline>
		<contour>
			<point x="272" y="-155" type="curve" smooth="yes"/>
			<point x="339" y="-155" type="line" smooth="yes"/>
			<point x="441" y="-155"/>
			<point x="507" y="-93"/>
			<point x="507" y="2" type="curve" smooth="yes"/>
			<point x="507" y="120"/>
			<point x="401" y="147"/>
			<point x="401" y="147" type="curve"/>
			<point x="401" y="151" type="line"/>
			<point x="464" y="165"/>
			<point x="507" y="225"/>
			<point x="507" y="297" type="curve" smooth="yes"/>
			<point x="507" y="378"/>
			<point x="452" y="438"/>
			<point x="369" y="458" type="curve" smooth="yes"/>
			<point x="264" y="483" type="line" smooth="yes"/>
			<point x="197" y="499"/>
			<point x="159" y="537"/>
			<point x="159" y="592" type="curve" smooth="yes"/>
			<point x="159" y="655"/>
			<point x="207" y="695"/>
			<point x="282" y="695" type="curve" smooth="yes"/>
			<point x="324" y="695" type="line" smooth="yes"/>
			<point x="394" y="695"/>
			<point x="443" y="657"/>
			<point x="451" y="605" type="curve"/>
			<point x="501" y="605" type="line"/>
			<point x="491" y="686"/>
			<point x="424" y="740"/>
			<point x="324" y="740" type="curve" smooth="yes"/>
			<point x="282" y="740" type="line" smooth="yes"/>
			<point x="176" y="740"/>
			<point x="108" y="682"/>
			<point x="108" y="591" type="curve" smooth="yes"/>
			<point x="108" y="477"/>
			<point x="219" y="453"/>
			<point x="219" y="453" type="curve"/>
			<point x="219" y="449" type="line"/>
			<point x="152" y="430"/>
			<point x="108" y="373"/>
			<point x="108" y="302" type="curve" smooth="yes"/>
			<point x="108" y="220"/>
			<point x="164" y="161"/>
			<point x="256" y="139" type="curve" smooth="yes"/>
			<point x="363" y="114" type="line" smooth="yes"/>
			<point x="420" y="101"/>
			<point x="458" y="52"/>
			<point x="458" y="-6" type="curve" smooth="yes"/>
			<point x="458" y="-69"/>
			<point x="412" y="-110"/>
			<point x="339" y="-110" type="curve" smooth="yes"/>
			<point x="272" y="-110" type="line" smooth="yes"/>
			<point x="203" y="-110"/>
			<point x="153" y="-68"/>
			<point x="143" y="-10" type="curve"/>
			<point x="93" y="-10" type="line"/>
			<point x="102" y="-95"/>
			<point x="172" y="-155"/>
		</contour>
		<contour>
			<point x="335" y="171" type="curve" smooth="yes"/>
			<point x="264" y="188" type="line" smooth="yes"/>
			<point x="197" y="204"/>
			<point x="159" y="248"/>
			<point x="159" y="303" type="curve" smooth="yes"/>
			<point x="159" y="378"/>
			<point x="227" y="441"/>
			<point x="290" y="426" type="curve" smooth="yes"/>
			<point x="363" y="409" type="line"/>
			<point x="420" y="396"/>
			<point x="458" y="347"/>
			<point x="458" y="289" type="curve" smooth="yes"/>
			<point x="458" y="215"/>
			<point x="397" y="156"/>
		</contour>
	</outline>
</glyph>
<glyph name="dieresis" format="2">
	<advance width="600"/>
	<unicode hex="00A8"/>
	<outline>
		<contour>
			<point x="401" y="640" type="curve" smooth="yes"/>
			<point x="431" y="640"/>
			<point x="450" y="662"/>
			<point x="450" y="695" type="curve" smooth="yes"/>
			<point x="450" y="728"/>
			<point x="431" y="750"/>
			<point x="401" y="750" type="curve" smooth="yes"/>
			<point x="370" y="750"/>
			<point x="350" y="728"/>
			<point x="350" y="695" type="curve" smooth="yes"/>
			<point x="350" y="662"/>
			<point x="370" y="640"/>
		</contour>
		<contour>
			<point x="200" y="640" type="curve" smooth="yes"/>
			<point x="230" y="640"/>
			<point x="250" y="662"/>
			<point x="250" y="695" type="curve" smooth="yes"/>
			<point x="250" y="728"/>
			<point x="230" y="750"/>
			<point x="200" y="750" type="curve" smooth="yes"/>
			<point x="169" y="750"/>
			<point x="150" y="728"/>
			<point x="150" y="695" type="curve" smooth="yes"/>
			<point x="150" y="662"/>
			<point x="169" y="640"/>
		</contour>
	</outline>
</glyph>
<glyph name="copyright" format="2">
	<advance width="600"/>
	<unicode hex="00A9"/>
	<outline>
		<contour>
			<point x="300" y="110" type="curve" smooth="yes"/>
			<point x="449" y="110"/>
			<point x="548" y="205"/>
			<point x="548" y="350" type="curve" smooth="yes"/>
			<point x="548" y="500" type="line" smooth="yes"/>
			<point x="548" y="645"/>
			<point x="449" y="740"/>
			<point x="300" y="740" type="curve" smooth="yes"/>
			<point x="151" y="740"/>
			<point x="52" y="645"/>
			<point x="52" y="500" type="curve" smooth="yes"/>
			<point x="52" y="350" type="line" smooth="yes"/>
			<point x="52" y="205"/>
			<point x="151" y="110"/>
		</contour>
		<contour>
			<point x="300" y="148" type="curve" smooth="yes"/>
			<point x="178" y="148"/>
			<point x="95" y="229"/>
			<point x="95" y="350" type="curve" smooth="yes"/>
			<point x="95" y="500" type="line" smooth="yes"/>
			<point x="95" y="621"/>
			<point x="178" y="702"/>
			<point x="300" y="702" type="curve" smooth="yes"/>
			<point x="422" y="702"/>
			<point x="505" y="621"/>
			<point x="505" y="500" type="curve" smooth="yes"/>
			<point x="505" y="350" type="line" smooth="yes"/>
			<point x="505" y="229"/>
			<point x="422" y="148"/>
		</contour>
		<contour>
			<point x="305" y="245" type="curve" smooth="yes"/>
			<point x="373" y="245"/>
			<point x="419" y="291"/>
			<point x="419" y="360" type="curve"/>
			<point x="374" y="360" type="line"/>
			<point x="374" y="315"/>
			<point x="346" y="285"/>
			<point x="305" y="285" type="curve" smooth="yes"/>
			<point x="263" y="285"/>
			<point x="235" y="315"/>
			<point x="235" y="360" type="curve" smooth="yes"/>
			<point x="235" y="490" type="line" smooth="yes"/>
			<point x="235" y="535"/>
			<point x="263" y="565"/>
			<point x="305" y="565" type="curve" smooth="yes"/>
			<point x="346" y="565"/>
			<point x="374" y="535"/>
			<point x="374" y="490" type="curve"/>
			<point x="419" y="490" type="line"/>
			<point x="419" y="559"/>
			<point x="373" y="605"/>
			<point x="305" y="605" type="curve" smooth="yes"/>
			<point x="236" y="605"/>
			<point x="190" y="559"/>
			<point x="190" y="490" type="curve" smooth="yes"/>
			<point x="190" y="360" type="line" smooth="yes"/>
			<point x="190" y="291"/>
			<point x="236" y="245"/>
		</contour>
	</outline>
</glyph>
<glyph name="ordfeminine" format="2">
	<advance width="600"/>
	<unicode hex="00AA"/>
	<outline>
		<contour>
			<point x="383" y="455" type="line"/>
			<point x="415" y="455" type="line"/>
			<point x="415" y="650" type="line" smooth="yes"/>
			<point x="415" y="704"/>
			<point x="371" y="740"/>
			<point x="305" y="740" type="curve" smooth="yes"/>
			<point x="248" y="740"/>
			<point x="204" y="708"/>
			<point x="195" y="660" type="curve"/>
			<point x="230" y="660" type="line"/>
			<point x="236" y="690"/>
			<point x="266" y="710"/>
			<point x="305" y="710" type="curve" smooth="yes"/>
			<point x="350" y="710"/>
			<point x="380" y="686"/>
			<point x="380" y="650" type="curve" smooth="yes"/>
			<point x="380" y="510" type="line"/>
			<point x="383" y="510" type="line"/>
		</contour>
		<contour>
			<point x="274" y="450" type="curve" smooth="yes"/>
			<point x="324" y="450"/>
			<point x="367" y="474"/>
			<point x="380" y="510" type="curve"/>
			<point x="391" y="510" type="line"/>
			<point x="391" y="555" type="line"/>
			<point x="380" y="555" type="line"/>
			<point x="380" y="508"/>
			<point x="343" y="478"/>
			<point x="287" y="478" type="curve" smooth="yes"/>
			<point x="243" y="478"/>
			<point x="215" y="500"/>
			<point x="215" y="535" type="curve" smooth="yes"/>
			<point x="215" y="568"/>
			<point x="239" y="590"/>
			<point x="275" y="590" type="curve" smooth="yes"/>
			<point x="391" y="590" type="line"/>
			<point x="391" y="620" type="line"/>
			<point x="275" y="620" type="line" smooth="yes"/>
			<point x="218" y="620"/>
			<point x="180" y="586"/>
			<point x="180" y="535" type="curve" smooth="yes"/>
			<point x="180" y="483"/>
			<point x="216" y="450"/>
		</contour>
	</outline>
</glyph>
<glyph name="guillemotleft" format="2">
	<advance width="600"/>
	<unicode hex="00AB"/>
	<outline>
		<contour>
			<point x="489" y="40" type="line"/>
			<point x="550" y="40" type="line"/>
			<point x="342" y="282" type="line"/>
			<point x="550" y="520" type="line"/>
			<point x="490" y="520" type="line"/>
			<point x="280" y="280" type="line"/>
		</contour>
		<contour>
			<point x="259" y="40" type="line"/>
			<point x="320" y="40" type="line"/>
			<point x="112" y="282" type="line"/>
			<point x="320" y="520" type="line"/>
			<point x="260" y="520" type="line"/>
			<point x="50" y="280" type="line"/>
		</contour>
	</outline>
</glyph>
<glyph name="logicalnot" format="2">
	<advance width="600"/>
	<unicode hex="00AC"/>
	<outline>
		<contour>
			<point x="480" y="215" type="line"/>
			<point x="530" y="215" type="line"/>
			<point x="530" y="400" type="line"/>
			<point x="70" y="400" type="line"/>
			<point x="70" y="355" type="line"/>
			<point x="480" y="355" type="line"/>
		</contour>
	</outline>
</glyph>
<glyph name="registered" format="2">
	<advance width="600"/>
	<unicode hex="00AE"/>
	<outline>
		<contour>
			<point x="300" y="110" type="curve" smooth="yes"/>
			<point x="449" y="110"/>
			<point x="548" y="205"/>
			<point x="548" y="350" type="curve" smooth="yes"/>
			<point x="548" y="500" type="line" smooth="yes"/>
			<point x="548" y="645"/>
			<point x="449" y="740"/>
			<point x="300" y="740" type="curve" smooth="yes"/>
			<point x="151" y="740"/>
			<point x="52" y="645"/>
			<point x="52" y="500" type="curve" smooth="yes"/>
			<point x="52" y="350" type="line" smooth="yes"/>
			<point x="52" y="205"/>
			<point x="151" y="110"/>
		</contour>
		<contour>
			<point x="367" y="250" type="line"/>
			<point x="415" y="250" type="line"/>
			<point x="344" y="409" type="line"/>
			<point x="298" y="409" type="line"/>
		</contour>
		<contour>
			<point x="300" y="148" type="curve" smooth="yes"/>
			<point x="178" y="148"/>
			<point x="95" y="229"/>
			<point x="95" y="350" type="curve"/>
			<point x="95" y="500" type="line" smooth="yes"/>
			<point x="95" y="621"/>
			<point x="178" y="702"/>
			<point x="300" y="702" type="curve" smooth="yes"/>
			<point x="422" y="702"/>
			<point x="505" y="621"/>
			<point x="505" y="500" type="curve" smooth="yes"/>
			<point x="505" y="350" type="line" smooth="yes"/>
			<point x="505" y="229"/>
			<point x="422" y="148"/>
		</contour>
		<contour>
			<point x="200" y="250" type="line"/>
			<point x="245" y="250" type="line"/>
			<point x="245" y="395" type="line"/>
			<point x="305" y="395" type="line" smooth="yes"/>
			<point x="369" y="395"/>
			<point x="412" y="437"/>
			<point x="412" y="498" type="curve" smooth="yes"/>
			<point x="412" y="560"/>
			<point x="369" y="600"/>
			<point x="305" y="600" type="curve" smooth="yes"/>
			<point x="200" y="600" type="line"/>
		</contour>
		<contour>
			<point x="305" y="435" type="curve" smooth="yes"/>
			<point x="245" y="435" type="line"/>
			<point x="245" y="560" type="line"/>
			<point x="305" y="560" type="line" smooth="yes"/>
			<point x="345" y="560"/>
			<point x="372" y="534"/>
			<point x="372" y="497" type="curve" smooth="yes"/>
			<point x="372" y="460"/>
			<point x="345" y="435"/>
		</contour>
	</outline>
</glyph>
<glyph name="macron" format="2">
	<advance width="600"/>
	<unicode hex="00AF"/>
	<outline>
		<contour>
			<point x="180" y="680" type="line"/>
			<point x="420" y="680" type="line"/>
			<point x="420" y="725" type="line"/>
			<point x="180" y="725" type="line"/>
		</contour>
	</outline>
</glyph>
<glyph name="degree" format="2">
	<advance width="600"/>
	<unicode hex="00B0"/>
	<outline>
		<contour>
			<point x="300" y="450" type="curve" smooth="yes"/>
			<point x="387" y="450"/>
			<point x="445" y="508"/>
			<point x="445" y="595" type="curve" smooth="yes"/>
			<point x="445" y="682"/>
			<point x="387" y="740"/>
			<point x="300" y="740" type="curve" smooth="yes"/>
			<point x="213" y="740"/>
			<point x="155" y="683"/>
			<point x="155" y="595" type="curve" smooth="yes"/>
			<point x="155" y="508"/>
			<point x="213" y="450"/>
		</contour>
		<contour>
			<point x="300" y="490" type="curve" smooth="yes"/>
			<point x="240" y="490"/>
			<point x="200" y="532"/>
			<point x="200" y="595" type="curve" smooth="yes"/>
			<point x="200" y="659"/>
			<point x="240" y="701"/>
			<point x="300" y="701" type="curve" smooth="yes"/>
			<point x="360" y="701"/>
			<point x="400" y="659"/>
			<point x="400" y="595" type="curve" smooth="yes"/>
			<point x="400" y="532"/>
			<point x="360" y="490"/>
		</contour>
	</outline>
</glyph>
<glyph name="plusminus" format="2">
	<advance width="600"/>
	<unicode hex="00B1"/>
	<outline>
		<contour>
			<point x="70" y="0" type="line"/>
			<point x="530" y="0" type="line"/>
			<point x="530" y="45" type="line"/>
			<point x="322" y="45" type="line"/>
			<point x="322" y="315" type="line"/>
			<point x="530" y="315" type="line"/>
			<point x="530" y="360" type="line"/>
			<point x="322" y="360" type="line"/>
			<point x="322" y="570" type="line"/>
			<point x="273" y="570" type="line"/>
			<point x="273" y="360" type="line"/>
			<point x="70" y="360" type="line"/>
			<point x="70" y="315" type="line"/>
			<point x="273" y="315" type="line"/>
			<point x="273" y="45" type="line"/>
			<point x="70" y="45" type="line"/>
		</contour>
	</outline>
</glyph>
<glyph name="uni00B2" format="2">
	<advance width="600"/>
	<unicode hex="00B2"/>
	<outline>
		<contour>
			<point x="170" y="405" type="line"/>
			<point x="450" y="405" type="line"/>
			<point x="450" y="445" type="line"/>
			<point x="220" y="445" type="line"/>
			<point x="343" y="541" type="line" smooth="yes"/>
			<point x="400" y="585"/>
			<point x="436" y="648"/>
			<point x="436" y="704" type="curve" smooth="yes"/>
			<point x="436" y="788"/>
			<point x="383" y="840"/>
			<point x="298" y="840" type="curve" smooth="yes"/>
			<point x="213" y="840"/>
			<point x="160" y="785"/>
			<point x="160" y="698" type="curve"/>
			<point x="205" y="698" type="line"/>
			<point x="205" y="761"/>
			<point x="241" y="800"/>
			<point x="298" y="800" type="curve" smooth="yes"/>
			<point x="355" y="800"/>
			<point x="391" y="762"/>
			<point x="391" y="701" type="curve" smooth="yes"/>
			<point x="391" y="660"/>
			<point x="363" y="611"/>
			<point x="319" y="575" type="curve" smooth="yes"/>
			<point x="170" y="456" type="line"/>
		</contour>
	</outline>
</glyph>
<glyph name="uni00B3" format="2">
	<advance width="600"/>
	<unicode hex="00B3"/>
	<outline>
		<contour>
			<point x="284" y="395" type="curve" smooth="yes"/>
			<point x="368" y="395"/>
			<point x="422" y="448"/>
			<point x="422" y="530" type="curve" smooth="yes"/>
			<point x="422" y="612"/>
			<point x="368" y="665"/>
			<point x="284" y="665" type="curve"/>
			<point x="284" y="652" type="line"/>
			<point x="396" y="786" type="line"/>
			<point x="396" y="830" type="line"/>
			<point x="175" y="830" type="line"/>
			<point x="175" y="790" type="line"/>
			<point x="354" y="790" type="line"/>
			<point x="255" y="673" type="line"/>
			<point x="255" y="627" type="line"/>
			<point x="284" y="627" type="line" smooth="yes"/>
			<point x="340" y="627"/>
			<point x="377" y="589"/>
			<point x="377" y="530" type="curve" smooth="yes"/>
			<point x="377" y="472"/>
			<point x="340" y="435"/>
			<point x="284" y="435" type="curve" smooth="yes"/>
			<point x="226" y="435"/>
			<point x="189" y="472"/>
			<point x="189" y="530" type="curve"/>
			<point x="144" y="530" type="line"/>
			<point x="144" y="448"/>
			<point x="199" y="395"/>
		</contour>
	</outline>
</glyph>
<glyph name="acute" format="2">
	<advance width="600"/>
	<unicode hex="00B4"/>
	<outline>
		<contour>
			<point x="225" y="645" type="line"/>
			<point x="275" y="645" type="line"/>
			<point x="400" y="785" type="line"/>
			<point x="340" y="785" type="line"/>
		</contour>
	</outline>
</glyph>
<glyph name="uni00B5" format="2">
	<advance width="600"/>
	<unicode hex="00B5"/>
	<outline>
		<contour>
			<point x="100" y="-180" type="line"/>
			<point x="155" y="-180" type="line"/>
			<point x="150" y="-3" type="line" smooth="yes"/>
			<point x="149" y="38"/>
			<point x="142" y="73"/>
			<point x="140" y="73" type="curve"/>
			<point x="143" y="73" type="line"/>
			<point x="171" y="20"/>
			<point x="230" y="-10"/>
			<point x="305" y="-10" type="curve" smooth="yes"/>
			<point x="429" y="-10"/>
			<point x="500" y="64"/>
			<point x="500" y="194" type="curve" smooth="yes"/>
			<point x="500" y="550" type="line"/>
			<point x="445" y="550" type="line"/>
			<point x="445" y="194" type="line" smooth="yes"/>
			<point x="445" y="92"/>
			<point x="396" y="40"/>
			<point x="299" y="40" type="curve" smooth="yes"/>
			<point x="203" y="40"/>
			<point x="155" y="92"/>
			<point x="155" y="194" type="curve" smooth="yes"/>
			<point x="155" y="550" type="line"/>
			<point x="100" y="550" type="line"/>
		</contour>
	</outline>
</glyph>
<glyph name="paragraph" format="2">
	<advance width="600"/>
	<unicode hex="00B6"/>
	<outline>
		<contour>
			<point x="270" y="310" type="curve"/>
			<point x="270" y="-180" type="line"/>
			<point x="320" y="-180" type="line"/>
			<point x="320" y="730" type="line"/>
			<point x="270" y="730" type="line" smooth="yes"/>
			<point x="168" y="730"/>
			<point x="100" y="670"/>
			<point x="100" y="580" type="curve" smooth="yes"/>
			<point x="100" y="460" type="line" smooth="yes"/>
			<point x="100" y="370"/>
			<point x="168" y="310"/>
		</contour>
		<contour>
			<point x="440" y="-180" type="line"/>
			<point x="490" y="-180" type="line"/>
			<point x="490" y="730" type="line"/>
			<point x="440" y="730" type="line"/>
		</contour>
	</outline>
</glyph>
<glyph name="cedilla" format="2">
	<advance width="600"/>
	<unicode hex="00B8"/>
	<outline>
		<contour>
			<point x="210" y="-195" type="line"/>
			<point x="290" y="-195" type="line" smooth="yes"/>
			<point x="350" y="-195"/>
			<point x="390" y="-161"/>
			<point x="390" y="-118" type="curve" smooth="yes"/>
			<point x="390" y="-40"/>
			<point x="280" y="-34"/>
			<point x="280" y="-34" type="curve"/>
			<point x="303" y="26" type="line"/>
			<point x="261" y="26" type="line"/>
			<point x="226" y="-64" type="line"/>
			<point x="297" y="-64"/>
			<point x="344" y="-86"/>
			<point x="344" y="-118" type="curve" smooth="yes"/>
			<point x="344" y="-140"/>
			<point x="322" y="-160"/>
			<point x="290" y="-160" type="curve" smooth="yes"/>
			<point x="210" y="-160" type="line"/>
		</contour>
	</outline>
</glyph>
<glyph name="uni00B9" format="2">
	<advance width="600"/>
	<unicode hex="00B9"/>
	<outline>
		<contour>
			<point x="170" y="405" type="line"/>
			<point x="450" y="405" type="line"/>
			<point x="450" y="445" type="line"/>
			<point x="344" y="445" type="line"/>
			<point x="344" y="830" type="line"/>
			<point x="277" y="830" type="line"/>
			<point x="178" y="751" type="line"/>
			<point x="178" y="700" type="line"/>
			<point x="299" y="795" type="line"/>
			<point x="299" y="445" type="line"/>
			<point x="170" y="445" type="line"/>
		</contour>
	</outline>
</glyph>
<glyph name="ordmasculine" format="2">
	<advance width="600"/>
	<unicode hex="00BA"/>
	<outline>
		<contour>
			<point x="300" y="445" type="curve" smooth="yes"/>
			<point x="365" y="445"/>
			<point x="409" y="483"/>
			<point x="409" y="540" type="curve" smooth="yes"/>
			<point x="409" y="645" type="line" smooth="yes"/>
			<point x="409" y="702"/>
			<point x="365" y="740"/>
			<point x="300" y="740" type="curve" smooth="yes"/>
			<point x="235" y="740"/>
			<point x="191" y="702"/>
			<point x="191" y="645" type="curve" smooth="yes"/>
			<point x="191" y="540" type="line" smooth="yes"/>
			<point x="191" y="483"/>
			<point x="235" y="445"/>
		</contour>
		<contour>
			<point x="300" y="475" type="curve" smooth="yes"/>
			<point x="255" y="475"/>
			<point x="225" y="501"/>
			<point x="225" y="540" type="curve" smooth="yes"/>
			<point x="225" y="645" type="line" smooth="yes"/>
			<point x="225" y="684"/>
			<point x="255" y="710"/>
			<point x="300" y="710" type="curve" smooth="yes"/>
			<point x="345" y="710"/>
			<point x="375" y="684"/>
			<point x="375" y="645" type="curve" smooth="yes"/>
			<point x="375" y="540" type="line" smooth="yes"/>
			<point x="375" y="501"/>
			<point x="345" y="475"/>
		</contour>
	</outline>
</glyph>
<glyph name="guillemotright" format="2">
	<advance width="600"/>
	<unicode hex="00BB"/>
	<outline>
		<contour>
			<point x="280" y="40" type="line"/>
			<point x="340" y="40" type="line"/>
			<point x="550" y="280" type="line"/>
			<point x="341" y="520" type="line"/>
			<point x="280" y="520" type="line"/>
			<point x="487" y="279" type="line"/>
		</contour>
		<contour>
			<point x="50" y="40" type="line"/>
			<point x="110" y="40" type="line"/>
			<point x="320" y="280" type="line"/>
			<point x="111" y="520" type="line"/>
			<point x="50" y="520" type="line"/>
			<point x="257" y="279" type="line"/>
		</contour>
	</outline>
</glyph>
<glyph name="onequarter" format="2">
	<advance width="600"/>
	<unicode hex="00BC"/>
	<outline>
		<contour>
			<point x="30" y="405" type="line"/>
			<point x="305" y="405" type="line"/>
			<point x="305" y="445" type="line"/>
			<point x="194" y="445" type="line"/>
			<point x="194" y="730" type="line"/>
			<point x="124" y="730" type="line"/>
			<point x="53" y="669" type="line"/>
			<point x="53" y="614" type="line"/>
			<point x="116" y="668" type="line" smooth="yes"/>
			<point x="136" y="686"/>
			<point x="149" y="700"/>
			<point x="149" y="700" type="curve"/>
			<point x="149" y="445" type="line"/>
			<point x="30" y="445" type="line"/>
		</contour>
		<contour>
			<point x="490" y="0" type="line"/>
			<point x="535" y="0" type="line"/>
			<point x="535" y="216" type="line"/>
			<point x="490" y="216" type="line"/>
			<point x="490" y="110" type="line"/>
			<point x="355" y="110" type="line"/>
			<point x="355" y="126" type="line"/>
			<point x="492" y="325" type="line"/>
			<point x="442" y="325" type="line"/>
			<point x="310" y="140" type="line"/>
			<point x="310" y="70" type="line"/>
			<point x="490" y="70" type="line"/>
		</contour>
		<component base="fraction"/>
	</outline>
</glyph>
<glyph name="onehalf" format="2">
	<advance width="600"/>
	<unicode hex="00BD"/>
	<outline>
		<contour>
			<point x="98" y="0" type="line"/>
			<point x="144" y="0" type="line"/>
			<point x="502" y="730" type="line"/>
			<point x="456" y="730" type="line"/>
		</contour>
		<contour>
			<point x="330" y="0" type="line"/>
			<point x="570" y="0" type="line"/>
			<point x="570" y="40" type="line"/>
			<point x="447" y="40" type="line" smooth="yes"/>
			<point x="435" y="40"/>
			<point x="389" y="40"/>
			<point x="389" y="40" type="curve"/>
			<point x="389" y="44" type="line"/>
			<point x="465" y="92" type="line" smooth="yes"/>
			<point x="528" y="132"/>
			<point x="560" y="177"/>
			<point x="560" y="227" type="curve" smooth="yes"/>
			<point x="560" y="287"/>
			<point x="515" y="330"/>
			<point x="448" y="330" type="curve" smooth="yes"/>
			<point x="377" y="330"/>
			<point x="330" y="284"/>
			<point x="330" y="216" type="curve"/>
			<point x="375" y="216" type="line"/>
			<point x="375" y="260"/>
			<point x="404" y="290"/>
			<point x="448" y="290" type="curve" smooth="yes"/>
			<point x="489" y="290"/>
			<point x="515" y="264"/>
			<point x="515" y="224" type="curve" smooth="yes"/>
			<point x="515" y="188"/>
			<point x="494" y="158"/>
			<point x="445" y="126" type="curve" smooth="yes"/>
			<point x="330" y="51" type="line"/>
		</contour>
		<contour>
			<point x="38" y="406" type="line"/>
			<point x="313" y="406" type="line"/>
			<point x="313" y="446" type="line"/>
			<point x="202" y="446" type="line"/>
			<point x="202" y="731" type="line"/>
			<point x="132" y="731" type="line"/>
			<point x="61" y="670" type="line"/>
			<point x="61" y="615" type="line"/>
			<point x="124" y="669" type="line" smooth="yes"/>
			<point x="144" y="687"/>
			<point x="157" y="701"/>
			<point x="157" y="701" type="curve"/>
			<point x="157" y="446" type="line"/>
			<point x="38" y="446" type="line"/>
		</contour>
	</outline>
</glyph>
<glyph name="threequarters" format="2">
	<advance width="600"/>
	<unicode hex="00BE"/>
	<outline>
		<contour>
			<point x="490" y="0" type="line"/>
			<point x="535" y="0" type="line"/>
			<point x="535" y="216" type="line"/>
			<point x="490" y="216" type="line"/>
			<point x="490" y="110" type="line"/>
			<point x="355" y="110" type="line"/>
			<point x="355" y="126" type="line"/>
			<point x="492" y="325" type="line"/>
			<point x="442" y="325" type="line"/>
			<point x="310" y="140" type="line"/>
			<point x="310" y="70" type="line"/>
			<point x="490" y="70" type="line"/>
		</contour>
		<contour>
			<point x="154" y="400" type="curve" smooth="yes"/>
			<point x="224" y="400"/>
			<point x="270" y="444"/>
			<point x="270" y="510" type="curve" smooth="yes"/>
			<point x="270" y="569"/>
			<point x="222" y="609"/>
			<point x="155" y="609" type="curve"/>
			<point x="155" y="599" type="line"/>
			<point x="257" y="685" type="line"/>
			<point x="257" y="730" type="line"/>
			<point x="57" y="730" type="line"/>
			<point x="57" y="690" type="line"/>
			<point x="213" y="690" type="line"/>
			<point x="125" y="618" type="line"/>
			<point x="125" y="575" type="line"/>
			<point x="155" y="575" type="line" smooth="yes"/>
			<point x="197" y="575"/>
			<point x="225" y="549"/>
			<point x="225" y="510" type="curve" smooth="yes"/>
			<point x="225" y="468"/>
			<point x="197" y="440"/>
			<point x="154" y="440" type="curve" smooth="yes"/>
			<point x="110" y="440"/>
			<point x="81" y="466"/>
			<point x="81" y="505" type="curve"/>
			<point x="36" y="505" type="line"/>
			<point x="36" y="442"/>
			<point x="83" y="400"/>
		</contour>
		<component base="fraction"/>
	</outline>
</glyph>
<glyph name="questiondown" format="2">
	<advance width="600"/>
	<unicode hex="00BF"/>
	<outline>
		<contour>
			<point x="310" y="-169" type="curve" smooth="yes"/>
			<point x="430" y="-169" type="line"/>
			<point x="430" y="-124" type="line"/>
			<point x="310" y="-124" type="line" smooth="yes"/>
			<point x="213" y="-124"/>
			<point x="150" y="-68"/>
			<point x="150" y="26" type="curve" smooth="yes"/>
			<point x="150" y="120"/>
			<point x="212" y="176"/>
			<point x="309" y="176" type="curve" smooth="yes"/>
			<point x="359" y="176" type="line"/>
			<point x="359" y="345" type="line"/>
			<point x="309" y="345" type="line"/>
			<point x="309" y="221" type="line"/>
			<point x="181" y="221"/>
			<point x="100" y="148"/>
			<point x="100" y="26" type="curve" smooth="yes"/>
			<point x="100" y="-95"/>
			<point x="183" y="-169"/>
		</contour>
		<contour>
			<point x="334" y="446" type="curve" smooth="yes"/>
			<point x="339" y="446" type="line" smooth="yes"/>
			<point x="372" y="446"/>
			<point x="394" y="468"/>
			<point x="394" y="501" type="curve" smooth="yes"/>
			<point x="394" y="534"/>
			<point x="372" y="556"/>
			<point x="339" y="556" type="curve" smooth="yes"/>
			<point x="334" y="556" type="line" smooth="yes"/>
			<point x="301" y="556"/>
			<point x="279" y="534"/>
			<point x="279" y="501" type="curve" smooth="yes"/>
			<point x="279" y="468"/>
			<point x="301" y="446"/>
		</contour>
	</outline>
</glyph>
<glyph name="AE" format="2">
	<advance width="600"/>
	<unicode hex="00C6"/>
	<outline>
		<contour>
			<point x="34" y="0" type="line"/>
			<point x="84" y="0" type="line"/>
			<point x="140" y="215" type="line"/>
			<point x="310" y="215" type="line"/>
			<point x="310" y="0" type="line"/>
			<point x="569" y="0" type="line"/>
			<point x="569" y="45" type="line"/>
			<point x="360" y="45" type="line"/>
			<point x="360" y="357" type="line"/>
			<point x="533" y="357" type="line"/>
			<point x="533" y="402" type="line"/>
			<point x="360" y="402" type="line"/>
			<point x="360" y="685" type="line"/>
			<point x="569" y="685" type="line"/>
			<point x="569" y="730" type="line"/>
			<point x="222" y="730" type="line"/>
		</contour>
		<contour>
			<point x="153" y="260" type="line"/>
			<point x="259" y="685" type="line"/>
			<point x="310" y="685" type="line"/>
			<point x="310" y="260" type="line"/>
		</contour>
	</outline>
</glyph>
<glyph name="multiply" format="2">
	<advance width="600"/>
	<unicode hex="00D7"/>
	<outline>
		<contour>
			<point x="145" y="143" type="line"/>
			<point x="297" y="295" type="line"/>
			<point x="449" y="143" type="line"/>
			<point x="485" y="178" type="line"/>
			<point x="333" y="330" type="line"/>
			<point x="485" y="482" type="line"/>
			<point x="449" y="517" type="line"/>
			<point x="297" y="365" type="line"/>
			<point x="145" y="517" type="line"/>
			<point x="110" y="482" type="line"/>
			<point x="262" y="330" type="line"/>
			<point x="110" y="178" type="line"/>
		</contour>
	</outline>
</glyph>
<glyph name="Oslash" format="2">
	<advance width="600"/>
	<unicode hex="00D8"/>
	<note>
		Make a bit lighter. Maybe decompose?
	</note>
	<outline>
		<contour>
			<point x="49" y="-40" type="line"/>
			<point x="97" y="-40" type="line"/>
			<point x="551" y="750" type="line"/>
			<point x="503" y="750" type="line"/>
		</contour>
		<component base="O"/>
	</outline>
</glyph>
<glyph name="Thorn" format="2">
	<advance width="600"/>
	<unicode hex="00DE"/>
	<outline>
		<contour>
			<point x="105" y="0" type="line"/>
			<point x="155" y="0" type="line"/>
			<point x="155" y="195" type="line"/>
			<point x="333" y="195" type="line" smooth="yes"/>
			<point x="454" y="195"/>
			<point x="530" y="266"/>
			<point x="530" y="380" type="curve" smooth="yes"/>
			<point x="530" y="494"/>
			<point x="454" y="565"/>
			<point x="333" y="565" type="curve" smooth="yes"/>
			<point x="155" y="565" type="line"/>
			<point x="155" y="730" type="line"/>
			<point x="105" y="730" type="line"/>
		</contour>
		<contour>
			<point x="333" y="241" type="curve" smooth="yes"/>
			<point x="155" y="241" type="line"/>
			<point x="155" y="520" type="line"/>
			<point x="333" y="520" type="line" smooth="yes"/>
			<point x="424" y="520"/>
			<point x="480" y="467"/>
			<point x="480" y="380" type="curve" smooth="yes"/>
			<point x="480" y="294"/>
			<point x="424" y="241"/>
		</contour>
	</outline>
</glyph>
<glyph name="germandbls" format="2">
	<advance width="600"/>
	<unicode hex="00DF"/>
	<outline>
		<contour>
			<point x="110" y="543" type="curve" smooth="yes"/>
			<point x="110" y="0" type="line"/>
			<point x="160" y="0" type="line"/>
			<point x="160" y="543" type="line" smooth="yes"/>
			<point x="160" y="635"/>
			<point x="217" y="695"/>
			<point x="305" y="695" type="curve" smooth="yes"/>
			<point x="397" y="695"/>
			<point x="450" y="637"/>
			<point x="450" y="545" type="curve" smooth="yes"/>
			<point x="450" y="457"/>
			<point x="394" y="397"/>
			<point x="305" y="397" type="curve" smooth="yes"/>
			<point x="265" y="397" type="line"/>
			<point x="265" y="352" type="line"/>
			<point x="305" y="352" type="line" smooth="yes"/>
			<point x="410" y="352"/>
			<point x="465" y="297"/>
			<point x="465" y="200" type="curve" smooth="yes"/>
			<point x="465" y="102"/>
			<point x="410" y="44"/>
			<point x="305" y="45" type="curve" smooth="yes"/>
			<point x="243" y="45" type="line"/>
			<point x="243" y="0" type="line"/>
			<point x="305" y="0" type="line" smooth="yes"/>
			<point x="437" y="0"/>
			<point x="515" y="80"/>
			<point x="515" y="208" type="curve" smooth="yes"/>
			<point x="515" y="314"/>
			<point x="448" y="380"/>
			<point x="340" y="380" type="curve"/>
			<point x="340" y="370" type="line"/>
			<point x="434" y="370"/>
			<point x="500" y="444"/>
			<point x="500" y="550" type="curve" smooth="yes"/>
			<point x="500" y="666"/>
			<point x="427" y="740"/>
			<point x="305" y="740" type="curve" smooth="yes"/>
			<point x="188" y="740"/>
			<point x="110" y="661"/>
		</contour>
	</outline>
</glyph>
<glyph name="ae" format="2">
	<advance width="600"/>
	<unicode hex="00E6"/>
	<outline>
		<contour>
			<point x="174" y="-10" type="curve" smooth="yes"/>
			<point x="285" y="-10"/>
			<point x="301" y="75"/>
			<point x="301" y="75" type="curve"/>
			<point x="304" y="75" type="line"/>
			<point x="304" y="75"/>
			<point x="321" y="-10"/>
			<point x="426" y="-10" type="curve" smooth="yes"/>
			<point x="507" y="-10"/>
			<point x="554" y="43"/>
			<point x="561" y="125" type="curve"/>
			<point x="511" y="125" type="line"/>
			<point x="506" y="72"/>
			<point x="475" y="35"/>
			<point x="423" y="35" type="curve" smooth="yes"/>
			<point x="366" y="35"/>
			<point x="328" y="79"/>
			<point x="328" y="140" type="curve" smooth="yes"/>
			<point x="328" y="268" type="line"/>
			<point x="560" y="268" type="line"/>
			<point x="560" y="410" type="line" smooth="yes"/>
			<point x="560" y="500"/>
			<point x="507" y="560"/>
			<point x="423" y="560" type="curve" smooth="yes"/>
			<point x="326" y="560"/>
			<point x="304" y="474"/>
			<point x="304" y="474" type="curve"/>
			<point x="302" y="474" type="line"/>
			<point x="302" y="474"/>
			<point x="285" y="560"/>
			<point x="180" y="560" type="curve" smooth="yes"/>
			<point x="99" y="560"/>
			<point x="47" y="507"/>
			<point x="40" y="425" type="curve"/>
			<point x="90" y="425" type="line"/>
			<point x="95" y="478"/>
			<point x="131" y="516"/>
			<point x="183" y="516" type="curve" smooth="yes"/>
			<point x="239" y="516"/>
			<point x="278" y="471"/>
			<point x="278" y="410" type="curve" smooth="yes"/>
			<point x="278" y="313" type="line"/>
			<point x="170" y="313" type="line" smooth="yes"/>
			<point x="89" y="313"/>
			<point x="40" y="263"/>
			<point x="40" y="185" type="curve" smooth="yes"/>
			<point x="40" y="139" type="line" smooth="yes"/>
			<point x="40" y="50"/>
			<point x="91" y="-10"/>
		</contour>
		<contour>
			<point x="183" y="32" type="curve" smooth="yes"/>
			<point x="127" y="32"/>
			<point x="90" y="77"/>
			<point x="90" y="139" type="curve" smooth="yes"/>
			<point x="90" y="185" type="line" smooth="yes"/>
			<point x="90" y="234"/>
			<point x="123" y="268"/>
			<point x="170" y="268" type="curve" smooth="yes"/>
			<point x="278" y="268" type="line"/>
			<point x="278" y="140" type="line" smooth="yes"/>
			<point x="278" y="78"/>
			<point x="238" y="32"/>
		</contour>
		<contour>
			<point x="328" y="313" type="line"/>
			<point x="328" y="410" type="line" smooth="yes"/>
			<point x="328" y="470"/>
			<point x="366" y="516"/>
			<point x="420" y="516" type="curve" smooth="yes"/>
			<point x="474" y="516"/>
			<point x="510" y="470"/>
			<point x="510" y="410" type="curve" smooth="yes"/>
			<point x="510" y="313" type="line"/>
		</contour>
	</outline>
</glyph>
<glyph name="eth" format="2">
	<advance width="600"/>
	<unicode hex="00F0"/>
	<outline>
		<contour>
			<point x="300" y="-10" type="curve" smooth="yes"/>
			<point x="434" y="-10"/>
			<point x="520" y="78"/>
			<point x="520" y="213" type="curve" smooth="yes"/>
			<point x="520" y="302"/>
			<point x="483" y="402"/>
			<point x="401" y="517" type="curve" smooth="yes"/>
			<point x="250" y="730" type="line"/>
			<point x="184" y="730" type="line"/>
			<point x="358" y="491" type="line" smooth="yes"/>
			<point x="430" y="392"/>
			<point x="445" y="347"/>
			<point x="445" y="347" type="curve"/>
			<point x="442" y="347" type="line"/>
			<point x="442" y="347"/>
			<point x="390" y="436"/>
			<point x="290" y="436" type="curve" smooth="yes"/>
			<point x="161" y="436"/>
			<point x="80" y="350"/>
			<point x="80" y="215" type="curve" smooth="yes"/>
			<point x="80" y="79"/>
			<point x="167" y="-10"/>
		</contour>
		<contour>
			<point x="300" y="40" type="curve" smooth="yes"/>
			<point x="199" y="40"/>
			<point x="135" y="108"/>
			<point x="135" y="215" type="curve" smooth="yes"/>
			<point x="135" y="322"/>
			<point x="199" y="390"/>
			<point x="300" y="390" type="curve" smooth="yes"/>
			<point x="395" y="390"/>
			<point x="465" y="318"/>
			<point x="465" y="216" type="curve" smooth="yes"/>
			<point x="465" y="109"/>
			<point x="400" y="40"/>
		</contour>
		<contour>
			<point x="117" y="515" type="line"/>
			<point x="461" y="675" type="line"/>
			<point x="461" y="715" type="line"/>
			<point x="117" y="555" type="line"/>
		</contour>
	</outline>
</glyph>
<glyph name="divide" format="2">
	<advance width="600"/>
	<unicode hex="00F7"/>
	<outline>
		<contour>
			<point x="100" y="309" type="line"/>
			<point x="500" y="309" type="line"/>
			<point x="500" y="359" type="line"/>
			<point x="100" y="359" type="line"/>
		</contour>
		<contour>
			<point x="295" y="100" type="curve" smooth="yes"/>
			<point x="300" y="100" type="line" smooth="yes"/>
			<point x="333" y="100"/>
			<point x="355" y="122"/>
			<point x="355" y="155" type="curve" smooth="yes"/>
			<point x="355" y="188"/>
			<point x="333" y="210"/>
			<point x="300" y="210" type="curve" smooth="yes"/>
			<point x="295" y="210" type="line" smooth="yes"/>
			<point x="262" y="210"/>
			<point x="240" y="188"/>
			<point x="240" y="155" type="curve" smooth="yes"/>
			<point x="240" y="122"/>
			<point x="262" y="100"/>
		</contour>
		<contour>
			<point x="295" y="455" type="curve" smooth="yes"/>
			<point x="300" y="455" type="line" smooth="yes"/>
			<point x="333" y="455"/>
			<point x="355" y="477"/>
			<point x="355" y="510" type="curve" smooth="yes"/>
			<point x="355" y="543"/>
			<point x="333" y="565"/>
			<point x="300" y="565" type="curve" smooth="yes"/>
			<point x="295" y="565" type="line" smooth="yes"/>
			<point x="262" y="565"/>
			<point x="240" y="543"/>
			<point x="240" y="510" type="curve" smooth="yes"/>
			<point x="240" y="477"/>
			<point x="262" y="455"/>
		</contour>
	</outline>
</glyph>
<glyph name="oslash" format="2">
	<advance width="600"/>
	<unicode hex="00F8"/>
	<note>
		Needs to be lighter [R], [B]
	</note>
	<outline>
		<contour>
			<point x="59" y="-30" type="line"/>
			<point x="108" y="-30" type="line"/>
			<point x="541" y="590" type="line"/>
			<point x="492" y="590" type="line"/>
		</contour>
		<component base="o"/>
	</outline>
</glyph>
<glyph name="thorn" format="2">
	<advance width="600"/>
	<unicode hex="00FE"/>
	<outline>
		<contour>
			<point x="110" y="-180" type="line"/>
			<point x="160" y="-180" type="line"/>
			<point x="160" y="59" type="line"/>
			<point x="110" y="59" type="line"/>
		</contour>
		<component base="b"/>
	</outline>
</glyph>
<glyph name="dcaron" format="2">
	<advance width="600"/>
	<unicode hex="010F"/>
	<outline>
		<contour>
			<point x="520" y="610" type="line"/>
			<point x="565" y="610" type="line"/>
			<point x="635" y="756" type="line"/>
			<point x="570" y="756" type="line"/>
		</contour>
		<component base="d" xOffset="-10"/>
	</outline>
</glyph>
<glyph name="Dcroat" format="2">
	<advance width="600"/>
	<unicode hex="0110"/>
	<outline>
		<contour>
			<point x="45" y="335" type="line"/>
			<point x="290" y="335" type="line"/>
			<point x="290" y="380" type="line"/>
			<point x="45" y="380" type="line"/>
		</contour>
		<component base="D"/>
	</outline>
</glyph>
<glyph name="dcroat" format="2">
	<advance width="600"/>
	<unicode hex="0111"/>
	<outline>
		<contour>
			<point x="287" y="-10" type="curve" smooth="yes"/>
			<point x="383" y="-10"/>
			<point x="450" y="49"/>
			<point x="450" y="140" type="curve"/>
			<point x="412" y="75" type="line"/>
			<point x="440" y="75" type="line"/>
			<point x="440" y="0" type="line"/>
			<point x="490" y="0" type="line"/>
			<point x="490" y="730" type="line"/>
			<point x="440" y="730" type="line"/>
			<point x="440" y="520" type="line"/>
			<point x="440" y="415" type="line"/>
			<point x="422" y="415" type="line"/>
			<point x="450" y="350" type="line"/>
			<point x="450" y="441"/>
			<point x="383" y="500"/>
			<point x="287" y="500" type="curve" smooth="yes"/>
			<point x="177" y="500"/>
			<point x="105" y="420"/>
			<point x="105" y="300" type="curve" smooth="yes"/>
			<point x="105" y="189" type="line" smooth="yes"/>
			<point x="105" y="69"/>
			<point x="177" y="-10"/>
		</contour>
		<contour>
			<point x="297" y="33" type="curve" smooth="yes"/>
			<point x="208" y="33"/>
			<point x="155" y="91"/>
			<point x="155" y="189" type="curve" smooth="yes"/>
			<point x="155" y="300" type="line" smooth="yes"/>
			<point x="155" y="398"/>
			<point x="208" y="457"/>
			<point x="297" y="457" type="curve" smooth="yes"/>
			<point x="388" y="457"/>
			<point x="440" y="398"/>
			<point x="440" y="300" type="curve" smooth="yes"/>
			<point x="440" y="189" type="line" smooth="yes"/>
			<point x="440" y="91"/>
			<point x="387" y="33"/>
		</contour>
		<contour>
			<point x="260" y="586" type="line"/>
			<point x="590" y="586" type="line"/>
			<point x="590" y="631" type="line"/>
			<point x="260" y="631" type="line"/>
		</contour>
	</outline>
</glyph>
<glyph name="uni0123" format="2">
	<advance width="600"/>
	<unicode hex="0123"/>
	<outline>
		<contour>
			<point x="230" y="640" type="line"/>
			<point x="295" y="640" type="line"/>
			<point x="385" y="785" type="line"/>
			<point x="335" y="785" type="line"/>
		</contour>
		<component base="g"/>
	</outline>
</glyph>
<glyph name="dotlessi" format="2">
	<advance width="600"/>
	<unicode hex="0131"/>
	<outline>
		<contour>
			<point x="95" y="0" type="line"/>
			<point x="535" y="0" type="line"/>
			<point x="535" y="45" type="line"/>
			<point x="346" y="45" type="line"/>
			<point x="346" y="550" type="line"/>
			<point x="120" y="550" type="line"/>
			<point x="120" y="505" type="line"/>
			<point x="296" y="505" type="line"/>
			<point x="296" y="45" type="line"/>
			<point x="95" y="45" type="line"/>
		</contour>
	</outline>
</glyph>
<glyph name="IJ" format="2">
	<advance width="600"/>
	<unicode hex="0132"/>
	<outline>
		<contour>
			<point x="255" y="0" type="line"/>
			<point x="310" y="0" type="line" smooth="yes"/>
			<point x="450" y="0"/>
			<point x="535" y="87"/>
			<point x="535" y="230" type="curve" smooth="yes"/>
			<point x="535" y="720" type="line"/>
			<point x="310" y="720" type="line"/>
			<point x="310" y="670" type="line"/>
			<point x="480" y="670" type="line"/>
			<point x="480" y="230" type="line" smooth="yes"/>
			<point x="480" y="117"/>
			<point x="416" y="50"/>
			<point x="310" y="50" type="curve" smooth="yes"/>
			<point x="255" y="50" type="line"/>
		</contour>
		<contour>
			<point x="102" y="0" type="line"/>
			<point x="157" y="0" type="line"/>
			<point x="157" y="720" type="line"/>
			<point x="102" y="720" type="line"/>
		</contour>
	</outline>
</glyph>
<glyph name="ij" format="2">
	<advance width="600"/>
	<unicode hex="0133"/>
	<outline>
		<contour>
			<point x="212" y="-165" type="line"/>
			<point x="267" y="-165" type="line" smooth="yes"/>
			<point x="394" y="-165"/>
			<point x="478" y="-87"/>
			<point x="478" y="30" type="curve" smooth="yes"/>
			<point x="477" y="550" type="line"/>
			<point x="422" y="550" type="line"/>
			<point x="422" y="30" type="line" smooth="yes"/>
			<point x="422" y="-57"/>
			<point x="360" y="-115"/>
			<point x="267" y="-115" type="curve" smooth="yes"/>
			<point x="212" y="-115" type="line"/>
		</contour>
		<contour>
			<point x="120" y="0" type="line"/>
			<point x="175" y="0" type="line"/>
			<point x="175" y="550" type="line"/>
			<point x="120" y="550" type="line"/>
		</contour>
		<contour>
			<point x="145" y="645" type="curve" smooth="yes"/>
			<point x="150" y="645" type="line" smooth="yes"/>
			<point x="183" y="645"/>
			<point x="205" y="667"/>
			<point x="205" y="700" type="curve" smooth="yes"/>
			<point x="205" y="733"/>
			<point x="183" y="755"/>
			<point x="150" y="755" type="curve" smooth="yes"/>
			<point x="145" y="755" type="line" smooth="yes"/>
			<point x="112" y="755"/>
			<point x="90" y="733"/>
			<point x="90" y="700" type="curve" smooth="yes"/>
			<point x="90" y="667"/>
			<point x="112" y="645"/>
		</contour>
		<contour>
			<point x="450" y="645" type="curve" smooth="yes"/>
			<point x="455" y="645" type="line" smooth="yes"/>
			<point x="488" y="645"/>
			<point x="510" y="667"/>
			<point x="510" y="700" type="curve" smooth="yes"/>
			<point x="510" y="733"/>
			<point x="488" y="755"/>
			<point x="455" y="755" type="curve" smooth="yes"/>
			<point x="450" y="755" type="line" smooth="yes"/>
			<point x="417" y="755"/>
			<point x="395" y="733"/>
			<point x="395" y="700" type="curve" smooth="yes"/>
			<point x="395" y="667"/>
			<point x="417" y="645"/>
		</contour>
	</outline>
</glyph>
<glyph name="Eng" format="2">
	<advance width="600"/>
	<unicode hex="014A"/>
	<outline>
		<contour>
			<point x="227" y="-180" type="line"/>
			<point x="307" y="-180" type="line" smooth="yes"/>
			<point x="425" y="-180"/>
			<point x="491" y="-115"/>
			<point x="491" y="0" type="curve" smooth="yes"/>
			<point x="491" y="730" type="line"/>
			<point x="491" y="730"/>
			<point x="452" y="730"/>
			<point x="443" y="730" type="curve"/>
			<point x="443" y="219" type="line" smooth="yes"/>
			<point x="443" y="149"/>
			<point x="447" y="94"/>
			<point x="447" y="94" type="curve"/>
			<point x="178" y="730" type="line"/>
			<point x="109" y="730" type="line"/>
			<point x="109" y="0" type="line"/>
			<point x="109" y="0"/>
			<point x="148" y="0"/>
			<point x="157" y="0" type="curve"/>
			<point x="157" y="560" type="line" smooth="yes"/>
			<point x="157" y="630"/>
			<point x="155" y="675"/>
			<point x="155" y="675" type="curve"/>
			<point x="441" y="0" type="line"/>
			<point x="441" y="-88"/>
			<point x="395" y="-135"/>
			<point x="307" y="-135" type="curve" smooth="yes"/>
			<point x="227" y="-135" type="line"/>
		</contour>
	</outline>
</glyph>
<glyph name="eng" format="2">
	<advance width="600"/>
	<unicode hex="014B"/>
	<outline>
		<contour>
			<point x="245" y="-180" type="line"/>
			<point x="286" y="-180" type="line" smooth="yes"/>
			<point x="411" y="-180"/>
			<point x="492" y="-104"/>
			<point x="492" y="15" type="curve" smooth="yes"/>
			<point x="492" y="367" type="line" smooth="yes"/>
			<point x="492" y="485"/>
			<point x="421" y="560"/>
			<point x="313" y="560" type="curve" smooth="yes"/>
			<point x="215" y="560"/>
			<point x="153" y="499"/>
			<point x="153" y="404" type="curve"/>
			<point x="183" y="455" type="line"/>
			<point x="160" y="455" type="line"/>
			<point x="160" y="550" type="line"/>
			<point x="110" y="550" type="line"/>
			<point x="110" y="0" type="line"/>
			<point x="160" y="0" type="line"/>
			<point x="160" y="360" type="line" smooth="yes"/>
			<point x="160" y="457"/>
			<point x="215" y="517"/>
			<point x="303" y="517" type="curve" smooth="yes"/>
			<point x="389" y="517"/>
			<point x="442" y="459"/>
			<point x="442" y="360" type="curve" smooth="yes"/>
			<point x="442" y="15" type="line" smooth="yes"/>
			<point x="442" y="-78"/>
			<point x="382" y="-135"/>
			<point x="286" y="-135" type="curve" smooth="yes"/>
			<point x="245" y="-135" type="line"/>
		</contour>
	</outline>
</glyph>
<glyph name="OE" format="2">
	<advance width="600"/>
	<unicode hex="0152"/>
	<outline>
		<contour>
			<point x="196" y="-10" type="curve" smooth="yes"/>
			<point x="291" y="-10"/>
			<point x="315" y="80"/>
			<point x="315" y="80" type="curve"/>
			<point x="320" y="80" type="line"/>
			<point x="320" y="0" type="line"/>
			<point x="569" y="0" type="line"/>
			<point x="569" y="50" type="line"/>
			<point x="375" y="50" type="line"/>
			<point x="375" y="352" type="line"/>
			<point x="533" y="352" type="line"/>
			<point x="533" y="402" type="line"/>
			<point x="375" y="402" type="line"/>
			<point x="375" y="680" type="line"/>
			<point x="569" y="680" type="line"/>
			<point x="569" y="730" type="line"/>
			<point x="320" y="730" type="line"/>
			<point x="320" y="650" type="line"/>
			<point x="315" y="650" type="line"/>
			<point x="315" y="650"/>
			<point x="291" y="740"/>
			<point x="196" y="740" type="curve" smooth="yes"/>
			<point x="105" y="740"/>
			<point x="40" y="664"/>
			<point x="40" y="557" type="curve" smooth="yes"/>
			<point x="40" y="173" type="line" smooth="yes"/>
			<point x="40" y="66"/>
			<point x="105" y="-10"/>
		</contour>
		<contour>
			<point x="207" y="40" type="curve" smooth="yes"/>
			<point x="140" y="40"/>
			<point x="95" y="94"/>
			<point x="95" y="173" type="curve" smooth="yes"/>
			<point x="95" y="557" type="line" smooth="yes"/>
			<point x="95" y="636"/>
			<point x="140" y="690"/>
			<point x="207" y="690" type="curve" smooth="yes"/>
			<point x="273" y="690"/>
			<point x="320" y="638"/>
			<point x="320" y="557" type="curve" smooth="yes"/>
			<point x="320" y="173" type="line" smooth="yes"/>
			<point x="320" y="92"/>
			<point x="273" y="40"/>
		</contour>
	</outline>
</glyph>
<glyph name="oe" format="2">
	<advance width="600"/>
	<unicode hex="0153"/>
	<outline>
		<contour>
			<point x="174" y="-10" type="curve" smooth="yes"/>
			<point x="285" y="-10"/>
			<point x="301" y="75"/>
			<point x="301" y="75" type="curve"/>
			<point x="304" y="75" type="line"/>
			<point x="304" y="75"/>
			<point x="321" y="-10"/>
			<point x="426" y="-10" type="curve" smooth="yes"/>
			<point x="507" y="-10"/>
			<point x="564" y="43"/>
			<point x="571" y="125" type="curve"/>
			<point x="516" y="125" type="line"/>
			<point x="511" y="72"/>
			<point x="475" y="40"/>
			<point x="423" y="40" type="curve" smooth="yes"/>
			<point x="366" y="40"/>
			<point x="330" y="79"/>
			<point x="330" y="140" type="curve" smooth="yes"/>
			<point x="330" y="260" type="line"/>
			<point x="565" y="260" type="line"/>
			<point x="565" y="410" type="line" smooth="yes"/>
			<point x="565" y="501"/>
			<point x="510" y="560"/>
			<point x="423" y="560" type="curve" smooth="yes"/>
			<point x="326" y="560"/>
			<point x="304" y="474"/>
			<point x="304" y="474" type="curve"/>
			<point x="302" y="474" type="line"/>
			<point x="302" y="474"/>
			<point x="285" y="560"/>
			<point x="180" y="560" type="curve" smooth="yes"/>
			<point x="92" y="560"/>
			<point x="35" y="500"/>
			<point x="35" y="408" type="curve" smooth="yes"/>
			<point x="35" y="139" type="line" smooth="yes"/>
			<point x="35" y="48"/>
			<point x="89" y="-10"/>
		</contour>
		<contour>
			<point x="183" y="40" type="curve" smooth="yes"/>
			<point x="126" y="40"/>
			<point x="90" y="79"/>
			<point x="90" y="139" type="curve" smooth="yes"/>
			<point x="90" y="408" type="line" smooth="yes"/>
			<point x="90" y="470"/>
			<point x="126" y="510"/>
			<point x="183" y="510" type="curve" smooth="yes"/>
			<point x="239" y="510"/>
			<point x="275" y="471"/>
			<point x="275" y="410" type="curve" smooth="yes"/>
			<point x="275" y="140" type="line" smooth="yes"/>
			<point x="275" y="79"/>
			<point x="239" y="40"/>
		</contour>
		<contour>
			<point x="330" y="310" type="line"/>
			<point x="330" y="410" type="line" smooth="yes"/>
			<point x="330" y="471"/>
			<point x="365" y="510"/>
			<point x="420" y="510" type="curve" smooth="yes"/>
			<point x="475" y="510"/>
			<point x="510" y="471"/>
			<point x="510" y="410" type="curve" smooth="yes"/>
			<point x="510" y="310" type="line"/>
		</contour>
	</outline>
</glyph>
<glyph name="tbar" format="2">
	<advance width="600"/>
	<unicode hex="0167"/>
	<outline>
		<contour>
			<point x="94" y="261" type="line"/>
			<point x="465" y="261" type="line"/>
			<point x="465" y="304" type="line"/>
			<point x="94" y="304" type="line"/>
		</contour>
		<component base="t"/>
	</outline>
</glyph>
<glyph name="longs" format="2">
	<advance width="600"/>
	<unicode hex="017F"/>
	<outline>
		<contour>
			<point x="180" y="595" type="curve" smooth="yes"/>
			<point x="180" y="0" type="line"/>
			<point x="230" y="0" type="line"/>
			<point x="230" y="595" type="line" smooth="yes"/>
			<point x="230" y="648"/>
			<point x="265" y="685"/>
			<point x="315" y="685" type="curve" smooth="yes"/>
			<point x="495" y="685" type="line"/>
			<point x="495" y="730" type="line"/>
			<point x="316" y="730" type="line" smooth="yes"/>
			<point x="233" y="730"/>
			<point x="180" y="678"/>
		</contour>
	</outline>
</glyph>
<glyph name="uni018F" format="2">
	<advance width="600"/>
	<unicode hex="018F"/>
	<guideline x="299"/>
	<outline>
		<contour>
			<point x="299" y="-10" type="curve" smooth="yes"/>
			<point x="421" y="-10"/>
			<point x="495" y="69"/>
			<point x="495" y="190" type="curve" smooth="yes"/>
			<point x="495" y="540" type="line" smooth="yes"/>
			<point x="495" y="662"/>
			<point x="421" y="740"/>
			<point x="299" y="740" type="curve" smooth="yes"/>
			<point x="175" y="740"/>
			<point x="105" y="658"/>
			<point x="105" y="530" type="curve"/>
			<point x="155" y="530" type="line"/>
			<point x="155" y="632"/>
			<point x="204" y="695"/>
			<point x="299" y="695" type="curve" smooth="yes"/>
			<point x="392" y="695"/>
			<point x="445" y="636"/>
			<point x="445" y="540" type="curve" smooth="yes"/>
			<point x="445" y="378" type="line"/>
			<point x="105" y="378" type="line"/>
			<point x="105" y="190" type="line" smooth="yes"/>
			<point x="105" y="69"/>
			<point x="178" y="-10"/>
		</contour>
		<contour>
			<point x="299" y="34" type="curve" smooth="yes"/>
			<point x="207" y="34"/>
			<point x="155" y="94"/>
			<point x="155" y="190" type="curve" smooth="yes"/>
			<point x="155" y="344" type="line"/>
			<point x="144" y="335" type="line"/>
			<point x="445" y="335" type="line"/>
			<point x="445" y="190" type="line" smooth="yes"/>
			<point x="445" y="93"/>
			<point x="393" y="34"/>
		</contour>
	</outline>
</glyph>
<glyph name="florin" format="2">
	<advance width="600"/>
	<unicode hex="0192"/>
	<outline>
		<contour>
			<point x="0" y="-180" type="line"/>
			<point x="96" y="-180" type="line" smooth="yes"/>
			<point x="214" y="-180"/>
			<point x="290" y="-113"/>
			<point x="290" y="0" type="curve" smooth="yes"/>
			<point x="290" y="432" type="line"/>
			<point x="523" y="432" type="line"/>
			<point x="523" y="477" type="line"/>
			<point x="290" y="477" type="line"/>
			<point x="290" y="605" type="line" smooth="yes"/>
			<point x="290" y="656"/>
			<point x="319" y="685"/>
			<point x="370" y="685" type="curve" smooth="yes"/>
			<point x="523" y="685" type="line"/>
			<point x="523" y="730" type="line"/>
			<point x="370" y="730" type="line" smooth="yes"/>
			<point x="289" y="730"/>
			<point x="240" y="683"/>
			<point x="240" y="605" type="curve" smooth="yes"/>
			<point x="240" y="477" type="line"/>
			<point x="70" y="477" type="line"/>
			<point x="70" y="432" type="line"/>
			<point x="240" y="432" type="line"/>
			<point x="240" y="10" type="line" smooth="yes"/>
			<point x="240" y="-84"/>
			<point x="190" y="-135"/>
			<point x="96" y="-135" type="curve" smooth="yes"/>
			<point x="0" y="-135" type="line"/>
		</contour>
	</outline>
</glyph>
<glyph name="ohorn" format="2">
	<advance width="600"/>
	<unicode hex="01A1"/>
	<outline>
		<contour>
			<point x="300" y="-10" type="curve" smooth="yes"/>
			<point x="419" y="-10"/>
			<point x="495" y="68"/>
			<point x="495" y="190" type="curve" smooth="yes"/>
			<point x="495" y="360" type="line" smooth="yes"/>
			<point x="495" y="481"/>
			<point x="418" y="560"/>
			<point x="300" y="560" type="curve" smooth="yes"/>
			<point x="182" y="560"/>
			<point x="105" y="481"/>
			<point x="105" y="360" type="curve" smooth="yes"/>
			<point x="105" y="190" type="line" smooth="yes"/>
			<point x="105" y="68"/>
			<point x="182" y="-10"/>
		</contour>
		<contour>
			<point x="300" y="34" type="curve" smooth="yes"/>
			<point x="208" y="34"/>
			<point x="155" y="91"/>
			<point x="155" y="190" type="curve" smooth="yes"/>
			<point x="155" y="360" type="line" smooth="yes"/>
			<point x="155" y="458"/>
			<point x="209" y="516"/>
			<point x="300" y="516" type="curve" smooth="yes"/>
			<point x="391" y="516"/>
			<point x="445" y="458"/>
			<point x="445" y="360" type="curve" smooth="yes"/>
			<point x="445" y="190" type="line" smooth="yes"/>
			<point x="445" y="91"/>
			<point x="392" y="34"/>
		</contour>
		<contour>
			<point x="355" y="515" type="line"/>
			<point x="440" y="515" type="line" smooth="yes"/>
			<point x="491" y="515"/>
			<point x="525" y="549"/>
			<point x="525" y="600" type="curve" smooth="yes"/>
			<point x="525" y="660" type="line"/>
			<point x="485" y="660" type="line"/>
			<point x="485" y="600" type="line" smooth="yes"/>
			<point x="485" y="570"/>
			<point x="467" y="550"/>
			<point x="440" y="550" type="curve" smooth="yes"/>
			<point x="355" y="550" type="line"/>
		</contour>
	</outline>
</glyph>
<glyph name="uni0237" format="2">
	<advance width="600"/>
	<unicode hex="0237"/>
	<outline>
		<contour>
			<point x="95" y="-180" type="line"/>
			<point x="230" y="-180" type="line" smooth="yes"/>
			<point x="352" y="-180"/>
			<point x="424" y="-109"/>
			<point x="424" y="10" type="curve" smooth="yes"/>
			<point x="424" y="550" type="line"/>
			<point x="124" y="550" type="line"/>
			<point x="124" y="505" type="line"/>
			<point x="374" y="505" type="line"/>
			<point x="374" y="10" type="line" smooth="yes"/>
			<point x="374" y="-84"/>
			<point x="324" y="-135"/>
			<point x="230" y="-135" type="curve" smooth="yes"/>
			<point x="95" y="-135" type="line"/>
		</contour>
	</outline>
</glyph>
<glyph name="uni0259" format="2">
	<advance width="600"/>
	<unicode hex="0259"/>
	<outline>
		<contour>
			<point x="299" y="-10" type="curve" smooth="yes"/>
			<point x="421" y="-10"/>
			<point x="495" y="69"/>
			<point x="495" y="190" type="curve" smooth="yes"/>
			<point x="495" y="360" type="line" smooth="yes"/>
			<point x="495" y="482"/>
			<point x="422" y="560"/>
			<point x="299" y="560" type="curve" smooth="yes"/>
			<point x="196" y="560"/>
			<point x="126" y="504"/>
			<point x="106" y="415" type="curve"/>
			<point x="156" y="415" type="line"/>
			<point x="175" y="478"/>
			<point x="225" y="516"/>
			<point x="299" y="516" type="curve" smooth="yes"/>
			<point x="392" y="516"/>
			<point x="445" y="456"/>
			<point x="445" y="360" type="curve" smooth="yes"/>
			<point x="445" y="285" type="line"/>
			<point x="105" y="285" type="line"/>
			<point x="105" y="190" type="line" smooth="yes"/>
			<point x="105" y="69"/>
			<point x="178" y="-10"/>
		</contour>
		<contour>
			<point x="299" y="34" type="curve" smooth="yes"/>
			<point x="207" y="34"/>
			<point x="155" y="94"/>
			<point x="155" y="190" type="curve" smooth="yes"/>
			<point x="155" y="251" type="line"/>
			<point x="144" y="242" type="line"/>
			<point x="445" y="242" type="line"/>
			<point x="445" y="190" type="line" smooth="yes"/>
			<point x="445" y="93"/>
			<point x="393" y="34"/>
		</contour>
	</outline>
</glyph>
<glyph name="uni02B9" format="2">
	<advance width="600"/>
	<unicode hex="02B9"/>
	<outline>
		<contour>
			<point x="185" y="410" type="line"/>
			<point x="225" y="410" type="line"/>
			<point x="350" y="721" type="line"/>
			<point x="260" y="721" type="line"/>
		</contour>
	</outline>
</glyph>
<glyph name="uni02BC" format="2">
	<advance width="600"/>
	<unicode hex="02BC"/>
	<outline>
		<contour>
			<point x="185" y="465" type="line"/>
			<point x="225" y="465" type="line"/>
			<point x="350" y="776" type="line"/>
			<point x="260" y="776" type="line"/>
		</contour>
	</outline>
</glyph>
<glyph name="circumflex" format="2">
	<advance width="600"/>
	<unicode hex="02C6"/>
	<note>
		Remove flat connection
	</note>
	<outline>
		<contour>
			<point x="150" y="645" type="line"/>
			<point x="195" y="645" type="line"/>
			<point x="299" y="754" type="line"/>
			<point x="302" y="754" type="line"/>
			<point x="405" y="645" type="line"/>
			<point x="450" y="645" type="line"/>
			<point x="330" y="785" type="line"/>
			<point x="270" y="785" type="line"/>
		</contour>
	</outline>
</glyph>
<glyph name="caron" format="2">
	<advance width="600"/>
	<unicode hex="02C7"/>
	<anchor x="300" y="565" name="_top"/>
	<note>
		Remove flat connection
	</note>
	<outline>
		<contour>
			<point x="270" y="645" type="line"/>
			<point x="330" y="645" type="line"/>
			<point x="450" y="785" type="line"/>
			<point x="405" y="785" type="line"/>
			<point x="302" y="676" type="line"/>
			<point x="299" y="676" type="line"/>
			<point x="195" y="785" type="line"/>
			<point x="150" y="785" type="line"/>
		</contour>
	</outline>
</glyph>
<glyph name="breve" format="2">
	<advance width="600"/>
	<unicode hex="02D8"/>
	<outline>
		<contour>
			<point x="300" y="650" type="curve" smooth="yes"/>
			<point x="387" y="650"/>
			<point x="445" y="704"/>
			<point x="445" y="785" type="curve"/>
			<point x="405" y="785" type="line"/>
			<point x="405" y="728"/>
			<point x="363" y="690"/>
			<point x="299" y="690" type="curve" smooth="yes"/>
			<point x="237" y="690"/>
			<point x="195" y="728"/>
			<point x="195" y="785" type="curve"/>
			<point x="155" y="785" type="line"/>
			<point x="155" y="704"/>
			<point x="213" y="650"/>
		</contour>
	</outline>
</glyph>
<glyph name="dotaccent" format="2">
	<advance width="600"/>
	<unicode hex="02D9"/>
	<outline>
		<contour>
			<point x="287" y="645" type="curve" smooth="yes"/>
			<point x="292" y="645" type="line" smooth="yes"/>
			<point x="325" y="645"/>
			<point x="347" y="667"/>
			<point x="347" y="700" type="curve" smooth="yes"/>
			<point x="347" y="733"/>
			<point x="325" y="755"/>
			<point x="292" y="755" type="curve" smooth="yes"/>
			<point x="287" y="755" type="line" smooth="yes"/>
			<point x="254" y="755"/>
			<point x="232" y="733"/>
			<point x="232" y="700" type="curve" smooth="yes"/>
			<point x="232" y="667"/>
			<point x="254" y="645"/>
		</contour>
	</outline>
</glyph>
<glyph name="ring" format="2">
	<advance width="600"/>
	<unicode hex="02DA"/>
	<outline>
		<contour>
			<point x="300" y="615" type="curve" smooth="yes"/>
			<point x="363" y="615"/>
			<point x="405" y="653"/>
			<point x="405" y="710" type="curve" smooth="yes"/>
			<point x="405" y="767"/>
			<point x="363" y="805"/>
			<point x="300" y="805" type="curve" smooth="yes"/>
			<point x="237" y="805"/>
			<point x="195" y="767"/>
			<point x="195" y="710" type="curve" smooth="yes"/>
			<point x="195" y="653"/>
			<point x="237" y="615"/>
		</contour>
		<contour>
			<point x="299" y="652" type="curve" smooth="yes"/>
			<point x="261" y="652"/>
			<point x="235" y="675"/>
			<point x="235" y="710" type="curve" smooth="yes"/>
			<point x="235" y="745"/>
			<point x="261" y="769"/>
			<point x="299" y="769" type="curve" smooth="yes"/>
			<point x="342" y="769"/>
			<point x="365" y="745"/>
			<point x="365" y="710" type="curve" smooth="yes"/>
			<point x="365" y="675"/>
			<point x="339" y="652"/>
		</contour>
	</outline>
</glyph>
<glyph name="ogonek" format="2">
	<advance width="600"/>
	<unicode hex="02DB"/>
	<outline>
		<contour>
			<point x="302" y="-195" type="curve"/>
			<point x="375" y="-195" type="line"/>
			<point x="375" y="-153" type="line"/>
			<point x="311" y="-153" type="line" smooth="yes"/>
			<point x="279" y="-153"/>
			<point x="260" y="-134"/>
			<point x="260" y="-103" type="curve" smooth="yes"/>
			<point x="260" y="-75"/>
			<point x="283" y="-36"/>
			<point x="321" y="0" type="curve" smooth="yes"/>
			<point x="332" y="10" type="line"/>
			<point x="295" y="10" type="line"/>
			<point x="244" y="-27"/>
			<point x="213" y="-74"/>
			<point x="213" y="-115" type="curve" smooth="yes"/>
			<point x="213" y="-165"/>
			<point x="247" y="-195"/>
		</contour>
	</outline>
</glyph>
<glyph name="tilde" format="2">
	<advance width="600"/>
	<unicode hex="02DC"/>
	<outline>
		<contour>
			<point x="375" y="650" type="curve" smooth="yes"/>
			<point x="428" y="650"/>
			<point x="460" y="684"/>
			<point x="460" y="740" type="curve" smooth="yes"/>
			<point x="460" y="775" type="line"/>
			<point x="420" y="775" type="line"/>
			<point x="420" y="740" type="line" smooth="yes"/>
			<point x="420" y="709"/>
			<point x="403" y="690"/>
			<point x="375" y="690" type="curve" smooth="yes"/>
			<point x="325" y="690"/>
			<point x="305" y="780"/>
			<point x="230" y="780" type="curve" smooth="yes"/>
			<point x="174" y="780"/>
			<point x="140" y="746"/>
			<point x="140" y="690" type="curve" smooth="yes"/>
			<point x="140" y="655" type="line"/>
			<point x="180" y="655" type="line"/>
			<point x="180" y="690" type="line" smooth="yes"/>
			<point x="180" y="721"/>
			<point x="199" y="740"/>
			<point x="230" y="740" type="curve" smooth="yes"/>
			<point x="280" y="740"/>
			<point x="300" y="650"/>
		</contour>
	</outline>
</glyph>
<glyph name="hungarumlaut" format="2">
	<advance width="600"/>
	<unicode hex="02DD"/>
	<outline>
		<contour>
			<point x="340" y="645" type="line"/>
			<point x="390" y="645" type="line"/>
			<point x="510" y="786" type="line"/>
			<point x="450" y="786" type="line"/>
		</contour>
		<contour>
			<point x="190" y="645" type="line"/>
			<point x="240" y="645" type="line"/>
			<point x="360" y="786" type="line"/>
			<point x="300" y="786" type="line"/>
		</contour>
	</outline>
</glyph>
<glyph name="hookabovecomb" format="2">
	<advance width="0"/>
	<unicode hex="0309"/>
	<outline>
		<contour>
			<point x="-268" y="715" type="curve" smooth="yes"/>
			<point x="-321" y="645" type="line"/>
			<point x="-277" y="645" type="line"/>
			<point x="-240" y="697" type="line" smooth="yes"/>
			<point x="-221" y="723"/>
			<point x="-213" y="743"/>
			<point x="-213" y="761" type="curve" smooth="yes"/>
			<point x="-213" y="796"/>
			<point x="-244" y="820"/>
			<point x="-290" y="820" type="curve" smooth="yes"/>
			<point x="-380" y="820" type="line"/>
			<point x="-380" y="785" type="line"/>
			<point x="-290" y="785" type="line" smooth="yes"/>
			<point x="-265" y="785"/>
			<point x="-249" y="774"/>
			<point x="-249" y="757" type="curve" smooth="yes"/>
			<point x="-249" y="746"/>
			<point x="-255" y="733"/>
		</contour>
	</outline>
</glyph>
<glyph name="uni031B" format="2">
	<advance width="0"/>
	<unicode hex="031B"/>
	<outline>
		<contour>
			<point x="-120" y="515" type="line"/>
			<point x="-85" y="515" type="line" smooth="yes"/>
			<point x="-34" y="515"/>
			<point x="0" y="549"/>
			<point x="0" y="600" type="curve" smooth="yes"/>
			<point x="0" y="660" type="line"/>
			<point x="-40" y="660" type="line"/>
			<point x="-40" y="600" type="line" smooth="yes"/>
			<point x="-40" y="570"/>
			<point x="-58" y="550"/>
			<point x="-85" y="550" type="curve" smooth="yes"/>
			<point x="-120" y="550" type="line"/>
		</contour>
	</outline>
</glyph>
<glyph name="dotbelowcomb" format="2">
	<advance width="0"/>
	<unicode hex="0323"/>
	<outline>
		<contour>
			<point x="-313" y="-200" type="curve" smooth="yes"/>
			<point x="-308" y="-200" type="line" smooth="yes"/>
			<point x="-275" y="-200"/>
			<point x="-253" y="-178"/>
			<point x="-253" y="-145" type="curve" smooth="yes"/>
			<point x="-253" y="-112"/>
			<point x="-275" y="-90"/>
			<point x="-308" y="-90" type="curve" smooth="yes"/>
			<point x="-313" y="-90" type="line" smooth="yes"/>
			<point x="-346" y="-90"/>
			<point x="-368" y="-112"/>
			<point x="-368" y="-145" type="curve" smooth="yes"/>
			<point x="-368" y="-178"/>
			<point x="-346" y="-200"/>
		</contour>
	</outline>
</glyph>
<glyph name="uni0326" format="2">
	<advance width="0"/>
	<unicode hex="0326"/>
	<outline>
		<contour>
			<point x="-385" y="-240" type="line"/>
			<point x="-335" y="-240" type="line"/>
			<point x="-230" y="-94" type="line"/>
			<point x="-295" y="-94" type="line"/>
		</contour>
	</outline>
</glyph>
<glyph name="uni0336" format="2">
	<advance width="0"/>
	<unicode hex="0336"/>
	<outline>
		<contour>
			<point x="-630" y="306" type="line"/>
			<point x="30" y="306" type="line"/>
			<point x="30" y="346" type="line"/>
			<point x="-630" y="346" type="line"/>
		</contour>
	</outline>
</glyph>
<glyph name="uni0338" format="2">
	<advance width="0"/>
	<unicode hex="0338"/>
	<outline>
		<contour>
			<point x="-470" y="-60" type="line"/>
			<point x="-424" y="-60" type="line"/>
			<point x="-130" y="780" type="line"/>
			<point x="-176" y="780" type="line"/>
		</contour>
	</outline>
</glyph>
<glyph name="uni0374" format="2">
	<advance width="600"/>
	<unicode hex="0374"/>
	<outline>
		<contour>
			<point x="185" y="410" type="line"/>
			<point x="225" y="410" type="line"/>
			<point x="350" y="721" type="line"/>
			<point x="260" y="721" type="line"/>
		</contour>
	</outline>
</glyph>
<glyph name="uni0394" format="2">
	<advance width="600"/>
	<unicode hex="0394"/>
	<outline>
		<contour>
			<point x="68" y="0" type="line"/>
			<point x="118" y="0" type="line"/>
			<point x="266" y="550" type="line" smooth="yes"/>
			<point x="287" y="630"/>
			<point x="300" y="690"/>
			<point x="300" y="690" type="curve"/>
			<point x="300" y="690"/>
			<point x="312" y="630"/>
			<point x="333" y="550" type="curve" smooth="yes"/>
			<point x="480" y="0" type="line"/>
			<point x="532" y="0" type="line"/>
			<point x="331" y="730" type="line"/>
			<point x="269" y="730" type="line"/>
		</contour>
		<contour>
			<point x="92" y="0" type="line"/>
			<point x="499" y="0" type="line"/>
			<point x="499" y="45" type="line"/>
			<point x="92" y="45" type="line"/>
		</contour>
	</outline>
</glyph>
<glyph name="uni03A9" format="2">
	<advance width="600"/>
	<unicode hex="03A9"/>
	<outline>
		<contour>
			<point x="50" y="0" type="line"/>
			<point x="260" y="0" type="line"/>
			<point x="260" y="85" type="line"/>
			<point x="198" y="85"/>
			<point x="160" y="133"/>
			<point x="160" y="210" type="curve" smooth="yes"/>
			<point x="160" y="538" type="line" smooth="yes"/>
			<point x="160" y="636"/>
			<point x="214" y="695"/>
			<point x="301" y="695" type="curve" smooth="yes"/>
			<point x="387" y="695"/>
			<point x="440" y="636"/>
			<point x="440" y="538" type="curve" smooth="yes"/>
			<point x="440" y="210" type="line" smooth="yes"/>
			<point x="440" y="132"/>
			<point x="402" y="84"/>
			<point x="340" y="84" type="curve"/>
			<point x="340" y="0" type="line"/>
			<point x="550" y="0" type="line"/>
			<point x="550" y="45" type="line"/>
			<point x="385" y="45" type="line"/>
			<point x="385" y="60" type="line"/>
			<point x="385" y="60"/>
			<point x="490" y="65"/>
			<point x="490" y="210" type="curve" smooth="yes"/>
			<point x="490" y="538" type="line" smooth="yes"/>
			<point x="490" y="661"/>
			<point x="416" y="740"/>
			<point x="301" y="740" type="curve" smooth="yes"/>
			<point x="184" y="740"/>
			<point x="110" y="661"/>
			<point x="110" y="538" type="curve" smooth="yes"/>
			<point x="110" y="210" type="line" smooth="yes"/>
			<point x="110" y="65"/>
			<point x="215" y="60"/>
			<point x="215" y="60" type="curve"/>
			<point x="215" y="45" type="line"/>
			<point x="50" y="45" type="line"/>
		</contour>
	</outline>
</glyph>
<glyph name="lambda" format="2">
	<advance width="600"/>
	<unicode hex="03BB"/>
	<outline>
		<contour>
			<point x="68" y="0" type="line"/>
			<point x="125" y="0" type="line"/>
			<point x="263" y="357" type="line" smooth="yes"/>
			<point x="286" y="417"/>
			<point x="308" y="483"/>
			<point x="308" y="483" type="curve"/>
			<point x="308" y="483"/>
			<point x="328" y="417"/>
			<point x="350" y="357" type="curve" smooth="yes"/>
			<point x="478" y="0" type="line"/>
			<point x="532" y="0" type="line"/>
			<point x="266" y="730" type="line"/>
			<point x="209" y="730" type="line"/>
			<point x="284" y="539" type="line"/>
		</contour>
	</outline>
</glyph>
<glyph name="uni03BC" format="2">
	<advance width="600"/>
	<unicode hex="03BC"/>
	<outline>
		<contour>
			<point x="108" y="-180" type="line"/>
			<point x="158" y="-180" type="line"/>
			<point x="158" y="-3" type="line" smooth="yes"/>
			<point x="158" y="38"/>
			<point x="150" y="73"/>
			<point x="148" y="73" type="curve"/>
			<point x="151" y="73" type="line"/>
			<point x="179" y="20"/>
			<point x="230" y="-10"/>
			<point x="305" y="-10" type="curve" smooth="yes"/>
			<point x="421" y="-10"/>
			<point x="492" y="67"/>
			<point x="492" y="194" type="curve" smooth="yes"/>
			<point x="492" y="550" type="line"/>
			<point x="442" y="550" type="line"/>
			<point x="442" y="194" type="line" smooth="yes"/>
			<point x="442" y="93"/>
			<point x="389" y="35"/>
			<point x="299" y="35" type="curve" smooth="yes"/>
			<point x="210" y="35"/>
			<point x="158" y="93"/>
			<point x="158" y="194" type="curve" smooth="yes"/>
			<point x="158" y="550" type="line"/>
			<point x="108" y="550" type="line"/>
		</contour>
	</outline>
</glyph>
<glyph name="pi" format="2">
	<advance width="600"/>
	<unicode hex="03C0"/>
	<outline>
		<contour>
			<point x="526" y="-5" type="curve" smooth="yes"/>
			<point x="564" y="-5" type="line"/>
			<point x="564" y="40" type="line"/>
			<point x="526" y="40" type="line" smooth="yes"/>
			<point x="482" y="40"/>
			<point x="454" y="75"/>
			<point x="454" y="130" type="curve" smooth="yes"/>
			<point x="454" y="505" type="line"/>
			<point x="546" y="505" type="line"/>
			<point x="546" y="550" type="line"/>
			<point x="30" y="550" type="line"/>
			<point x="30" y="505" type="line"/>
			<point x="120" y="505" type="line"/>
			<point x="120" y="0" type="line"/>
			<point x="170" y="0" type="line"/>
			<point x="170" y="505" type="line"/>
			<point x="404" y="505" type="line"/>
			<point x="404" y="131" type="line" smooth="yes"/>
			<point x="404" y="46"/>
			<point x="450" y="-5"/>
		</contour>
	</outline>
</glyph>
<glyph name="uni0402" format="2">
	<advance width="600"/>
	<unicode hex="0402"/>
	<outline>
		<contour>
			<point x="267" y="-180" type="line"/>
			<point x="309" y="-180" type="line" smooth="yes"/>
			<point x="434" y="-180"/>
			<point x="515" y="-104"/>
			<point x="515" y="15" type="curve" smooth="yes"/>
			<point x="515" y="346" type="line" smooth="yes"/>
			<point x="515" y="437"/>
			<point x="464" y="495"/>
			<point x="384" y="495" type="curve" smooth="yes"/>
			<point x="329" y="495"/>
			<point x="275" y="468"/>
			<point x="227" y="417" type="curve" smooth="yes"/>
			<point x="180" y="367" type="line"/>
			<point x="180" y="685" type="line"/>
			<point x="305" y="685" type="line"/>
			<point x="305" y="730" type="line"/>
			<point x="0" y="730" type="line"/>
			<point x="0" y="685" type="line"/>
			<point x="130" y="685" type="line"/>
			<point x="130" y="0" type="line"/>
			<point x="180" y="0" type="line"/>
			<point x="180" y="310" type="line"/>
			<point x="255" y="388" type="line" smooth="yes"/>
			<point x="295" y="429"/>
			<point x="338" y="452"/>
			<point x="377" y="452" type="curve" smooth="yes"/>
			<point x="432" y="452"/>
			<point x="465" y="408"/>
			<point x="465" y="336" type="curve" smooth="yes"/>
			<point x="465" y="15" type="line" smooth="yes"/>
			<point x="465" y="-79"/>
			<point x="407" y="-135"/>
			<point x="309" y="-135" type="curve" smooth="yes"/>
			<point x="267" y="-135" type="line"/>
		</contour>
	</outline>
</glyph>
<glyph name="uni0409" format="2">
	<advance width="600"/>
	<unicode hex="0409"/>
	<outline>
		<contour>
			<point x="-5" y="-5" type="line"/>
			<point x="20" y="-5" type="line" smooth="yes"/>
			<point x="92" y="-5"/>
			<point x="140" y="59"/>
			<point x="141" y="158" type="curve" smooth="yes"/>
			<point x="150" y="685" type="line"/>
			<point x="297" y="685" type="line"/>
			<point x="297" y="0" type="line"/>
			<point x="415" y="0" type="line" smooth="yes"/>
			<point x="507" y="0"/>
			<point x="565" y="58"/>
			<point x="565" y="150" type="curve" smooth="yes"/>
			<point x="565" y="270" type="line" smooth="yes"/>
			<point x="565" y="362"/>
			<point x="507" y="420"/>
			<point x="415" y="420" type="curve" smooth="yes"/>
			<point x="347" y="420" type="line"/>
			<point x="347" y="730" type="line"/>
			<point x="100" y="730" type="line"/>
			<point x="91" y="158" type="line" smooth="yes"/>
			<point x="90" y="87"/>
			<point x="64" y="45"/>
			<point x="20" y="45" type="curve" smooth="yes"/>
			<point x="-5" y="45" type="line"/>
		</contour>
		<contour>
			<point x="415" y="45" type="curve" smooth="yes"/>
			<point x="347" y="45" type="line"/>
			<point x="347" y="375" type="line"/>
			<point x="415" y="375" type="line" smooth="yes"/>
			<point x="477" y="375"/>
			<point x="515" y="335"/>
			<point x="515" y="270" type="curve" smooth="yes"/>
			<point x="515" y="150" type="line" smooth="yes"/>
			<point x="515" y="85"/>
			<point x="477" y="45"/>
		</contour>
	</outline>
</glyph>
<glyph name="uni040A" format="2">
	<advance width="600"/>
	<unicode hex="040A"/>
	<outline>
		<contour>
			<point x="62" y="0" type="line"/>
			<point x="112" y="0" type="line"/>
			<point x="112" y="375" type="line"/>
			<point x="297" y="375" type="line"/>
			<point x="297" y="0" type="line"/>
			<point x="410" y="0" type="line" smooth="yes"/>
			<point x="505" y="0"/>
			<point x="565" y="58"/>
			<point x="565" y="150" type="curve" smooth="yes"/>
			<point x="565" y="270" type="line" smooth="yes"/>
			<point x="565" y="362"/>
			<point x="505" y="420"/>
			<point x="410" y="420" type="curve" smooth="yes"/>
			<point x="347" y="420" type="line"/>
			<point x="347" y="730" type="line"/>
			<point x="297" y="730" type="line"/>
			<point x="297" y="420" type="line"/>
			<point x="112" y="420" type="line"/>
			<point x="112" y="730" type="line"/>
			<point x="62" y="730" type="line"/>
		</contour>
		<contour>
			<point x="410" y="45" type="curve" smooth="yes"/>
			<point x="347" y="45" type="line"/>
			<point x="347" y="375" type="line"/>
			<point x="410" y="375" type="line" smooth="yes"/>
			<point x="475" y="375"/>
			<point x="515" y="335"/>
			<point x="515" y="270" type="curve" smooth="yes"/>
			<point x="515" y="150" type="line" smooth="yes"/>
			<point x="515" y="85"/>
			<point x="475" y="45"/>
		</contour>
	</outline>
</glyph>
<glyph name="uni040B" format="2">
	<advance width="600"/>
	<unicode hex="040B"/>
	<note>
		Chenck hor metrics.
	</note>
	<outline>
		<contour>
			<point x="130" y="0" type="line"/>
			<point x="180" y="0" type="line"/>
			<point x="180" y="310" type="line"/>
			<point x="255" y="388" type="line" smooth="yes"/>
			<point x="295" y="429"/>
			<point x="338" y="452"/>
			<point x="377" y="452" type="curve" smooth="yes"/>
			<point x="432" y="452"/>
			<point x="465" y="408"/>
			<point x="465" y="336" type="curve" smooth="yes"/>
			<point x="465" y="0" type="line"/>
			<point x="515" y="0" type="line"/>
			<point x="515" y="346" type="line" smooth="yes"/>
			<point x="515" y="437"/>
			<point x="464" y="495"/>
			<point x="385" y="495" type="curve" smooth="yes"/>
			<point x="330" y="495"/>
			<point x="276" y="468"/>
			<point x="227" y="416" type="curve" smooth="yes"/>
			<point x="180" y="366" type="line"/>
			<point x="180" y="685" type="line"/>
			<point x="305" y="685" type="line"/>
			<point x="305" y="730" type="line"/>
			<point x="0" y="730" type="line"/>
			<point x="0" y="685" type="line"/>
			<point x="130" y="685" type="line"/>
		</contour>
	</outline>
</glyph>
<glyph name="uni040F" format="2">
	<advance width="600"/>
	<unicode hex="040F"/>
	<outline>
		<contour>
			<point x="273" y="-125" type="line"/>
			<point x="328" y="-125" type="line"/>
			<point x="328" y="0" type="line"/>
			<point x="490" y="0" type="line"/>
			<point x="490" y="730" type="line"/>
			<point x="435" y="730" type="line"/>
			<point x="435" y="50" type="line"/>
			<point x="165" y="50" type="line"/>
			<point x="165" y="730" type="line"/>
			<point x="110" y="730" type="line"/>
			<point x="110" y="0" type="line"/>
			<point x="273" y="0" type="line"/>
		</contour>
	</outline>
</glyph>
<glyph name="uni0411" format="2">
	<advance width="600"/>
	<unicode hex="0411"/>
	<outline>
		<contour>
			<point x="110" y="0" type="line"/>
			<point x="306" y="0" type="line" smooth="yes"/>
			<point x="434" y="0"/>
			<point x="516" y="80"/>
			<point x="516" y="204" type="curve" smooth="yes"/>
			<point x="516" y="327"/>
			<point x="434" y="405"/>
			<point x="306" y="405" type="curve" smooth="yes"/>
			<point x="160" y="405" type="line"/>
			<point x="160" y="685" type="line"/>
			<point x="486" y="685" type="line"/>
			<point x="486" y="730" type="line"/>
			<point x="110" y="730" type="line"/>
		</contour>
		<contour>
			<point x="306" y="45" type="curve" smooth="yes"/>
			<point x="160" y="45" type="line"/>
			<point x="160" y="360" type="line"/>
			<point x="306" y="360" type="line" smooth="yes"/>
			<point x="406" y="360"/>
			<point x="466" y="301"/>
			<point x="466" y="203" type="curve" smooth="yes"/>
			<point x="466" y="104"/>
			<point x="406" y="45"/>
		</contour>
	</outline>
</glyph>
<glyph name="uni0413" format="2">
	<advance width="600"/>
	<unicode hex="0413"/>
	<outline>
		<contour>
			<point x="120" y="0" type="line"/>
			<point x="170" y="0" type="line"/>
			<point x="170" y="685" type="line"/>
			<point x="525" y="685" type="line"/>
			<point x="525" y="730" type="line"/>
			<point x="120" y="730" type="line"/>
		</contour>
	</outline>
</glyph>
<glyph name="uni0414" format="2">
	<advance width="600"/>
	<unicode hex="0414"/>
	<outline>
		<contour>
			<point x="48" y="-140" type="line"/>
			<point x="93" y="-140" type="line"/>
			<point x="93" y="0" type="line"/>
			<point x="505" y="0" type="line"/>
			<point x="505" y="-140" type="line"/>
			<point x="550" y="-140" type="line"/>
			<point x="550" y="45" type="line"/>
			<point x="478" y="45" type="line"/>
			<point x="478" y="730" type="line"/>
			<point x="161" y="730" type="line"/>
			<point x="151" y="276" type="line" smooth="yes"/>
			<point x="148" y="128"/>
			<point x="82" y="45"/>
			<point x="82" y="45" type="curve"/>
			<point x="48" y="45" type="line"/>
		</contour>
		<contour>
			<point x="135" y="45" type="line"/>
			<point x="135" y="45"/>
			<point x="197" y="128"/>
			<point x="201" y="276" type="curve" smooth="yes"/>
			<point x="211" y="685" type="line"/>
			<point x="428" y="685" type="line"/>
			<point x="428" y="45" type="line"/>
		</contour>
	</outline>
</glyph>
<glyph name="uni0416" format="2">
	<advance width="600"/>
	<unicode hex="0416"/>
	<outline>
		<contour>
			<point x="29" y="0" type="line"/>
			<point x="81" y="0" type="line"/>
			<point x="206" y="354" type="line"/>
			<point x="277" y="354" type="line"/>
			<point x="277" y="0" type="line"/>
			<point x="321" y="0" type="line"/>
			<point x="321" y="354" type="line"/>
			<point x="392" y="354" type="line"/>
			<point x="517" y="0" type="line"/>
			<point x="570" y="0" type="line"/>
			<point x="435" y="379" type="line"/>
			<point x="560" y="730" type="line"/>
			<point x="509" y="730" type="line"/>
			<point x="392" y="396" type="line"/>
			<point x="321" y="396" type="line"/>
			<point x="321" y="730" type="line"/>
			<point x="277" y="730" type="line"/>
			<point x="277" y="396" type="line"/>
			<point x="206" y="396" type="line"/>
			<point x="90" y="730" type="line"/>
			<point x="38" y="730" type="line"/>
			<point x="163" y="379" type="line"/>
		</contour>
	</outline>
</glyph>
<glyph name="uni0417" format="2">
	<advance width="600"/>
	<unicode hex="0417"/>
	<outline>
		<contour>
			<point x="300" y="-10" type="curve" smooth="yes"/>
			<point x="432" y="-10"/>
			<point x="516" y="72"/>
			<point x="516" y="200" type="curve" smooth="yes"/>
			<point x="516" y="308"/>
			<point x="446" y="380"/>
			<point x="340" y="380" type="curve"/>
			<point x="340" y="370" type="line"/>
			<point x="437" y="370"/>
			<point x="501" y="444"/>
			<point x="501" y="547" type="curve" smooth="yes"/>
			<point x="501" y="665"/>
			<point x="422" y="740"/>
			<point x="299" y="740" type="curve" smooth="yes"/>
			<point x="167" y="740"/>
			<point x="84" y="665"/>
			<point x="84" y="545" type="curve"/>
			<point x="134" y="545" type="line"/>
			<point x="134" y="638"/>
			<point x="197" y="696"/>
			<point x="299" y="696" type="curve" smooth="yes"/>
			<point x="393" y="696"/>
			<point x="451" y="639"/>
			<point x="451" y="545" type="curve" smooth="yes"/>
			<point x="451" y="452"/>
			<point x="394" y="397"/>
			<point x="300" y="397" type="curve" smooth="yes"/>
			<point x="215" y="397" type="line"/>
			<point x="215" y="352" type="line"/>
			<point x="300" y="352" type="line" smooth="yes"/>
			<point x="405" y="352"/>
			<point x="466" y="294"/>
			<point x="466" y="192" type="curve" smooth="yes"/>
			<point x="466" y="93"/>
			<point x="404" y="35"/>
			<point x="300" y="35" type="curve" smooth="yes"/>
			<point x="197" y="35"/>
			<point x="135" y="93"/>
			<point x="134" y="190" type="curve"/>
			<point x="84" y="190" type="line"/>
			<point x="84" y="70"/>
			<point x="170" y="-10"/>
		</contour>
	</outline>
</glyph>
<glyph name="uni0418" format="2">
	<advance width="600"/>
	<unicode hex="0418"/>
	<outline>
		<contour>
			<point x="109" y="0" type="line"/>
			<point x="178" y="0" type="line"/>
			<point x="447" y="675" type="line"/>
			<point x="447" y="675"/>
			<point x="443" y="581"/>
			<point x="443" y="560" type="curve" smooth="yes"/>
			<point x="443" y="0" type="line"/>
			<point x="491" y="0" type="line"/>
			<point x="491" y="730" type="line"/>
			<point x="421" y="730" type="line"/>
			<point x="155" y="55" type="line"/>
			<point x="155" y="55"/>
			<point x="157" y="100"/>
			<point x="157" y="170" type="curve" smooth="yes"/>
			<point x="157" y="730" type="line"/>
			<point x="109" y="730" type="line"/>
		</contour>
	</outline>
</glyph>
<glyph name="uni041B" format="2">
	<advance width="600"/>
	<unicode hex="041B"/>
	<outline>
		<contour>
			<point x="25" y="-5" type="line"/>
			<point x="55" y="-5" type="line" smooth="yes"/>
			<point x="136" y="-5"/>
			<point x="188" y="61"/>
			<point x="189" y="164" type="curve" smooth="yes"/>
			<point x="194" y="684" type="line"/>
			<point x="440" y="684" type="line"/>
			<point x="440" y="0" type="line"/>
			<point x="490" y="0" type="line"/>
			<point x="490" y="730" type="line"/>
			<point x="144" y="730" type="line"/>
			<point x="139" y="164" type="line" smooth="yes"/>
			<point x="138" y="92"/>
			<point x="105" y="45"/>
			<point x="55" y="45" type="curve" smooth="yes"/>
			<point x="25" y="45" type="line"/>
		</contour>
	</outline>
</glyph>
<glyph name="uni041F" format="2">
	<advance width="600"/>
	<unicode hex="041F"/>
	<outline>
		<contour>
			<point x="110" y="0" type="line"/>
			<point x="160" y="0" type="line"/>
			<point x="160" y="685" type="line"/>
			<point x="440" y="685" type="line"/>
			<point x="440" y="0" type="line"/>
			<point x="490" y="0" type="line"/>
			<point x="490" y="730" type="line"/>
			<point x="110" y="730" type="line"/>
		</contour>
	</outline>
</glyph>
<glyph name="uni0423" format="2">
	<advance width="600"/>
	<unicode hex="0423"/>
	<outline>
		<contour>
			<point x="209" y="0" type="line"/>
			<point x="266" y="0" type="line"/>
			<point x="532" y="730" type="line"/>
			<point x="478" y="730" type="line"/>
			<point x="350" y="373" type="line" smooth="yes"/>
			<point x="328" y="313"/>
			<point x="308" y="247"/>
			<point x="308" y="247" type="curve"/>
			<point x="308" y="247"/>
			<point x="286" y="313"/>
			<point x="263" y="373" type="curve" smooth="yes"/>
			<point x="125" y="730" type="line"/>
			<point x="68" y="730" type="line"/>
			<point x="284" y="191" type="line"/>
		</contour>
	</outline>
</glyph>
<glyph name="uni0424" format="2">
	<advance width="600"/>
	<unicode hex="0424"/>
	<outline>
		<contour>
			<point x="275" y="45" type="curve"/>
			<point x="275" y="-25" type="line"/>
			<point x="325" y="-25" type="line"/>
			<point x="325" y="45" type="line"/>
			<point x="454" y="45"/>
			<point x="534" y="123"/>
			<point x="534" y="247" type="curve" smooth="yes"/>
			<point x="534" y="500" type="line" smooth="yes"/>
			<point x="534" y="622"/>
			<point x="455" y="700"/>
			<point x="325" y="700" type="curve"/>
			<point x="325" y="770" type="line"/>
			<point x="275" y="770" type="line"/>
			<point x="275" y="700" type="line"/>
			<point x="145" y="700"/>
			<point x="66" y="622"/>
			<point x="66" y="500" type="curve" smooth="yes"/>
			<point x="66" y="247" type="line" smooth="yes"/>
			<point x="66" y="123"/>
			<point x="146" y="45"/>
		</contour>
		<contour>
			<point x="275" y="655" type="curve"/>
			<point x="275" y="90" type="line"/>
			<point x="182" y="90"/>
			<point x="116" y="156"/>
			<point x="116" y="247" type="curve" smooth="yes"/>
			<point x="116" y="500" type="line" smooth="yes"/>
			<point x="116" y="589"/>
			<point x="181" y="655"/>
		</contour>
		<contour>
			<point x="325" y="90" type="curve"/>
			<point x="325" y="655" type="line"/>
			<point x="419" y="655"/>
			<point x="484" y="589"/>
			<point x="484" y="500" type="curve" smooth="yes"/>
			<point x="484" y="247" type="line" smooth="yes"/>
			<point x="484" y="156"/>
			<point x="418" y="90"/>
		</contour>
	</outline>
</glyph>
<glyph name="uni0426" format="2">
	<advance width="600"/>
	<unicode hex="0426"/>
	<outline>
		<contour>
			<point x="500" y="-140" type="line"/>
			<point x="550" y="-140" type="line"/>
			<point x="550" y="45" type="line"/>
			<point x="473" y="45" type="line"/>
			<point x="473" y="730" type="line"/>
			<point x="423" y="730" type="line"/>
			<point x="423" y="45" type="line"/>
			<point x="160" y="45" type="line"/>
			<point x="160" y="730" type="line"/>
			<point x="110" y="730" type="line"/>
			<point x="110" y="0" type="line"/>
			<point x="500" y="0" type="line"/>
		</contour>
	</outline>
</glyph>
<glyph name="uni0427" format="2">
	<advance width="600"/>
	<unicode hex="0427"/>
	<outline>
		<contour>
			<point x="441" y="310" type="curve"/>
			<point x="440" y="0" type="line"/>
			<point x="490" y="0" type="line"/>
			<point x="490" y="730" type="line"/>
			<point x="440" y="730" type="line"/>
			<point x="440" y="355" type="line"/>
			<point x="440" y="355"/>
			<point x="387" y="345"/>
			<point x="309" y="345" type="curve" smooth="yes"/>
			<point x="198" y="345"/>
			<point x="140" y="402"/>
			<point x="140" y="491" type="curve" smooth="yes"/>
			<point x="140" y="730" type="line"/>
			<point x="90" y="730" type="line"/>
			<point x="90" y="491" type="line" smooth="yes"/>
			<point x="90" y="372"/>
			<point x="161" y="300"/>
			<point x="299" y="300" type="curve" smooth="yes"/>
			<point x="382" y="300"/>
			<point x="441" y="310"/>
		</contour>
	</outline>
</glyph>
<glyph name="uni042A" format="2">
	<advance width="600"/>
	<unicode hex="042A"/>
	<outline>
		<contour>
			<point x="140" y="0" type="line"/>
			<point x="310" y="0" type="line" smooth="yes"/>
			<point x="441" y="0"/>
			<point x="525" y="82"/>
			<point x="525" y="210" type="curve" smooth="yes"/>
			<point x="525" y="338"/>
			<point x="441" y="420"/>
			<point x="310" y="420" type="curve" smooth="yes"/>
			<point x="190" y="420" type="line"/>
			<point x="190" y="730" type="line"/>
			<point x="10" y="730" type="line"/>
			<point x="10" y="680" type="line"/>
			<point x="140" y="680" type="line"/>
		</contour>
		<contour>
			<point x="310" y="45" type="curve" smooth="yes"/>
			<point x="190" y="45" type="line"/>
			<point x="190" y="375" type="line"/>
			<point x="310" y="375" type="line" smooth="yes"/>
			<point x="410" y="375"/>
			<point x="474" y="310"/>
			<point x="474" y="210" type="curve" smooth="yes"/>
			<point x="474" y="110"/>
			<point x="410" y="45"/>
		</contour>
	</outline>
</glyph>
<glyph name="uni042B" format="2">
	<advance width="600"/>
	<unicode hex="042B"/>
	<outline>
		<contour>
			<point x="80" y="0" type="line"/>
			<point x="185" y="0" type="line" smooth="yes"/>
			<point x="304" y="0"/>
			<point x="380" y="75"/>
			<point x="380" y="190" type="curve" smooth="yes"/>
			<point x="380" y="230" type="line" smooth="yes"/>
			<point x="380" y="345"/>
			<point x="304" y="420"/>
			<point x="185" y="420" type="curve" smooth="yes"/>
			<point x="130" y="420" type="line"/>
			<point x="130" y="730" type="line"/>
			<point x="80" y="730" type="line"/>
		</contour>
		<contour>
			<point x="185" y="45" type="curve" smooth="yes"/>
			<point x="130" y="45" type="line"/>
			<point x="130" y="375" type="line"/>
			<point x="185" y="375" type="line" smooth="yes"/>
			<point x="275" y="375"/>
			<point x="330" y="320"/>
			<point x="330" y="230" type="curve" smooth="yes"/>
			<point x="330" y="190" type="line" smooth="yes"/>
			<point x="330" y="100"/>
			<point x="275" y="45"/>
		</contour>
		<contour>
			<point x="470" y="0" type="line"/>
			<point x="520" y="0" type="line"/>
			<point x="520" y="730" type="line"/>
			<point x="470" y="730" type="line"/>
		</contour>
	</outline>
</glyph>
<glyph name="uni042D" format="2">
	<advance width="600"/>
	<unicode hex="042D"/>
	<guideline y="-10"/>
	<outline>
		<contour>
			<point x="299" y="-10" type="curve" smooth="yes"/>
			<point x="421" y="-10"/>
			<point x="500" y="69"/>
			<point x="500" y="190" type="curve" smooth="yes"/>
			<point x="500" y="540" type="line" smooth="yes"/>
			<point x="500" y="662"/>
			<point x="421" y="740"/>
			<point x="299" y="740" type="curve" smooth="yes"/>
			<point x="175" y="740"/>
			<point x="95" y="658"/>
			<point x="95" y="530" type="curve"/>
			<point x="145" y="530" type="line"/>
			<point x="145" y="632"/>
			<point x="204" y="695"/>
			<point x="299" y="695" type="curve" smooth="yes"/>
			<point x="392" y="695"/>
			<point x="450" y="636"/>
			<point x="450" y="540" type="curve" smooth="yes"/>
			<point x="450" y="190" type="line" smooth="yes"/>
			<point x="450" y="94"/>
			<point x="393" y="35"/>
			<point x="299" y="35" type="curve" smooth="yes"/>
			<point x="203" y="35"/>
			<point x="145" y="98"/>
			<point x="145" y="200" type="curve"/>
			<point x="95" y="200" type="line"/>
			<point x="95" y="72"/>
			<point x="175" y="-10"/>
		</contour>
		<contour>
			<point x="215" y="346" type="line"/>
			<point x="472" y="346" type="line"/>
			<point x="472" y="391" type="line"/>
			<point x="215" y="391" type="line"/>
		</contour>
	</outline>
</glyph>
<glyph name="uni042E" format="2">
	<advance width="600"/>
	<unicode hex="042E"/>
	<outline>
		<contour>
			<point x="386" y="-10" type="curve" smooth="yes"/>
			<point x="481" y="-10"/>
			<point x="538" y="53"/>
			<point x="538" y="160" type="curve" smooth="yes"/>
			<point x="538" y="570" type="line" smooth="yes"/>
			<point x="538" y="677"/>
			<point x="481" y="740"/>
			<point x="386" y="740" type="curve" smooth="yes"/>
			<point x="292" y="740"/>
			<point x="234" y="677"/>
			<point x="234" y="570" type="curve" smooth="yes"/>
			<point x="234" y="396" type="line"/>
			<point x="124" y="396" type="line"/>
			<point x="124" y="730" type="line"/>
			<point x="76" y="730" type="line"/>
			<point x="76" y="0" type="line"/>
			<point x="124" y="0" type="line"/>
			<point x="124" y="356" type="line"/>
			<point x="234" y="356" type="line"/>
			<point x="234" y="160" type="line" smooth="yes"/>
			<point x="234" y="53"/>
			<point x="292" y="-10"/>
		</contour>
		<contour>
			<point x="386" y="35" type="curve" smooth="yes"/>
			<point x="322" y="35"/>
			<point x="282" y="83"/>
			<point x="282" y="160" type="curve" smooth="yes"/>
			<point x="282" y="570" type="line" smooth="yes"/>
			<point x="282" y="647"/>
			<point x="322" y="695"/>
			<point x="386" y="695" type="curve" smooth="yes"/>
			<point x="450" y="695"/>
			<point x="490" y="647"/>
			<point x="490" y="570" type="curve" smooth="yes"/>
			<point x="490" y="160" type="line" smooth="yes"/>
			<point x="490" y="83"/>
			<point x="450" y="35"/>
		</contour>
	</outline>
</glyph>
<glyph name="uni042F" format="2">
	<advance width="600"/>
	<unicode hex="042F"/>
	<outline>
		<contour>
			<point x="240" y="332" type="curve"/>
			<point x="72" y="0" type="line"/>
			<point x="130" y="0" type="line"/>
			<point x="294" y="330" type="line"/>
			<point x="440" y="330" type="line"/>
			<point x="440" y="0" type="line"/>
			<point x="490" y="0" type="line"/>
			<point x="490" y="730" type="line"/>
			<point x="285" y="730" type="line" smooth="yes"/>
			<point x="156" y="730"/>
			<point x="75" y="652"/>
			<point x="75" y="528" type="curve" smooth="yes"/>
			<point x="75" y="422"/>
			<point x="138" y="347"/>
		</contour>
		<contour>
			<point x="285" y="375" type="line"/>
			<point x="188" y="375"/>
			<point x="125" y="436"/>
			<point x="125" y="530" type="curve" smooth="yes"/>
			<point x="125" y="624"/>
			<point x="188" y="685"/>
			<point x="285" y="685" type="curve" smooth="yes"/>
			<point x="440" y="685" type="line"/>
			<point x="440" y="375" type="line"/>
		</contour>
	</outline>
</glyph>
<glyph name="uni0431" format="2">
	<advance width="600"/>
	<unicode hex="0431"/>
	<outline>
		<contour>
			<point x="301" y="-10" type="curve" smooth="yes"/>
			<point x="425" y="-10"/>
			<point x="495" y="66"/>
			<point x="495" y="200" type="curve" smooth="yes"/>
			<point x="495" y="285" type="line" smooth="yes"/>
			<point x="495" y="421"/>
			<point x="430" y="495"/>
			<point x="311" y="495" type="curve" smooth="yes"/>
			<point x="212" y="495"/>
			<point x="155" y="445"/>
			<point x="155" y="358" type="curve"/>
			<point x="169" y="393" type="line"/>
			<point x="155" y="393" type="line"/>
			<point x="155" y="475" type="line" smooth="yes"/>
			<point x="155" y="606"/>
			<point x="223" y="680"/>
			<point x="345" y="680" type="curve" smooth="yes"/>
			<point x="470" y="680" type="line"/>
			<point x="470" y="730" type="line"/>
			<point x="345" y="730" type="line" smooth="yes"/>
			<point x="190" y="730"/>
			<point x="105" y="640"/>
			<point x="105" y="475" type="curve" smooth="yes"/>
			<point x="105" y="200" type="line" smooth="yes"/>
			<point x="105" y="66"/>
			<point x="176" y="-10"/>
		</contour>
		<contour>
			<point x="301" y="35" type="curve" smooth="yes"/>
			<point x="210" y="35"/>
			<point x="155" y="97"/>
			<point x="155" y="200" type="curve" smooth="yes"/>
			<point x="155" y="285" type="line" smooth="yes"/>
			<point x="155" y="385"/>
			<point x="207" y="452"/>
			<point x="301" y="452" type="curve" smooth="yes"/>
			<point x="391" y="452"/>
			<point x="445" y="389"/>
			<point x="445" y="285" type="curve" smooth="yes"/>
			<point x="445" y="200" type="line" smooth="yes"/>
			<point x="445" y="97"/>
			<point x="391" y="35"/>
		</contour>
	</outline>
</glyph>
<glyph name="uni0432" format="2">
	<advance width="600"/>
	<unicode hex="0432"/>
	<outline>
		<contour>
			<point x="110" y="0" type="line"/>
			<point x="338" y="0" type="line" smooth="yes"/>
			<point x="443" y="0"/>
			<point x="513" y="61"/>
			<point x="513" y="152" type="curve" smooth="yes"/>
			<point x="513" y="232"/>
			<point x="455" y="286"/>
			<point x="368" y="286" type="curve"/>
			<point x="368" y="280" type="line"/>
			<point x="449" y="280"/>
			<point x="503" y="331"/>
			<point x="503" y="408" type="curve" smooth="yes"/>
			<point x="503" y="493"/>
			<point x="437" y="550"/>
			<point x="338" y="550" type="curve" smooth="yes"/>
			<point x="110" y="550" type="line"/>
		</contour>
		<contour>
			<point x="338" y="45" type="curve" smooth="yes"/>
			<point x="160" y="45" type="line"/>
			<point x="160" y="261" type="line"/>
			<point x="338" y="261" type="line" smooth="yes"/>
			<point x="410" y="261"/>
			<point x="463" y="216"/>
			<point x="463" y="152" type="curve" smooth="yes"/>
			<point x="463" y="91"/>
			<point x="410" y="45"/>
		</contour>
		<contour>
			<point x="338" y="306" type="curve" smooth="yes"/>
			<point x="160" y="306" type="line"/>
			<point x="160" y="505" type="line"/>
			<point x="338" y="505" type="line" smooth="yes"/>
			<point x="404" y="505"/>
			<point x="453" y="462"/>
			<point x="453" y="404" type="curve" smooth="yes"/>
			<point x="453" y="346"/>
			<point x="404" y="306"/>
		</contour>
	</outline>
</glyph>
<glyph name="uni0433" format="2">
	<advance width="600"/>
	<unicode hex="0433"/>
	<outline>
		<contour>
			<point x="145" y="0" type="line"/>
			<point x="195" y="0" type="line"/>
			<point x="195" y="505" type="line"/>
			<point x="520" y="505" type="line"/>
			<point x="520" y="550" type="line"/>
			<point x="145" y="550" type="line"/>
		</contour>
	</outline>
</glyph>
<glyph name="uni0434" format="2">
	<advance width="600"/>
	<unicode hex="0434"/>
	<outline>
		<contour>
			<point x="45" y="-140" type="line"/>
			<point x="90" y="-140" type="line"/>
			<point x="90" y="0" type="line"/>
			<point x="505" y="0" type="line"/>
			<point x="505" y="-140" type="line"/>
			<point x="550" y="-140" type="line"/>
			<point x="550" y="45" type="line"/>
			<point x="478" y="45" type="line"/>
			<point x="478" y="550" type="line"/>
			<point x="150" y="550" type="line"/>
			<point x="144" y="220" type="line" smooth="yes"/>
			<point x="142" y="120"/>
			<point x="91" y="45"/>
			<point x="91" y="45" type="curve" smooth="yes"/>
			<point x="45" y="45" type="line"/>
		</contour>
		<contour>
			<point x="146" y="45" type="line"/>
			<point x="146" y="45"/>
			<point x="192" y="105"/>
			<point x="194" y="220" type="curve" smooth="yes"/>
			<point x="200" y="505" type="line"/>
			<point x="428" y="505" type="line"/>
			<point x="428" y="45" type="line"/>
		</contour>
	</outline>
</glyph>
<glyph name="uni0436" format="2">
	<advance width="600"/>
	<unicode hex="0436"/>
	<outline>
		<contour>
			<point x="35" y="0" type="line"/>
			<point x="86" y="0" type="line"/>
			<point x="200" y="260" type="line"/>
			<point x="278" y="260" type="line"/>
			<point x="278" y="0" type="line"/>
			<point x="322" y="0" type="line"/>
			<point x="322" y="260" type="line"/>
			<point x="398" y="260" type="line"/>
			<point x="512" y="0" type="line"/>
			<point x="565" y="0" type="line"/>
			<point x="443" y="285" type="line"/>
			<point x="557" y="550" type="line"/>
			<point x="505" y="550" type="line"/>
			<point x="398" y="300" type="line"/>
			<point x="322" y="300" type="line"/>
			<point x="322" y="550" type="line"/>
			<point x="278" y="550" type="line"/>
			<point x="278" y="300" type="line"/>
			<point x="200" y="300" type="line"/>
			<point x="95" y="550" type="line"/>
			<point x="43" y="550" type="line"/>
			<point x="157" y="282" type="line"/>
		</contour>
	</outline>
</glyph>
<glyph name="uni0437" format="2">
	<advance width="600"/>
	<unicode hex="0437"/>
	<outline>
		<contour>
			<point x="274" y="-10" type="curve" smooth="yes"/>
			<point x="330" y="-10" type="line" smooth="yes"/>
			<point x="435" y="-10"/>
			<point x="505" y="55"/>
			<point x="505" y="146" type="curve" smooth="yes"/>
			<point x="505" y="217"/>
			<point x="464" y="274"/>
			<point x="395" y="279" type="curve"/>
			<point x="395" y="283" type="line"/>
			<point x="458" y="287"/>
			<point x="495" y="339"/>
			<point x="495" y="410" type="curve" smooth="yes"/>
			<point x="495" y="495"/>
			<point x="424" y="560"/>
			<point x="325" y="560" type="curve" smooth="yes"/>
			<point x="269" y="560" type="line" smooth="yes"/>
			<point x="158" y="560"/>
			<point x="107" y="509"/>
			<point x="91" y="425" type="curve"/>
			<point x="141" y="425" type="line"/>
			<point x="157" y="479"/>
			<point x="191" y="515"/>
			<point x="269" y="515" type="curve" smooth="yes"/>
			<point x="325" y="515" type="line" smooth="yes"/>
			<point x="391" y="515"/>
			<point x="445" y="464"/>
			<point x="445" y="406" type="curve" smooth="yes"/>
			<point x="445" y="348"/>
			<point x="401" y="306"/>
			<point x="335" y="306" type="curve" smooth="yes"/>
			<point x="207" y="306" type="line"/>
			<point x="207" y="261" type="line"/>
			<point x="335" y="261" type="line" smooth="yes"/>
			<point x="407" y="261"/>
			<point x="455" y="210"/>
			<point x="455" y="146" type="curve" smooth="yes"/>
			<point x="455" y="85"/>
			<point x="402" y="35"/>
			<point x="330" y="35" type="curve" smooth="yes"/>
			<point x="274" y="35" type="line" smooth="yes"/>
			<point x="196" y="35"/>
			<point x="152" y="71"/>
			<point x="136" y="125" type="curve"/>
			<point x="86" y="125" type="line"/>
			<point x="102" y="41"/>
			<point x="163" y="-10"/>
		</contour>
	</outline>
</glyph>
